<svg width="769" height="554" viewBox="0 0 769 554" fill="none" xmlns="http://www.w3.org/2000/svg">
<ellipse cx="382.105" cy="288.16" rx="335.898" ry="188.27" transform="rotate(-22.1657 382.105 288.16)" fill="#E5ECF7"/>
<path d="M692.253 136.793C711.67 184.455 694.849 241.841 651.512 296.198C608.199 350.527 538.532 401.632 452.759 436.575C366.987 471.518 281.441 483.646 212.493 475.052C143.509 466.454 91.3748 437.159 71.9575 389.497C52.5403 341.835 69.3613 284.449 112.698 230.091C156.012 175.763 225.679 124.658 311.451 89.7152C397.223 54.7722 482.769 42.644 551.717 51.2378C620.701 59.8362 672.835 89.1306 692.253 136.793Z" stroke="white" stroke-width="2"/>
<path d="M692.253 110.714C711.67 158.376 694.849 215.762 651.512 270.119C608.199 324.448 538.532 375.553 452.759 410.496C366.987 445.439 281.441 457.567 212.493 448.973C143.509 440.375 91.3748 411.08 71.9575 363.418C52.5403 315.756 69.3613 258.369 112.698 204.012C156.012 149.684 225.679 98.5792 311.451 63.6361C397.223 28.6931 482.769 16.5649 551.717 25.1587C620.701 33.7571 672.835 63.0515 692.253 110.714Z" stroke="white" stroke-width="2"/>
<path d="M697.042 174.581C716.46 222.244 699.639 279.63 656.302 333.987C612.988 388.316 543.321 439.42 457.549 474.363C371.777 509.306 286.231 521.434 217.283 512.841C148.299 504.242 96.1645 474.948 76.7472 427.286C57.3299 379.623 74.1509 322.237 117.488 267.88C160.801 213.551 230.468 162.447 316.241 127.504C402.013 92.5607 487.559 80.4326 556.507 89.0264C625.491 97.6248 677.625 126.919 697.042 174.581Z" stroke="white" stroke-width="2"/>
<path d="M264.612 281.517H260.444V274.012C260.444 271.808 259.466 270.706 257.511 270.706C256.572 270.686 255.796 271.022 255.183 271.712C254.589 272.402 254.292 273.226 254.292 274.185V281.517H250.21V267.312H253.947L254.091 269.124C255.221 267.648 256.754 266.929 258.69 266.967C262.638 266.967 264.612 269.306 264.612 273.984V281.517Z" fill="#00489D"/>
<path d="M272.063 267.284H267.924V281.517H272.063V267.284ZM268.355 265.271C267.876 264.849 267.636 264.274 267.636 263.546C267.636 262.817 267.876 262.242 268.355 261.82C268.853 261.399 269.399 261.188 269.993 261.188C270.587 261.188 271.124 261.399 271.603 261.82C272.101 262.242 272.351 262.817 272.351 263.546C272.351 264.274 272.101 264.849 271.603 265.271C271.124 265.693 270.587 265.904 269.993 265.904C269.399 265.904 268.853 265.693 268.355 265.271Z" fill="#00489D"/>
<path d="M282.401 270.763C281.347 270.763 280.504 271.108 279.871 271.798C279.239 272.469 278.923 273.341 278.923 274.415C278.923 275.469 279.229 276.341 279.842 277.032C280.475 277.722 281.328 278.067 282.401 278.067C283.455 278.067 284.356 277.77 285.103 277.175C285.85 276.581 286.224 275.661 286.224 274.415C286.224 273.284 285.841 272.392 285.074 271.741C284.308 271.089 283.417 270.763 282.401 270.763ZM286.282 261.418H290.45V281.517H286.742L286.483 279.706C285.41 281.086 283.838 281.776 281.768 281.776C279.68 281.776 277.984 281.105 276.68 279.763C275.396 278.402 274.754 276.619 274.754 274.415C274.754 272.153 275.406 270.36 276.709 269.038C278.012 267.696 279.718 267.025 281.826 267.025C283.704 267.025 285.189 267.696 286.282 269.038V261.418Z" fill="#00489D"/>
<path d="M293.343 283.473H297.195C297.329 285.39 298.517 286.348 300.76 286.348C301.737 286.348 302.561 286.118 303.232 285.658C303.922 285.217 304.267 284.575 304.267 283.731C304.267 282.102 303.117 281.287 300.817 281.287C298.479 281.287 296.611 280.645 295.212 279.361C293.832 278.057 293.142 276.313 293.142 274.127C293.142 271.827 293.889 270.044 295.384 268.779C296.879 267.514 298.69 266.881 300.817 266.881C302.293 266.881 303.404 267.14 304.152 267.658L305.704 265.645L308.693 267.945L306.882 270.102C307.917 271.348 308.406 272.709 308.349 274.185C308.291 276.485 307.275 278.143 305.301 279.159C307.409 280.099 308.463 281.623 308.463 283.731C308.463 285.725 307.707 287.268 306.193 288.361C304.679 289.454 302.868 290 300.76 290C298.326 290 296.467 289.425 295.183 288.275C293.918 287.144 293.305 285.543 293.343 283.473ZM300.817 270.562C299.725 270.562 298.834 270.878 298.144 271.511C297.473 272.143 297.138 273.016 297.138 274.127C297.138 275.143 297.482 275.968 298.172 276.6C298.881 277.214 299.763 277.52 300.817 277.52C301.814 277.52 302.657 277.223 303.347 276.629C304.037 276.035 304.382 275.201 304.382 274.127C304.382 273.131 304.037 272.287 303.347 271.597C302.676 270.907 301.833 270.562 300.817 270.562Z" fill="#00489D"/>
<path d="M325.207 275.766H314.772C314.887 276.495 315.28 277.099 315.95 277.578C316.621 278.038 317.512 278.268 318.624 278.268C320.214 278.268 321.441 277.894 322.303 277.147L324.632 279.735C323.213 281.134 321.182 281.834 318.537 281.834C316.008 281.834 314.043 281.153 312.644 279.792C311.265 278.431 310.575 276.591 310.575 274.271C310.575 272.086 311.255 270.322 312.616 268.98C313.976 267.619 315.807 266.939 318.106 266.939C320.617 266.939 322.533 267.705 323.855 269.239C325.197 270.773 325.647 272.948 325.207 275.766ZM314.772 272.747H321.498C321.46 272.019 321.115 271.463 320.463 271.079C319.812 270.677 319.026 270.476 318.106 270.476C317.282 270.476 316.573 270.677 315.979 271.079C315.385 271.482 314.982 272.038 314.772 272.747Z" fill="#00489D"/>
<path d="M198 278.309C205.511 274.855 213.458 269.658 217.951 262.741L217.963 262.723L218 262.741L224.017 265.802V276.564C227.35 273.162 232.62 270.415 237.603 267.847L244.068 271.728C236.583 275.197 228.683 280.388 224.061 287.292L218.007 284.157V273.496C214.674 276.886 209.517 279.81 204.534 282.389L198 278.309Z" fill="#F6652F"/>
<path d="M339.219 261H341.235L330.752 285.279H328.764L339.219 261Z" fill="#F6652F"/>
<path d="M349.454 270.274C347.898 270.274 346.612 270.763 345.594 271.743C344.596 272.703 344.097 274.056 344.097 275.804C344.097 277.532 344.606 278.885 345.623 279.865C346.641 280.844 347.918 281.333 349.454 281.333C350.99 281.333 352.267 280.815 353.284 279.778C354.321 278.741 354.839 277.407 354.839 275.775C354.839 274.162 354.321 272.847 353.284 271.829C352.267 270.792 350.99 270.274 349.454 270.274ZM354.926 262.757H356.855V282.917H354.983L354.926 280.066C354.369 281.065 353.582 281.833 352.564 282.37C351.566 282.908 350.49 283.177 349.338 283.177C347.246 283.177 345.527 282.524 344.183 281.218C342.839 279.913 342.167 278.108 342.167 275.804C342.167 273.5 342.839 271.695 344.183 270.389C345.527 269.083 347.246 268.431 349.338 268.431C350.51 268.431 351.604 268.699 352.622 269.237C353.639 269.755 354.407 270.514 354.926 271.512V262.757Z" fill="#F6652F"/>
<path d="M374.792 276.61H362.407C362.542 278.069 363.108 279.221 364.106 280.066C365.124 280.911 366.353 281.333 367.793 281.333C368.695 281.333 369.598 281.161 370.5 280.815C371.422 280.469 372.123 279.989 372.603 279.375L373.899 280.527C373.227 281.372 372.334 282.025 371.22 282.485C370.107 282.946 368.964 283.177 367.793 283.177C365.643 283.177 363.876 282.505 362.494 281.161C361.111 279.817 360.42 278.021 360.42 275.775C360.42 273.644 361.102 271.887 362.465 270.504C363.847 269.122 365.595 268.431 367.707 268.431C369.972 268.431 371.787 269.131 373.15 270.533C374.513 271.915 375.06 273.941 374.792 276.61ZM362.407 274.968H372.977C372.958 273.471 372.449 272.3 371.451 271.455C370.452 270.591 369.214 270.159 367.735 270.159C366.295 270.159 365.095 270.581 364.135 271.426C363.175 272.271 362.599 273.452 362.407 274.968Z" fill="#F6652F"/>
<path d="M388.367 268.69H390.498L384.508 282.946H382.377L376.386 268.69H378.517L383.442 280.815L388.367 268.69Z" fill="#F6652F"/>
<path d="M199.886 322H198.409L202.682 310.364H204.136L208.409 322H206.932L203.455 312.205H203.364L199.886 322ZM200.432 317.455H206.386V318.705H200.432V317.455ZM214.22 325.273V313.273H215.515V314.659H215.674C215.773 314.508 215.909 314.314 216.083 314.08C216.261 313.841 216.515 313.629 216.845 313.443C217.178 313.254 217.629 313.159 218.197 313.159C218.932 313.159 219.58 313.343 220.14 313.71C220.701 314.078 221.138 314.598 221.453 315.273C221.767 315.947 221.924 316.742 221.924 317.659C221.924 318.583 221.767 319.384 221.453 320.062C221.138 320.737 220.703 321.259 220.146 321.631C219.589 321.998 218.947 322.182 218.22 322.182C217.659 322.182 217.21 322.089 216.873 321.903C216.536 321.714 216.277 321.5 216.095 321.261C215.913 321.019 215.773 320.818 215.674 320.659H215.561V325.273H214.22ZM215.538 317.636C215.538 318.295 215.635 318.877 215.828 319.381C216.021 319.881 216.303 320.273 216.674 320.557C217.046 320.837 217.5 320.977 218.038 320.977C218.599 320.977 219.066 320.83 219.441 320.534C219.82 320.235 220.104 319.833 220.294 319.33C220.487 318.822 220.583 318.258 220.583 317.636C220.583 317.023 220.489 316.47 220.299 315.977C220.114 315.481 219.832 315.089 219.453 314.801C219.078 314.509 218.606 314.364 218.038 314.364C217.493 314.364 217.034 314.502 216.663 314.778C216.292 315.051 216.011 315.434 215.822 315.926C215.633 316.415 215.538 316.985 215.538 317.636ZM225.151 310.364V322H223.81V310.364H225.151ZM230.015 322.205C229.462 322.205 228.96 322.1 228.509 321.892C228.058 321.68 227.7 321.375 227.435 320.977C227.17 320.576 227.038 320.091 227.038 319.523C227.038 319.023 227.136 318.617 227.333 318.307C227.53 317.992 227.793 317.746 228.123 317.568C228.452 317.39 228.816 317.258 229.214 317.17C229.615 317.08 230.019 317.008 230.424 316.955C230.954 316.886 231.384 316.835 231.714 316.801C232.047 316.763 232.289 316.701 232.441 316.614C232.596 316.527 232.674 316.375 232.674 316.159V316.114C232.674 315.553 232.521 315.117 232.214 314.807C231.911 314.496 231.45 314.341 230.833 314.341C230.193 314.341 229.691 314.481 229.327 314.761C228.964 315.042 228.708 315.341 228.56 315.659L227.288 315.205C227.515 314.674 227.818 314.261 228.197 313.966C228.579 313.667 228.996 313.458 229.447 313.341C229.901 313.22 230.348 313.159 230.788 313.159C231.068 313.159 231.39 313.193 231.753 313.261C232.121 313.326 232.475 313.46 232.816 313.665C233.161 313.869 233.447 314.178 233.674 314.591C233.901 315.004 234.015 315.557 234.015 316.25V322H232.674V320.818H232.606C232.515 321.008 232.363 321.21 232.151 321.426C231.939 321.642 231.657 321.826 231.305 321.977C230.952 322.129 230.522 322.205 230.015 322.205ZM230.219 321C230.75 321 231.197 320.896 231.56 320.688C231.928 320.479 232.204 320.21 232.39 319.881C232.579 319.551 232.674 319.205 232.674 318.841V317.614C232.617 317.682 232.492 317.744 232.299 317.801C232.11 317.854 231.89 317.902 231.64 317.943C231.394 317.981 231.153 318.015 230.918 318.045C230.687 318.072 230.5 318.095 230.356 318.114C230.007 318.159 229.681 318.233 229.378 318.335C229.079 318.434 228.837 318.583 228.651 318.784C228.469 318.981 228.378 319.25 228.378 319.591C228.378 320.057 228.551 320.409 228.896 320.648C229.244 320.883 229.685 321 230.219 321ZM240.098 313.273V314.409H235.575V313.273H240.098ZM236.893 311.182H238.234V319.5C238.234 319.879 238.289 320.163 238.399 320.352C238.513 320.538 238.656 320.663 238.831 320.727C239.009 320.788 239.196 320.818 239.393 320.818C239.541 320.818 239.662 320.811 239.757 320.795C239.852 320.777 239.927 320.761 239.984 320.75L240.257 321.955C240.166 321.989 240.039 322.023 239.876 322.057C239.713 322.095 239.507 322.114 239.257 322.114C238.878 322.114 238.507 322.032 238.143 321.869C237.783 321.706 237.484 321.458 237.245 321.125C237.011 320.792 236.893 320.371 236.893 319.864V311.182ZM245.841 313.273V314.409H241.137V313.273H245.841ZM242.546 322V312.068C242.546 311.568 242.663 311.152 242.898 310.818C243.133 310.485 243.438 310.235 243.813 310.068C244.188 309.902 244.584 309.818 245 309.818C245.33 309.818 245.599 309.845 245.807 309.898C246.015 309.951 246.171 310 246.273 310.045L245.887 311.205C245.818 311.182 245.724 311.153 245.603 311.119C245.485 311.085 245.33 311.068 245.137 311.068C244.693 311.068 244.373 311.18 244.176 311.403C243.983 311.627 243.887 311.955 243.887 312.386V322H242.546ZM250.746 322.182C249.959 322.182 249.267 321.994 248.673 321.619C248.082 321.244 247.62 320.72 247.286 320.045C246.957 319.371 246.792 318.583 246.792 317.682C246.792 316.773 246.957 315.979 247.286 315.301C247.62 314.623 248.082 314.097 248.673 313.722C249.267 313.347 249.959 313.159 250.746 313.159C251.534 313.159 252.224 313.347 252.815 313.722C253.409 314.097 253.871 314.623 254.201 315.301C254.534 315.979 254.701 316.773 254.701 317.682C254.701 318.583 254.534 319.371 254.201 320.045C253.871 320.72 253.409 321.244 252.815 321.619C252.224 321.994 251.534 322.182 250.746 322.182ZM250.746 320.977C251.345 320.977 251.837 320.824 252.224 320.517C252.61 320.21 252.896 319.807 253.082 319.307C253.267 318.807 253.36 318.265 253.36 317.682C253.36 317.098 253.267 316.555 253.082 316.051C252.896 315.547 252.61 315.14 252.224 314.83C251.837 314.519 251.345 314.364 250.746 314.364C250.148 314.364 249.656 314.519 249.269 314.83C248.883 315.14 248.597 315.547 248.411 316.051C248.226 316.555 248.133 317.098 248.133 317.682C248.133 318.265 248.226 318.807 248.411 319.307C248.597 319.807 248.883 320.21 249.269 320.517C249.656 320.824 250.148 320.977 250.746 320.977ZM256.588 322V313.273H257.883V314.591H257.974C258.133 314.159 258.421 313.809 258.838 313.54C259.255 313.271 259.724 313.136 260.247 313.136C260.345 313.136 260.469 313.138 260.616 313.142C260.764 313.146 260.876 313.152 260.952 313.159V314.523C260.906 314.511 260.802 314.494 260.639 314.472C260.48 314.445 260.311 314.432 260.133 314.432C259.709 314.432 259.33 314.521 258.997 314.699C258.667 314.873 258.406 315.116 258.213 315.426C258.024 315.733 257.929 316.083 257.929 316.477V322H256.588ZM262.381 322V313.273H263.676V314.636H263.79C263.972 314.17 264.265 313.809 264.671 313.551C265.076 313.29 265.563 313.159 266.131 313.159C266.707 313.159 267.186 313.29 267.569 313.551C267.955 313.809 268.256 314.17 268.472 314.636H268.563C268.786 314.186 269.122 313.828 269.569 313.562C270.015 313.294 270.551 313.159 271.176 313.159C271.957 313.159 272.595 313.403 273.091 313.892C273.587 314.377 273.836 315.133 273.836 316.159V322H272.495V316.159C272.495 315.515 272.319 315.055 271.966 314.778C271.614 314.502 271.199 314.364 270.722 314.364C270.108 314.364 269.633 314.549 269.296 314.92C268.959 315.288 268.79 315.754 268.79 316.318V322H267.426V316.023C267.426 315.527 267.265 315.127 266.944 314.824C266.622 314.517 266.207 314.364 265.699 314.364C265.351 314.364 265.025 314.456 264.722 314.642C264.423 314.828 264.18 315.085 263.995 315.415C263.813 315.741 263.722 316.117 263.722 316.545V322H262.381ZM284.263 313.273V314.409H279.74V313.273H284.263ZM281.058 311.182H282.399V319.5C282.399 319.879 282.454 320.163 282.564 320.352C282.677 320.538 282.821 320.663 282.996 320.727C283.174 320.788 283.361 320.818 283.558 320.818C283.706 320.818 283.827 320.811 283.922 320.795C284.017 320.777 284.092 320.761 284.149 320.75L284.422 321.955C284.331 321.989 284.204 322.023 284.041 322.057C283.878 322.095 283.672 322.114 283.422 322.114C283.043 322.114 282.672 322.032 282.308 321.869C281.948 321.706 281.649 321.458 281.41 321.125C281.176 320.792 281.058 320.371 281.058 319.864V311.182ZM287.648 316.75V322H286.307V310.364H287.648V314.636H287.762C287.966 314.186 288.273 313.828 288.682 313.562C289.095 313.294 289.644 313.159 290.33 313.159C290.925 313.159 291.446 313.278 291.893 313.517C292.339 313.752 292.686 314.114 292.932 314.602C293.182 315.087 293.307 315.705 293.307 316.455V322H291.966V316.545C291.966 315.852 291.786 315.316 291.427 314.938C291.071 314.555 290.576 314.364 289.944 314.364C289.504 314.364 289.11 314.456 288.762 314.642C288.417 314.828 288.144 315.098 287.944 315.455C287.747 315.811 287.648 316.242 287.648 316.75ZM298.169 322.205C297.616 322.205 297.114 322.1 296.663 321.892C296.212 321.68 295.854 321.375 295.589 320.977C295.324 320.576 295.191 320.091 295.191 319.523C295.191 319.023 295.29 318.617 295.487 318.307C295.684 317.992 295.947 317.746 296.277 317.568C296.606 317.39 296.97 317.258 297.367 317.17C297.769 317.08 298.172 317.008 298.578 316.955C299.108 316.886 299.538 316.835 299.867 316.801C300.201 316.763 300.443 316.701 300.595 316.614C300.75 316.527 300.828 316.375 300.828 316.159V316.114C300.828 315.553 300.674 315.117 300.367 314.807C300.064 314.496 299.604 314.341 298.987 314.341C298.347 314.341 297.845 314.481 297.481 314.761C297.117 315.042 296.862 315.341 296.714 315.659L295.441 315.205C295.669 314.674 295.972 314.261 296.35 313.966C296.733 313.667 297.15 313.458 297.6 313.341C298.055 313.22 298.502 313.159 298.941 313.159C299.222 313.159 299.544 313.193 299.907 313.261C300.275 313.326 300.629 313.46 300.97 313.665C301.314 313.869 301.6 314.178 301.828 314.591C302.055 315.004 302.169 315.557 302.169 316.25V322H300.828V320.818H300.759C300.669 321.008 300.517 321.21 300.305 321.426C300.093 321.642 299.811 321.826 299.458 321.977C299.106 322.129 298.676 322.205 298.169 322.205ZM298.373 321C298.903 321 299.35 320.896 299.714 320.688C300.081 320.479 300.358 320.21 300.544 319.881C300.733 319.551 300.828 319.205 300.828 318.841V317.614C300.771 317.682 300.646 317.744 300.453 317.801C300.263 317.854 300.044 317.902 299.794 317.943C299.547 317.981 299.307 318.015 299.072 318.045C298.841 318.072 298.653 318.095 298.509 318.114C298.161 318.159 297.835 318.233 297.532 318.335C297.233 318.434 296.991 318.583 296.805 318.784C296.623 318.981 296.532 319.25 296.532 319.591C296.532 320.057 296.705 320.409 297.049 320.648C297.398 320.883 297.839 321 298.373 321ZM308.251 313.273V314.409H303.729V313.273H308.251ZM305.047 311.182H306.388V319.5C306.388 319.879 306.443 320.163 306.553 320.352C306.666 320.538 306.81 320.663 306.984 320.727C307.162 320.788 307.35 320.818 307.547 320.818C307.695 320.818 307.816 320.811 307.911 320.795C308.005 320.777 308.081 320.761 308.138 320.75L308.411 321.955C308.32 321.989 308.193 322.023 308.03 322.057C307.867 322.095 307.661 322.114 307.411 322.114C307.032 322.114 306.661 322.032 306.297 321.869C305.937 321.706 305.638 321.458 305.399 321.125C305.164 320.792 305.047 320.371 305.047 319.864V311.182ZM314.63 322V310.364H315.971V314.659H316.085C316.183 314.508 316.32 314.314 316.494 314.08C316.672 313.841 316.926 313.629 317.255 313.443C317.589 313.254 318.039 313.159 318.608 313.159C319.342 313.159 319.99 313.343 320.551 313.71C321.111 314.078 321.549 314.598 321.863 315.273C322.178 315.947 322.335 316.742 322.335 317.659C322.335 318.583 322.178 319.384 321.863 320.062C321.549 320.737 321.113 321.259 320.556 321.631C320 321.998 319.358 322.182 318.63 322.182C318.07 322.182 317.621 322.089 317.284 321.903C316.947 321.714 316.687 321.5 316.505 321.261C316.324 321.019 316.183 320.818 316.085 320.659H315.926V322H314.63ZM315.949 317.636C315.949 318.295 316.045 318.877 316.238 319.381C316.431 319.881 316.714 320.273 317.085 320.557C317.456 320.837 317.911 320.977 318.449 320.977C319.009 320.977 319.477 320.83 319.852 320.534C320.231 320.235 320.515 319.833 320.704 319.33C320.897 318.822 320.994 318.258 320.994 317.636C320.994 317.023 320.899 316.47 320.71 315.977C320.524 315.481 320.242 315.089 319.863 314.801C319.488 314.509 319.017 314.364 318.449 314.364C317.903 314.364 317.445 314.502 317.074 314.778C316.702 315.051 316.422 315.434 316.233 315.926C316.043 316.415 315.949 316.985 315.949 317.636ZM324.226 322V313.273H325.521V314.591H325.612C325.771 314.159 326.059 313.809 326.476 313.54C326.893 313.271 327.362 313.136 327.885 313.136C327.984 313.136 328.107 313.138 328.254 313.142C328.402 313.146 328.514 313.152 328.59 313.159V314.523C328.544 314.511 328.44 314.494 328.277 314.472C328.118 314.445 327.95 314.432 327.771 314.432C327.347 314.432 326.968 314.521 326.635 314.699C326.306 314.873 326.044 315.116 325.851 315.426C325.662 315.733 325.567 316.083 325.567 316.477V322H324.226ZM330.019 322V313.273H331.36V322H330.019ZM330.701 311.818C330.44 311.818 330.214 311.729 330.025 311.551C329.839 311.373 329.746 311.159 329.746 310.909C329.746 310.659 329.839 310.445 330.025 310.267C330.214 310.089 330.44 310 330.701 310C330.962 310 331.186 310.089 331.371 310.267C331.561 310.445 331.656 310.659 331.656 310.909C331.656 311.159 331.561 311.373 331.371 311.551C331.186 311.729 330.962 311.818 330.701 311.818ZM334.997 316.75V322H333.656V313.273H334.951V314.636H335.065C335.27 314.193 335.58 313.837 335.997 313.568C336.414 313.295 336.951 313.159 337.611 313.159C338.201 313.159 338.719 313.28 339.162 313.523C339.605 313.761 339.95 314.125 340.196 314.614C340.442 315.098 340.565 315.712 340.565 316.455V322H339.224V316.545C339.224 315.86 339.046 315.326 338.69 314.943C338.334 314.557 337.845 314.364 337.224 314.364C336.796 314.364 336.414 314.456 336.076 314.642C335.743 314.828 335.48 315.098 335.287 315.455C335.094 315.811 334.997 316.242 334.997 316.75ZM346.378 325.455C345.73 325.455 345.174 325.371 344.708 325.205C344.242 325.042 343.854 324.826 343.543 324.557C343.236 324.292 342.992 324.008 342.81 323.705L343.878 322.955C343.999 323.114 344.153 323.295 344.338 323.5C344.524 323.708 344.778 323.888 345.1 324.04C345.425 324.195 345.852 324.273 346.378 324.273C347.083 324.273 347.664 324.102 348.122 323.761C348.581 323.42 348.81 322.886 348.81 322.159V320.386H348.696C348.598 320.545 348.458 320.742 348.276 320.977C348.098 321.208 347.84 321.415 347.503 321.597C347.17 321.775 346.719 321.864 346.151 321.864C345.446 321.864 344.814 321.697 344.253 321.364C343.696 321.03 343.255 320.545 342.929 319.909C342.607 319.273 342.446 318.5 342.446 317.591C342.446 316.697 342.604 315.919 342.918 315.256C343.232 314.589 343.67 314.074 344.23 313.71C344.791 313.343 345.439 313.159 346.174 313.159C346.742 313.159 347.193 313.254 347.526 313.443C347.863 313.629 348.121 313.841 348.299 314.08C348.48 314.314 348.621 314.508 348.719 314.659H348.855V313.273H350.151V322.25C350.151 323 349.98 323.61 349.639 324.08C349.302 324.553 348.848 324.9 348.276 325.119C347.708 325.343 347.075 325.455 346.378 325.455ZM346.333 320.659C346.871 320.659 347.325 320.536 347.696 320.29C348.068 320.044 348.35 319.689 348.543 319.227C348.736 318.765 348.833 318.212 348.833 317.568C348.833 316.939 348.738 316.384 348.549 315.903C348.359 315.422 348.079 315.045 347.708 314.773C347.336 314.5 346.878 314.364 346.333 314.364C345.764 314.364 345.291 314.508 344.912 314.795C344.537 315.083 344.255 315.47 344.066 315.955C343.88 316.439 343.787 316.977 343.787 317.568C343.787 318.174 343.882 318.71 344.071 319.176C344.264 319.638 344.549 320.002 344.924 320.267C345.302 320.528 345.772 320.659 346.333 320.659ZM358.627 315.227L357.423 315.568C357.347 315.367 357.235 315.172 357.087 314.983C356.944 314.79 356.747 314.631 356.497 314.506C356.247 314.381 355.926 314.318 355.536 314.318C355.002 314.318 354.557 314.441 354.201 314.688C353.849 314.93 353.673 315.239 353.673 315.614C353.673 315.947 353.794 316.21 354.036 316.403C354.279 316.597 354.658 316.758 355.173 316.886L356.468 317.205C357.248 317.394 357.83 317.684 358.212 318.074C358.595 318.46 358.786 318.958 358.786 319.568C358.786 320.068 358.642 320.515 358.354 320.909C358.07 321.303 357.673 321.614 357.161 321.841C356.65 322.068 356.055 322.182 355.377 322.182C354.487 322.182 353.75 321.989 353.167 321.602C352.584 321.216 352.214 320.652 352.059 319.909L353.332 319.591C353.453 320.061 353.682 320.413 354.019 320.648C354.36 320.883 354.805 321 355.354 321C355.979 321 356.476 320.867 356.843 320.602C357.214 320.333 357.4 320.011 357.4 319.636C357.4 319.333 357.294 319.08 357.082 318.875C356.87 318.667 356.544 318.511 356.104 318.409L354.65 318.068C353.851 317.879 353.264 317.585 352.889 317.188C352.517 316.786 352.332 316.284 352.332 315.682C352.332 315.189 352.47 314.754 352.747 314.375C353.027 313.996 353.408 313.699 353.889 313.483C354.373 313.267 354.923 313.159 355.536 313.159C356.4 313.159 357.078 313.348 357.57 313.727C358.067 314.106 358.419 314.606 358.627 315.227ZM368.644 322.182C367.803 322.182 367.078 321.996 366.468 321.625C365.862 321.25 365.394 320.727 365.064 320.057C364.739 319.383 364.576 318.598 364.576 317.705C364.576 316.811 364.739 316.023 365.064 315.341C365.394 314.655 365.852 314.121 366.439 313.739C367.03 313.352 367.72 313.159 368.508 313.159C368.962 313.159 369.411 313.235 369.854 313.386C370.297 313.538 370.701 313.784 371.064 314.125C371.428 314.462 371.718 314.909 371.934 315.466C372.15 316.023 372.258 316.708 372.258 317.523V318.091H365.53V316.932H370.894C370.894 316.439 370.795 316 370.598 315.614C370.405 315.227 370.129 314.922 369.769 314.699C369.413 314.475 368.992 314.364 368.508 314.364C367.973 314.364 367.511 314.496 367.121 314.761C366.735 315.023 366.437 315.364 366.229 315.784C366.021 316.205 365.917 316.655 365.917 317.136V317.909C365.917 318.568 366.03 319.127 366.258 319.585C366.489 320.04 366.809 320.386 367.218 320.625C367.627 320.86 368.102 320.977 368.644 320.977C368.996 320.977 369.314 320.928 369.598 320.83C369.886 320.727 370.134 320.576 370.343 320.375C370.551 320.17 370.712 319.917 370.826 319.614L372.121 319.977C371.985 320.417 371.756 320.803 371.434 321.136C371.112 321.466 370.714 321.723 370.24 321.909C369.767 322.091 369.235 322.182 368.644 322.182ZM381.008 313.273L377.781 322H376.417L373.19 313.273H374.644L377.053 320.227H377.144L379.553 313.273H381.008ZM385.964 322.182C385.124 322.182 384.398 321.996 383.788 321.625C383.182 321.25 382.714 320.727 382.385 320.057C382.059 319.383 381.896 318.598 381.896 317.705C381.896 316.811 382.059 316.023 382.385 315.341C382.714 314.655 383.173 314.121 383.76 313.739C384.351 313.352 385.04 313.159 385.828 313.159C386.283 313.159 386.732 313.235 387.175 313.386C387.618 313.538 388.021 313.784 388.385 314.125C388.749 314.462 389.038 314.909 389.254 315.466C389.47 316.023 389.578 316.708 389.578 317.523V318.091H382.851V316.932H388.214C388.214 316.439 388.116 316 387.919 315.614C387.726 315.227 387.449 314.922 387.089 314.699C386.733 314.475 386.313 314.364 385.828 314.364C385.294 314.364 384.832 314.496 384.442 314.761C384.055 315.023 383.758 315.364 383.55 315.784C383.341 316.205 383.237 316.655 383.237 317.136V317.909C383.237 318.568 383.351 319.127 383.578 319.585C383.809 320.04 384.129 320.386 384.538 320.625C384.947 320.86 385.423 320.977 385.964 320.977C386.317 320.977 386.635 320.928 386.919 320.83C387.207 320.727 387.455 320.576 387.663 320.375C387.872 320.17 388.033 319.917 388.146 319.614L389.442 319.977C389.305 320.417 389.076 320.803 388.754 321.136C388.432 321.466 388.035 321.723 387.561 321.909C387.088 322.091 386.555 322.182 385.964 322.182ZM391.458 322V313.273H392.753V314.591H392.844C393.003 314.159 393.291 313.809 393.708 313.54C394.125 313.271 394.594 313.136 395.117 313.136C395.215 313.136 395.339 313.138 395.486 313.142C395.634 313.146 395.746 313.152 395.822 313.159V314.523C395.776 314.511 395.672 314.494 395.509 314.472C395.35 314.445 395.181 314.432 395.003 314.432C394.579 314.432 394.2 314.521 393.867 314.699C393.537 314.873 393.276 315.116 393.083 315.426C392.894 315.733 392.799 316.083 392.799 316.477V322H391.458ZM398.38 325.273C398.153 325.273 397.95 325.254 397.772 325.216C397.594 325.182 397.471 325.148 397.403 325.114L397.744 323.932C398.07 324.015 398.358 324.045 398.608 324.023C398.858 324 399.079 323.888 399.272 323.688C399.469 323.491 399.649 323.17 399.812 322.727L400.062 322.045L396.835 313.273H398.289L400.698 320.227H400.789L403.198 313.273H404.653L400.948 323.273C400.782 323.723 400.575 324.097 400.329 324.392C400.083 324.691 399.797 324.913 399.471 325.057C399.149 325.201 398.786 325.273 398.38 325.273ZM409.496 322.182C408.708 322.182 408.017 321.994 407.422 321.619C406.831 321.244 406.369 320.72 406.036 320.045C405.706 319.371 405.541 318.583 405.541 317.682C405.541 316.773 405.706 315.979 406.036 315.301C406.369 314.623 406.831 314.097 407.422 313.722C408.017 313.347 408.708 313.159 409.496 313.159C410.284 313.159 410.973 313.347 411.564 313.722C412.159 314.097 412.621 314.623 412.95 315.301C413.284 315.979 413.45 316.773 413.45 317.682C413.45 318.583 413.284 319.371 412.95 320.045C412.621 320.72 412.159 321.244 411.564 321.619C410.973 321.994 410.284 322.182 409.496 322.182ZM409.496 320.977C410.094 320.977 410.587 320.824 410.973 320.517C411.359 320.21 411.645 319.807 411.831 319.307C412.017 318.807 412.109 318.265 412.109 317.682C412.109 317.098 412.017 316.555 411.831 316.051C411.645 315.547 411.359 315.14 410.973 314.83C410.587 314.519 410.094 314.364 409.496 314.364C408.897 314.364 408.405 314.519 408.019 314.83C407.632 315.14 407.346 315.547 407.161 316.051C406.975 316.555 406.882 317.098 406.882 317.682C406.882 318.265 406.975 318.807 407.161 319.307C407.346 319.807 407.632 320.21 408.019 320.517C408.405 320.824 408.897 320.977 409.496 320.977ZM416.678 316.75V322H415.337V313.273H416.633V314.636H416.746C416.951 314.193 417.262 313.837 417.678 313.568C418.095 313.295 418.633 313.159 419.292 313.159C419.883 313.159 420.4 313.28 420.843 313.523C421.286 313.761 421.631 314.125 421.877 314.614C422.123 315.098 422.246 315.712 422.246 316.455V322H420.905V316.545C420.905 315.86 420.727 315.326 420.371 314.943C420.015 314.557 419.527 314.364 418.905 314.364C418.477 314.364 418.095 314.456 417.758 314.642C417.424 314.828 417.161 315.098 416.968 315.455C416.775 315.811 416.678 316.242 416.678 316.75ZM428.196 322.182C427.355 322.182 426.629 321.996 426.02 321.625C425.414 321.25 424.946 320.727 424.616 320.057C424.29 319.383 424.128 318.598 424.128 317.705C424.128 316.811 424.29 316.023 424.616 315.341C424.946 314.655 425.404 314.121 425.991 313.739C426.582 313.352 427.271 313.159 428.059 313.159C428.514 313.159 428.963 313.235 429.406 313.386C429.849 313.538 430.253 313.784 430.616 314.125C430.98 314.462 431.27 314.909 431.486 315.466C431.701 316.023 431.809 316.708 431.809 317.523V318.091H425.082V316.932H430.446C430.446 316.439 430.347 316 430.15 315.614C429.957 315.227 429.681 314.922 429.321 314.699C428.965 314.475 428.544 314.364 428.059 314.364C427.525 314.364 427.063 314.496 426.673 314.761C426.287 315.023 425.989 315.364 425.781 315.784C425.573 316.205 425.468 316.655 425.468 317.136V317.909C425.468 318.568 425.582 319.127 425.809 319.585C426.04 320.04 426.361 320.386 426.77 320.625C427.179 320.86 427.654 320.977 428.196 320.977C428.548 320.977 428.866 320.928 429.15 320.83C429.438 320.727 429.686 320.576 429.895 320.375C430.103 320.17 430.264 319.917 430.378 319.614L431.673 319.977C431.537 320.417 431.307 320.803 430.986 321.136C430.664 321.466 430.266 321.723 429.792 321.909C429.319 322.091 428.787 322.182 428.196 322.182ZM441.825 313.273V314.409H437.302V313.273H441.825ZM438.62 311.182H439.961V319.5C439.961 319.879 440.016 320.163 440.126 320.352C440.239 320.538 440.383 320.663 440.558 320.727C440.736 320.788 440.923 320.818 441.12 320.818C441.268 320.818 441.389 320.811 441.484 320.795C441.578 320.777 441.654 320.761 441.711 320.75L441.984 321.955C441.893 321.989 441.766 322.023 441.603 322.057C441.44 322.095 441.234 322.114 440.984 322.114C440.605 322.114 440.234 322.032 439.87 321.869C439.51 321.706 439.211 321.458 438.972 321.125C438.737 320.792 438.62 320.371 438.62 319.864V311.182ZM447.133 322.182C446.345 322.182 445.654 321.994 445.059 321.619C444.469 321.244 444.006 320.72 443.673 320.045C443.344 319.371 443.179 318.583 443.179 317.682C443.179 316.773 443.344 315.979 443.673 315.301C444.006 314.623 444.469 314.097 445.059 313.722C445.654 313.347 446.345 313.159 447.133 313.159C447.921 313.159 448.611 313.347 449.202 313.722C449.796 314.097 450.258 314.623 450.588 315.301C450.921 315.979 451.088 316.773 451.088 317.682C451.088 318.583 450.921 319.371 450.588 320.045C450.258 320.72 449.796 321.244 449.202 321.619C448.611 321.994 447.921 322.182 447.133 322.182ZM447.133 320.977C447.732 320.977 448.224 320.824 448.611 320.517C448.997 320.21 449.283 319.807 449.469 319.307C449.654 318.807 449.747 318.265 449.747 317.682C449.747 317.098 449.654 316.555 449.469 316.051C449.283 315.547 448.997 315.14 448.611 314.83C448.224 314.519 447.732 314.364 447.133 314.364C446.535 314.364 446.042 314.519 445.656 314.83C445.27 315.14 444.984 315.547 444.798 316.051C444.613 316.555 444.52 317.098 444.52 317.682C444.52 318.265 444.613 318.807 444.798 319.307C444.984 319.807 445.27 320.21 445.656 320.517C446.042 320.824 446.535 320.977 447.133 320.977ZM456.497 325.455C455.85 325.455 455.293 325.371 454.827 325.205C454.361 325.042 453.973 324.826 453.662 324.557C453.355 324.292 453.111 324.008 452.929 323.705L453.997 322.955C454.119 323.114 454.272 323.295 454.458 323.5C454.643 323.708 454.897 323.888 455.219 324.04C455.545 324.195 455.971 324.273 456.497 324.273C457.202 324.273 457.783 324.102 458.242 323.761C458.7 323.42 458.929 322.886 458.929 322.159V320.386H458.816C458.717 320.545 458.577 320.742 458.395 320.977C458.217 321.208 457.96 321.415 457.622 321.597C457.289 321.775 456.838 321.864 456.27 321.864C455.566 321.864 454.933 321.697 454.372 321.364C453.816 321.03 453.374 320.545 453.049 319.909C452.727 319.273 452.566 318.5 452.566 317.591C452.566 316.697 452.723 315.919 453.037 315.256C453.352 314.589 453.789 314.074 454.35 313.71C454.91 313.343 455.558 313.159 456.293 313.159C456.861 313.159 457.312 313.254 457.645 313.443C457.982 313.629 458.24 313.841 458.418 314.08C458.6 314.314 458.74 314.508 458.838 314.659H458.975V313.273H460.27V322.25C460.27 323 460.1 323.61 459.759 324.08C459.422 324.553 458.967 324.9 458.395 325.119C457.827 325.343 457.194 325.455 456.497 325.455ZM456.452 320.659C456.99 320.659 457.444 320.536 457.816 320.29C458.187 320.044 458.469 319.689 458.662 319.227C458.855 318.765 458.952 318.212 458.952 317.568C458.952 316.939 458.857 316.384 458.668 315.903C458.479 315.422 458.198 315.045 457.827 314.773C457.456 314.5 456.997 314.364 456.452 314.364C455.884 314.364 455.41 314.508 455.032 314.795C454.657 315.083 454.374 315.47 454.185 315.955C453.999 316.439 453.907 316.977 453.907 317.568C453.907 318.174 454.001 318.71 454.191 319.176C454.384 319.638 454.668 320.002 455.043 320.267C455.422 320.528 455.891 320.659 456.452 320.659ZM466.224 322.182C465.383 322.182 464.658 321.996 464.048 321.625C463.442 321.25 462.974 320.727 462.644 320.057C462.319 319.383 462.156 318.598 462.156 317.705C462.156 316.811 462.319 316.023 462.644 315.341C462.974 314.655 463.432 314.121 464.019 313.739C464.61 313.352 465.3 313.159 466.087 313.159C466.542 313.159 466.991 313.235 467.434 313.386C467.877 313.538 468.281 313.784 468.644 314.125C469.008 314.462 469.298 314.909 469.514 315.466C469.73 316.023 469.837 316.708 469.837 317.523V318.091H463.11V316.932H468.474C468.474 316.439 468.375 316 468.178 315.614C467.985 315.227 467.709 314.922 467.349 314.699C466.993 314.475 466.572 314.364 466.087 314.364C465.553 314.364 465.091 314.496 464.701 314.761C464.315 315.023 464.017 315.364 463.809 315.784C463.601 316.205 463.497 316.655 463.497 317.136V317.909C463.497 318.568 463.61 319.127 463.837 319.585C464.069 320.04 464.389 320.386 464.798 320.625C465.207 320.86 465.682 320.977 466.224 320.977C466.576 320.977 466.894 320.928 467.178 320.83C467.466 320.727 467.714 320.576 467.923 320.375C468.131 320.17 468.292 319.917 468.406 319.614L469.701 319.977C469.565 320.417 469.336 320.803 469.014 321.136C468.692 321.466 468.294 321.723 467.82 321.909C467.347 322.091 466.815 322.182 466.224 322.182ZM475.513 313.273V314.409H470.99V313.273H475.513ZM472.308 311.182H473.649V319.5C473.649 319.879 473.704 320.163 473.814 320.352C473.927 320.538 474.071 320.663 474.246 320.727C474.424 320.788 474.611 320.818 474.808 320.818C474.956 320.818 475.077 320.811 475.172 320.795C475.267 320.777 475.342 320.761 475.399 320.75L475.672 321.955C475.581 321.989 475.454 322.023 475.291 322.057C475.128 322.095 474.922 322.114 474.672 322.114C474.293 322.114 473.922 322.032 473.558 321.869C473.198 321.706 472.899 321.458 472.66 321.125C472.426 320.792 472.308 320.371 472.308 319.864V311.182ZM478.898 316.75V322H477.557V310.364H478.898V314.636H479.012C479.216 314.186 479.523 313.828 479.932 313.562C480.345 313.294 480.894 313.159 481.58 313.159C482.175 313.159 482.696 313.278 483.142 313.517C483.589 313.752 483.936 314.114 484.182 314.602C484.432 315.087 484.557 315.705 484.557 316.455V322H483.216V316.545C483.216 315.852 483.036 315.316 482.677 314.938C482.321 314.555 481.826 314.364 481.194 314.364C480.754 314.364 480.36 314.456 480.012 314.642C479.667 314.828 479.394 315.098 479.194 315.455C478.997 315.811 478.898 316.242 478.898 316.75ZM490.51 322.182C489.669 322.182 488.943 321.996 488.333 321.625C487.727 321.25 487.26 320.727 486.93 320.057C486.604 319.383 486.441 318.598 486.441 317.705C486.441 316.811 486.604 316.023 486.93 315.341C487.26 314.655 487.718 314.121 488.305 313.739C488.896 313.352 489.585 313.159 490.373 313.159C490.828 313.159 491.277 313.235 491.72 313.386C492.163 313.538 492.566 313.784 492.93 314.125C493.294 314.462 493.583 314.909 493.799 315.466C494.015 316.023 494.123 316.708 494.123 317.523V318.091H487.396V316.932H492.76C492.76 316.439 492.661 316 492.464 315.614C492.271 315.227 491.994 314.922 491.635 314.699C491.278 314.475 490.858 314.364 490.373 314.364C489.839 314.364 489.377 314.496 488.987 314.761C488.6 315.023 488.303 315.364 488.095 315.784C487.886 316.205 487.782 316.655 487.782 317.136V317.909C487.782 318.568 487.896 319.127 488.123 319.585C488.354 320.04 488.674 320.386 489.083 320.625C489.492 320.86 489.968 320.977 490.51 320.977C490.862 320.977 491.18 320.928 491.464 320.83C491.752 320.727 492 320.576 492.208 320.375C492.417 320.17 492.578 319.917 492.691 319.614L493.987 319.977C493.85 320.417 493.621 320.803 493.299 321.136C492.977 321.466 492.58 321.723 492.106 321.909C491.633 322.091 491.1 322.182 490.51 322.182ZM496.003 322V313.273H497.298V314.591H497.389C497.548 314.159 497.836 313.809 498.253 313.54C498.67 313.271 499.139 313.136 499.662 313.136C499.76 313.136 499.884 313.138 500.031 313.142C500.179 313.146 500.291 313.152 500.367 313.159V314.523C500.321 314.511 500.217 314.494 500.054 314.472C499.895 314.445 499.726 314.432 499.548 314.432C499.124 314.432 498.745 314.521 498.412 314.699C498.082 314.873 497.821 315.116 497.628 315.426C497.439 315.733 497.344 316.083 497.344 316.477V322H496.003ZM508.704 322.205C508.151 322.205 507.649 322.1 507.199 321.892C506.748 321.68 506.39 321.375 506.125 320.977C505.86 320.576 505.727 320.091 505.727 319.523C505.727 319.023 505.825 318.617 506.022 318.307C506.219 317.992 506.483 317.746 506.812 317.568C507.142 317.39 507.505 317.258 507.903 317.17C508.305 317.08 508.708 317.008 509.113 316.955C509.644 316.886 510.074 316.835 510.403 316.801C510.736 316.763 510.979 316.701 511.13 316.614C511.286 316.527 511.363 316.375 511.363 316.159V316.114C511.363 315.553 511.21 315.117 510.903 314.807C510.6 314.496 510.14 314.341 509.522 314.341C508.882 314.341 508.38 314.481 508.017 314.761C507.653 315.042 507.397 315.341 507.25 315.659L505.977 315.205C506.204 314.674 506.507 314.261 506.886 313.966C507.269 313.667 507.685 313.458 508.136 313.341C508.591 313.22 509.038 313.159 509.477 313.159C509.757 313.159 510.079 313.193 510.443 313.261C510.81 313.326 511.164 313.46 511.505 313.665C511.85 313.869 512.136 314.178 512.363 314.591C512.591 315.004 512.704 315.557 512.704 316.25V322H511.363V320.818H511.295C511.204 321.008 511.053 321.21 510.841 321.426C510.628 321.642 510.346 321.826 509.994 321.977C509.642 322.129 509.212 322.205 508.704 322.205ZM508.909 321C509.439 321 509.886 320.896 510.25 320.688C510.617 320.479 510.894 320.21 511.079 319.881C511.269 319.551 511.363 319.205 511.363 318.841V317.614C511.306 317.682 511.181 317.744 510.988 317.801C510.799 317.854 510.579 317.902 510.329 317.943C510.083 317.981 509.842 318.015 509.608 318.045C509.377 318.072 509.189 318.095 509.045 318.114C508.697 318.159 508.371 318.233 508.068 318.335C507.769 318.434 507.526 318.583 507.341 318.784C507.159 318.981 507.068 319.25 507.068 319.591C507.068 320.057 507.24 320.409 507.585 320.648C507.933 320.883 508.375 321 508.909 321ZM521.173 315.227L519.969 315.568C519.893 315.367 519.781 315.172 519.634 314.983C519.49 314.79 519.293 314.631 519.043 314.506C518.793 314.381 518.473 314.318 518.083 314.318C517.548 314.318 517.103 314.441 516.747 314.688C516.395 314.93 516.219 315.239 516.219 315.614C516.219 315.947 516.34 316.21 516.583 316.403C516.825 316.597 517.204 316.758 517.719 316.886L519.014 317.205C519.795 317.394 520.376 317.684 520.759 318.074C521.141 318.46 521.333 318.958 521.333 319.568C521.333 320.068 521.189 320.515 520.901 320.909C520.617 321.303 520.219 321.614 519.708 321.841C519.196 322.068 518.601 322.182 517.923 322.182C517.033 322.182 516.297 321.989 515.713 321.602C515.13 321.216 514.761 320.652 514.605 319.909L515.878 319.591C515.999 320.061 516.228 320.413 516.566 320.648C516.906 320.883 517.351 321 517.901 321C518.526 321 519.022 320.867 519.389 320.602C519.761 320.333 519.946 320.011 519.946 319.636C519.946 319.333 519.84 319.08 519.628 318.875C519.416 318.667 519.09 318.511 518.651 318.409L517.196 318.068C516.397 317.879 515.81 317.585 515.435 317.188C515.064 316.786 514.878 316.284 514.878 315.682C514.878 315.189 515.016 314.754 515.293 314.375C515.573 313.996 515.954 313.699 516.435 313.483C516.92 313.267 517.469 313.159 518.083 313.159C518.946 313.159 519.624 313.348 520.117 313.727C520.613 314.106 520.965 314.606 521.173 315.227ZM530.099 322.205C529.546 322.205 529.044 322.1 528.594 321.892C528.143 321.68 527.785 321.375 527.52 320.977C527.254 320.576 527.122 320.091 527.122 319.523C527.122 319.023 527.22 318.617 527.417 318.307C527.614 317.992 527.878 317.746 528.207 317.568C528.537 317.39 528.9 317.258 529.298 317.17C529.7 317.08 530.103 317.008 530.508 316.955C531.039 316.886 531.469 316.835 531.798 316.801C532.131 316.763 532.374 316.701 532.525 316.614C532.681 316.527 532.758 316.375 532.758 316.159V316.114C532.758 315.553 532.605 315.117 532.298 314.807C531.995 314.496 531.535 314.341 530.917 314.341C530.277 314.341 529.775 314.481 529.412 314.761C529.048 315.042 528.792 315.341 528.645 315.659L527.372 315.205C527.599 314.674 527.902 314.261 528.281 313.966C528.664 313.667 529.08 313.458 529.531 313.341C529.986 313.22 530.433 313.159 530.872 313.159C531.152 313.159 531.474 313.193 531.838 313.261C532.205 313.326 532.559 313.46 532.9 313.665C533.245 313.869 533.531 314.178 533.758 314.591C533.986 315.004 534.099 315.557 534.099 316.25V322H532.758V320.818H532.69C532.599 321.008 532.448 321.21 532.236 321.426C532.023 321.642 531.741 321.826 531.389 321.977C531.037 322.129 530.607 322.205 530.099 322.205ZM530.304 321C530.834 321 531.281 320.896 531.645 320.688C532.012 320.479 532.289 320.21 532.474 319.881C532.664 319.551 532.758 319.205 532.758 318.841V317.614C532.701 317.682 532.576 317.744 532.383 317.801C532.194 317.854 531.974 317.902 531.724 317.943C531.478 317.981 531.237 318.015 531.003 318.045C530.772 318.072 530.584 318.095 530.44 318.114C530.092 318.159 529.766 318.233 529.463 318.335C529.164 318.434 528.921 318.583 528.736 318.784C528.554 318.981 528.463 319.25 528.463 319.591C528.463 320.057 528.635 320.409 528.98 320.648C529.328 320.883 529.77 321 530.304 321ZM202.773 343.182C201.955 343.182 201.25 342.989 200.659 342.602C200.068 342.216 199.614 341.684 199.295 341.006C198.977 340.328 198.818 339.553 198.818 338.682C198.818 337.795 198.981 337.013 199.307 336.335C199.636 335.653 200.095 335.121 200.682 334.739C201.273 334.352 201.962 334.159 202.75 334.159C203.364 334.159 203.917 334.273 204.409 334.5C204.902 334.727 205.305 335.045 205.619 335.455C205.934 335.864 206.129 336.341 206.205 336.886H204.864C204.761 336.489 204.534 336.136 204.182 335.83C203.833 335.519 203.364 335.364 202.773 335.364C202.25 335.364 201.792 335.5 201.398 335.773C201.008 336.042 200.703 336.422 200.483 336.915C200.267 337.403 200.159 337.977 200.159 338.636C200.159 339.311 200.265 339.898 200.477 340.398C200.693 340.898 200.996 341.286 201.386 341.562C201.78 341.839 202.242 341.977 202.773 341.977C203.121 341.977 203.438 341.917 203.722 341.795C204.006 341.674 204.246 341.5 204.443 341.273C204.64 341.045 204.78 340.773 204.864 340.455H206.205C206.129 340.97 205.941 341.434 205.642 341.847C205.347 342.256 204.955 342.581 204.466 342.824C203.981 343.062 203.417 343.182 202.773 343.182ZM211.55 343.182C210.762 343.182 210.071 342.994 209.476 342.619C208.885 342.244 208.423 341.72 208.09 341.045C207.76 340.371 207.596 339.583 207.596 338.682C207.596 337.773 207.76 336.979 208.09 336.301C208.423 335.623 208.885 335.097 209.476 334.722C210.071 334.347 210.762 334.159 211.55 334.159C212.338 334.159 213.028 334.347 213.618 334.722C214.213 335.097 214.675 335.623 215.005 336.301C215.338 336.979 215.505 337.773 215.505 338.682C215.505 339.583 215.338 340.371 215.005 341.045C214.675 341.72 214.213 342.244 213.618 342.619C213.028 342.994 212.338 343.182 211.55 343.182ZM211.55 341.977C212.149 341.977 212.641 341.824 213.028 341.517C213.414 341.21 213.7 340.807 213.885 340.307C214.071 339.807 214.164 339.265 214.164 338.682C214.164 338.098 214.071 337.555 213.885 337.051C213.7 336.547 213.414 336.14 213.028 335.83C212.641 335.519 212.149 335.364 211.55 335.364C210.952 335.364 210.459 335.519 210.073 335.83C209.687 336.14 209.401 336.547 209.215 337.051C209.029 337.555 208.937 338.098 208.937 338.682C208.937 339.265 209.029 339.807 209.215 340.307C209.401 340.807 209.687 341.21 210.073 341.517C210.459 341.824 210.952 341.977 211.55 341.977ZM218.733 337.75V343H217.392V331.364H218.733V335.636H218.846C219.051 335.186 219.358 334.828 219.767 334.562C220.18 334.294 220.729 334.159 221.414 334.159C222.009 334.159 222.53 334.278 222.977 334.517C223.424 334.752 223.77 335.114 224.017 335.602C224.267 336.087 224.392 336.705 224.392 337.455V343H223.051V337.545C223.051 336.852 222.871 336.316 222.511 335.938C222.155 335.555 221.661 335.364 221.028 335.364C220.589 335.364 220.195 335.456 219.846 335.642C219.501 335.828 219.229 336.098 219.028 336.455C218.831 336.811 218.733 337.242 218.733 337.75ZM230.344 343.182C229.503 343.182 228.778 342.996 228.168 342.625C227.562 342.25 227.094 341.727 226.764 341.057C226.439 340.383 226.276 339.598 226.276 338.705C226.276 337.811 226.439 337.023 226.764 336.341C227.094 335.655 227.552 335.121 228.139 334.739C228.73 334.352 229.42 334.159 230.208 334.159C230.662 334.159 231.111 334.235 231.554 334.386C231.997 334.538 232.401 334.784 232.764 335.125C233.128 335.462 233.418 335.909 233.634 336.466C233.85 337.023 233.958 337.708 233.958 338.523V339.091H227.23V337.932H232.594C232.594 337.439 232.495 337 232.298 336.614C232.105 336.227 231.829 335.922 231.469 335.699C231.113 335.475 230.692 335.364 230.208 335.364C229.673 335.364 229.211 335.496 228.821 335.761C228.435 336.023 228.137 336.364 227.929 336.784C227.721 337.205 227.617 337.655 227.617 338.136V338.909C227.617 339.568 227.73 340.127 227.958 340.585C228.189 341.04 228.509 341.386 228.918 341.625C229.327 341.86 229.802 341.977 230.344 341.977C230.696 341.977 231.014 341.928 231.298 341.83C231.586 341.727 231.834 341.576 232.043 341.375C232.251 341.17 232.412 340.917 232.526 340.614L233.821 340.977C233.685 341.417 233.456 341.803 233.134 342.136C232.812 342.466 232.414 342.723 231.94 342.909C231.467 343.091 230.935 343.182 230.344 343.182ZM242.019 336.227L240.815 336.568C240.739 336.367 240.627 336.172 240.479 335.983C240.335 335.79 240.138 335.631 239.888 335.506C239.638 335.381 239.318 335.318 238.928 335.318C238.394 335.318 237.949 335.441 237.593 335.688C237.241 335.93 237.065 336.239 237.065 336.614C237.065 336.947 237.186 337.21 237.428 337.403C237.671 337.597 238.049 337.758 238.565 337.886L239.86 338.205C240.64 338.394 241.222 338.684 241.604 339.074C241.987 339.46 242.178 339.958 242.178 340.568C242.178 341.068 242.034 341.515 241.746 341.909C241.462 342.303 241.065 342.614 240.553 342.841C240.042 343.068 239.447 343.182 238.769 343.182C237.879 343.182 237.142 342.989 236.559 342.602C235.976 342.216 235.606 341.652 235.451 340.909L236.724 340.591C236.845 341.061 237.074 341.413 237.411 341.648C237.752 341.883 238.197 342 238.746 342C239.371 342 239.868 341.867 240.235 341.602C240.606 341.333 240.792 341.011 240.792 340.636C240.792 340.333 240.686 340.08 240.474 339.875C240.262 339.667 239.936 339.511 239.496 339.409L238.042 339.068C237.243 338.879 236.655 338.585 236.28 338.188C235.909 337.786 235.724 337.284 235.724 336.682C235.724 336.189 235.862 335.754 236.138 335.375C236.419 334.996 236.799 334.699 237.28 334.483C237.765 334.267 238.315 334.159 238.928 334.159C239.792 334.159 240.47 334.348 240.962 334.727C241.458 335.106 241.811 335.606 242.019 336.227ZM244.037 343V334.273H245.378V343H244.037ZM244.718 332.818C244.457 332.818 244.232 332.729 244.042 332.551C243.857 332.373 243.764 332.159 243.764 331.909C243.764 331.659 243.857 331.445 244.042 331.267C244.232 331.089 244.457 331 244.718 331C244.98 331 245.203 331.089 245.389 331.267C245.578 331.445 245.673 331.659 245.673 331.909C245.673 332.159 245.578 332.373 245.389 332.551C245.203 332.729 244.98 332.818 244.718 332.818ZM254.81 334.273L251.583 343H250.219L246.992 334.273H248.446L250.855 341.227H250.946L253.355 334.273H254.81ZM259.766 343.182C258.925 343.182 258.2 342.996 257.59 342.625C256.984 342.25 256.516 341.727 256.187 341.057C255.861 340.383 255.698 339.598 255.698 338.705C255.698 337.811 255.861 337.023 256.187 336.341C256.516 335.655 256.975 335.121 257.562 334.739C258.153 334.352 258.842 334.159 259.63 334.159C260.085 334.159 260.533 334.235 260.977 334.386C261.42 334.538 261.823 334.784 262.187 335.125C262.55 335.462 262.84 335.909 263.056 336.466C263.272 337.023 263.38 337.708 263.38 338.523V339.091H256.653V337.932H262.016C262.016 337.439 261.918 337 261.721 336.614C261.528 336.227 261.251 335.922 260.891 335.699C260.535 335.475 260.115 335.364 259.63 335.364C259.096 335.364 258.634 335.496 258.244 335.761C257.857 336.023 257.56 336.364 257.352 336.784C257.143 337.205 257.039 337.655 257.039 338.136V338.909C257.039 339.568 257.153 340.127 257.38 340.585C257.611 341.04 257.931 341.386 258.34 341.625C258.749 341.86 259.225 341.977 259.766 341.977C260.119 341.977 260.437 341.928 260.721 341.83C261.009 341.727 261.257 341.576 261.465 341.375C261.674 341.17 261.835 340.917 261.948 340.614L263.244 340.977C263.107 341.417 262.878 341.803 262.556 342.136C262.234 342.466 261.836 342.723 261.363 342.909C260.889 343.091 260.357 343.182 259.766 343.182ZM273.395 334.273V335.409H268.872V334.273H273.395ZM270.191 332.182H271.532V340.5C271.532 340.879 271.587 341.163 271.696 341.352C271.81 341.538 271.954 341.663 272.128 341.727C272.306 341.788 272.494 341.818 272.691 341.818C272.838 341.818 272.96 341.811 273.054 341.795C273.149 341.777 273.225 341.761 273.282 341.75L273.554 342.955C273.463 342.989 273.337 343.023 273.174 343.057C273.011 343.095 272.804 343.114 272.554 343.114C272.176 343.114 271.804 343.032 271.441 342.869C271.081 342.706 270.782 342.458 270.543 342.125C270.308 341.792 270.191 341.371 270.191 340.864V332.182ZM278.818 343.182C277.977 343.182 277.251 342.996 276.641 342.625C276.035 342.25 275.568 341.727 275.238 341.057C274.912 340.383 274.749 339.598 274.749 338.705C274.749 337.811 274.912 337.023 275.238 336.341C275.568 335.655 276.026 335.121 276.613 334.739C277.204 334.352 277.893 334.159 278.681 334.159C279.136 334.159 279.585 334.235 280.028 334.386C280.471 334.538 280.874 334.784 281.238 335.125C281.602 335.462 281.891 335.909 282.107 336.466C282.323 337.023 282.431 337.708 282.431 338.523V339.091H275.704V337.932H281.068C281.068 337.439 280.969 337 280.772 336.614C280.579 336.227 280.302 335.922 279.943 335.699C279.587 335.475 279.166 335.364 278.681 335.364C278.147 335.364 277.685 335.496 277.295 335.761C276.909 336.023 276.611 336.364 276.403 336.784C276.195 337.205 276.09 337.655 276.09 338.136V338.909C276.09 339.568 276.204 340.127 276.431 340.585C276.662 341.04 276.982 341.386 277.391 341.625C277.801 341.86 278.276 341.977 278.818 341.977C279.17 341.977 279.488 341.928 279.772 341.83C280.06 341.727 280.308 341.576 280.516 341.375C280.725 341.17 280.886 340.917 280.999 340.614L282.295 340.977C282.159 341.417 281.929 341.803 281.607 342.136C281.285 342.466 280.888 342.723 280.414 342.909C279.941 343.091 279.409 343.182 278.818 343.182ZM286.879 343.205C286.326 343.205 285.824 343.1 285.374 342.892C284.923 342.68 284.565 342.375 284.3 341.977C284.035 341.576 283.902 341.091 283.902 340.523C283.902 340.023 284 339.617 284.197 339.307C284.394 338.992 284.658 338.746 284.987 338.568C285.317 338.39 285.68 338.258 286.078 338.17C286.48 338.08 286.883 338.008 287.288 337.955C287.819 337.886 288.249 337.835 288.578 337.801C288.911 337.763 289.154 337.701 289.305 337.614C289.461 337.527 289.538 337.375 289.538 337.159V337.114C289.538 336.553 289.385 336.117 289.078 335.807C288.775 335.496 288.315 335.341 287.697 335.341C287.057 335.341 286.555 335.481 286.192 335.761C285.828 336.042 285.572 336.341 285.425 336.659L284.152 336.205C284.379 335.674 284.682 335.261 285.061 334.966C285.444 334.667 285.86 334.458 286.311 334.341C286.766 334.22 287.213 334.159 287.652 334.159C287.932 334.159 288.254 334.193 288.618 334.261C288.985 334.326 289.339 334.46 289.68 334.665C290.025 334.869 290.311 335.178 290.538 335.591C290.766 336.004 290.879 336.557 290.879 337.25V343H289.538V341.818H289.47C289.379 342.008 289.228 342.21 289.016 342.426C288.803 342.642 288.521 342.826 288.169 342.977C287.817 343.129 287.387 343.205 286.879 343.205ZM287.084 342C287.614 342 288.061 341.896 288.425 341.688C288.792 341.479 289.069 341.21 289.254 340.881C289.444 340.551 289.538 340.205 289.538 339.841V338.614C289.481 338.682 289.356 338.744 289.163 338.801C288.974 338.854 288.754 338.902 288.504 338.943C288.258 338.981 288.017 339.015 287.783 339.045C287.552 339.072 287.364 339.095 287.22 339.114C286.872 339.159 286.546 339.233 286.243 339.335C285.944 339.434 285.701 339.583 285.516 339.784C285.334 339.981 285.243 340.25 285.243 340.591C285.243 341.057 285.415 341.409 285.76 341.648C286.108 341.883 286.55 342 287.084 342ZM293.167 343V334.273H294.462V335.636H294.576C294.758 335.17 295.051 334.809 295.456 334.551C295.862 334.29 296.348 334.159 296.917 334.159C297.492 334.159 297.972 334.29 298.354 334.551C298.741 334.809 299.042 335.17 299.258 335.636H299.348C299.572 335.186 299.907 334.828 300.354 334.562C300.801 334.294 301.337 334.159 301.962 334.159C302.742 334.159 303.381 334.403 303.877 334.892C304.373 335.377 304.621 336.133 304.621 337.159V343H303.28V337.159C303.28 336.515 303.104 336.055 302.752 335.778C302.4 335.502 301.985 335.364 301.508 335.364C300.894 335.364 300.419 335.549 300.081 335.92C299.744 336.288 299.576 336.754 299.576 337.318V343H298.212V337.023C298.212 336.527 298.051 336.127 297.729 335.824C297.407 335.517 296.992 335.364 296.485 335.364C296.136 335.364 295.811 335.456 295.508 335.642C295.208 335.828 294.966 336.085 294.78 336.415C294.598 336.741 294.508 337.117 294.508 337.545V343H293.167ZM314.798 343.182C314.01 343.182 313.319 342.994 312.724 342.619C312.134 342.244 311.671 341.72 311.338 341.045C311.009 340.371 310.844 339.583 310.844 338.682C310.844 337.773 311.009 336.979 311.338 336.301C311.671 335.623 312.134 335.097 312.724 334.722C313.319 334.347 314.01 334.159 314.798 334.159C315.586 334.159 316.276 334.347 316.867 334.722C317.461 335.097 317.923 335.623 318.253 336.301C318.586 336.979 318.753 337.773 318.753 338.682C318.753 339.583 318.586 340.371 318.253 341.045C317.923 341.72 317.461 342.244 316.867 342.619C316.276 342.994 315.586 343.182 314.798 343.182ZM314.798 341.977C315.397 341.977 315.889 341.824 316.276 341.517C316.662 341.21 316.948 340.807 317.134 340.307C317.319 339.807 317.412 339.265 317.412 338.682C317.412 338.098 317.319 337.555 317.134 337.051C316.948 336.547 316.662 336.14 316.276 335.83C315.889 335.519 315.397 335.364 314.798 335.364C314.2 335.364 313.707 335.519 313.321 335.83C312.935 336.14 312.649 336.547 312.463 337.051C312.278 337.555 312.185 338.098 312.185 338.682C312.185 339.265 312.278 339.807 312.463 340.307C312.649 340.807 312.935 341.21 313.321 341.517C313.707 341.824 314.2 341.977 314.798 341.977ZM321.981 337.75V343H320.64V334.273H321.935V335.636H322.049C322.253 335.193 322.564 334.837 322.981 334.568C323.397 334.295 323.935 334.159 324.594 334.159C325.185 334.159 325.702 334.28 326.145 334.523C326.589 334.761 326.933 335.125 327.18 335.614C327.426 336.098 327.549 336.712 327.549 337.455V343H326.208V337.545C326.208 336.86 326.03 336.326 325.674 335.943C325.318 335.557 324.829 335.364 324.208 335.364C323.78 335.364 323.397 335.456 323.06 335.642C322.727 335.828 322.464 336.098 322.27 336.455C322.077 336.811 321.981 337.242 321.981 337.75ZM334.179 343V334.273H335.475V335.636H335.588C335.77 335.17 336.064 334.809 336.469 334.551C336.874 334.29 337.361 334.159 337.929 334.159C338.505 334.159 338.984 334.29 339.367 334.551C339.753 334.809 340.054 335.17 340.27 335.636H340.361C340.584 335.186 340.92 334.828 341.367 334.562C341.814 334.294 342.35 334.159 342.975 334.159C343.755 334.159 344.393 334.403 344.889 334.892C345.386 335.377 345.634 336.133 345.634 337.159V343H344.293V337.159C344.293 336.515 344.117 336.055 343.764 335.778C343.412 335.502 342.997 335.364 342.52 335.364C341.906 335.364 341.431 335.549 341.094 335.92C340.757 336.288 340.588 336.754 340.588 337.318V343H339.225V337.023C339.225 336.527 339.064 336.127 338.742 335.824C338.42 335.517 338.005 335.364 337.497 335.364C337.149 335.364 336.823 335.456 336.52 335.642C336.221 335.828 335.978 336.085 335.793 336.415C335.611 336.741 335.52 337.117 335.52 337.545V343H334.179ZM353.425 339.432V334.273H354.766V343H353.425V341.523H353.334C353.13 341.966 352.812 342.343 352.38 342.653C351.948 342.96 351.403 343.114 350.744 343.114C350.198 343.114 349.713 342.994 349.289 342.756C348.865 342.513 348.531 342.15 348.289 341.665C348.047 341.176 347.925 340.561 347.925 339.818V334.273H349.266V339.727C349.266 340.364 349.444 340.871 349.8 341.25C350.16 341.629 350.619 341.818 351.175 341.818C351.509 341.818 351.848 341.733 352.192 341.562C352.541 341.392 352.833 341.131 353.067 340.778C353.306 340.426 353.425 339.977 353.425 339.432ZM360.858 334.273V335.409H356.335V334.273H360.858ZM357.653 332.182H358.994V340.5C358.994 340.879 359.049 341.163 359.159 341.352C359.273 341.538 359.416 341.663 359.591 341.727C359.769 341.788 359.956 341.818 360.153 341.818C360.301 341.818 360.422 341.811 360.517 341.795C360.612 341.777 360.687 341.761 360.744 341.75L361.017 342.955C360.926 342.989 360.799 343.023 360.636 343.057C360.473 343.095 360.267 343.114 360.017 343.114C359.638 343.114 359.267 343.032 358.903 342.869C358.543 342.706 358.244 342.458 358.005 342.125C357.771 341.792 357.653 341.371 357.653 340.864V332.182ZM368.215 339.432V334.273H369.556V343H368.215V341.523H368.124C367.919 341.966 367.601 342.343 367.169 342.653C366.738 342.96 366.192 343.114 365.533 343.114C364.988 343.114 364.503 342.994 364.078 342.756C363.654 342.513 363.321 342.15 363.078 341.665C362.836 341.176 362.715 340.561 362.715 339.818V334.273H364.056V339.727C364.056 340.364 364.234 340.871 364.59 341.25C364.95 341.629 365.408 341.818 365.965 341.818C366.298 341.818 366.637 341.733 366.982 341.562C367.33 341.392 367.622 341.131 367.857 340.778C368.095 340.426 368.215 339.977 368.215 339.432ZM374.42 343.205C373.867 343.205 373.365 343.1 372.914 342.892C372.463 342.68 372.105 342.375 371.84 341.977C371.575 341.576 371.443 341.091 371.443 340.523C371.443 340.023 371.541 339.617 371.738 339.307C371.935 338.992 372.198 338.746 372.528 338.568C372.857 338.39 373.221 338.258 373.619 338.17C374.02 338.08 374.424 338.008 374.829 337.955C375.359 337.886 375.789 337.835 376.119 337.801C376.452 337.763 376.694 337.701 376.846 337.614C377.001 337.527 377.079 337.375 377.079 337.159V337.114C377.079 336.553 376.926 336.117 376.619 335.807C376.316 335.496 375.855 335.341 375.238 335.341C374.598 335.341 374.096 335.481 373.732 335.761C373.369 336.042 373.113 336.341 372.965 336.659L371.693 336.205C371.92 335.674 372.223 335.261 372.602 334.966C372.984 334.667 373.401 334.458 373.852 334.341C374.306 334.22 374.753 334.159 375.193 334.159C375.473 334.159 375.795 334.193 376.158 334.261C376.526 334.326 376.88 334.46 377.221 334.665C377.566 334.869 377.852 335.178 378.079 335.591C378.306 336.004 378.42 336.557 378.42 337.25V343H377.079V341.818H377.011C376.92 342.008 376.768 342.21 376.556 342.426C376.344 342.642 376.062 342.826 375.71 342.977C375.357 343.129 374.927 343.205 374.42 343.205ZM374.624 342C375.155 342 375.602 341.896 375.965 341.688C376.333 341.479 376.609 341.21 376.795 340.881C376.984 340.551 377.079 340.205 377.079 339.841V338.614C377.022 338.682 376.897 338.744 376.704 338.801C376.515 338.854 376.295 338.902 376.045 338.943C375.799 338.981 375.558 339.015 375.323 339.045C375.092 339.072 374.905 339.095 374.761 339.114C374.412 339.159 374.086 339.233 373.783 339.335C373.484 339.434 373.242 339.583 373.056 339.784C372.874 339.981 372.783 340.25 372.783 340.591C372.783 341.057 372.956 341.409 373.301 341.648C373.649 341.883 374.09 342 374.624 342ZM382.048 331.364V343H380.707V331.364H382.048ZM385.685 331.364V343H384.344V331.364H385.685ZM388.845 346.273C388.617 346.273 388.415 346.254 388.237 346.216C388.059 346.182 387.936 346.148 387.867 346.114L388.208 344.932C388.534 345.015 388.822 345.045 389.072 345.023C389.322 345 389.544 344.888 389.737 344.688C389.934 344.491 390.114 344.17 390.276 343.727L390.526 343.045L387.299 334.273H388.754L391.163 341.227H391.254L393.663 334.273H395.117L391.413 344.273C391.246 344.723 391.04 345.097 390.794 345.392C390.547 345.691 390.261 345.913 389.936 346.057C389.614 346.201 389.25 346.273 388.845 346.273ZM404.613 343.182C403.795 343.182 403.09 342.989 402.499 342.602C401.908 342.216 401.454 341.684 401.135 341.006C400.817 340.328 400.658 339.553 400.658 338.682C400.658 337.795 400.821 337.013 401.147 336.335C401.476 335.653 401.935 335.121 402.522 334.739C403.113 334.352 403.802 334.159 404.59 334.159C405.204 334.159 405.757 334.273 406.249 334.5C406.742 334.727 407.145 335.045 407.459 335.455C407.774 335.864 407.969 336.341 408.045 336.886H406.704C406.601 336.489 406.374 336.136 406.022 335.83C405.673 335.519 405.204 335.364 404.613 335.364C404.09 335.364 403.632 335.5 403.238 335.773C402.848 336.042 402.543 336.422 402.323 336.915C402.107 337.403 401.999 337.977 401.999 338.636C401.999 339.311 402.105 339.898 402.317 340.398C402.533 340.898 402.836 341.286 403.226 341.562C403.62 341.839 404.082 341.977 404.613 341.977C404.961 341.977 405.277 341.917 405.562 341.795C405.846 341.674 406.086 341.5 406.283 341.273C406.48 341.045 406.62 340.773 406.704 340.455H408.045C407.969 340.97 407.781 341.434 407.482 341.847C407.187 342.256 406.795 342.581 406.306 342.824C405.821 343.062 405.257 343.182 404.613 343.182ZM413.39 343.182C412.602 343.182 411.911 342.994 411.316 342.619C410.725 342.244 410.263 341.72 409.93 341.045C409.6 340.371 409.436 339.583 409.436 338.682C409.436 337.773 409.6 336.979 409.93 336.301C410.263 335.623 410.725 335.097 411.316 334.722C411.911 334.347 412.602 334.159 413.39 334.159C414.178 334.159 414.867 334.347 415.458 334.722C416.053 335.097 416.515 335.623 416.845 336.301C417.178 336.979 417.345 337.773 417.345 338.682C417.345 339.583 417.178 340.371 416.845 341.045C416.515 341.72 416.053 342.244 415.458 342.619C414.867 342.994 414.178 343.182 413.39 343.182ZM413.39 341.977C413.989 341.977 414.481 341.824 414.867 341.517C415.254 341.21 415.54 340.807 415.725 340.307C415.911 339.807 416.004 339.265 416.004 338.682C416.004 338.098 415.911 337.555 415.725 337.051C415.54 336.547 415.254 336.14 414.867 335.83C414.481 335.519 413.989 335.364 413.39 335.364C412.792 335.364 412.299 335.519 411.913 335.83C411.527 336.14 411.241 336.547 411.055 337.051C410.869 337.555 410.777 338.098 410.777 338.682C410.777 339.265 410.869 339.807 411.055 340.307C411.241 340.807 411.527 341.21 411.913 341.517C412.299 341.824 412.792 341.977 413.39 341.977ZM420.573 337.75V343H419.232V334.273H420.527V335.636H420.641C420.845 335.193 421.156 334.837 421.573 334.568C421.989 334.295 422.527 334.159 423.186 334.159C423.777 334.159 424.294 334.28 424.737 334.523C425.181 334.761 425.525 335.125 425.771 335.614C426.018 336.098 426.141 336.712 426.141 337.455V343H424.8V337.545C424.8 336.86 424.622 336.326 424.266 335.943C423.91 335.557 423.421 335.364 422.8 335.364C422.372 335.364 421.989 335.456 421.652 335.642C421.319 335.828 421.056 336.098 420.862 336.455C420.669 336.811 420.573 337.242 420.573 337.75ZM435.255 334.273L432.028 343H430.664L427.437 334.273H428.891L431.3 341.227H431.391L433.8 334.273H435.255ZM440.211 343.182C439.37 343.182 438.645 342.996 438.035 342.625C437.429 342.25 436.961 341.727 436.632 341.057C436.306 340.383 436.143 339.598 436.143 338.705C436.143 337.811 436.306 337.023 436.632 336.341C436.961 335.655 437.42 335.121 438.007 334.739C438.598 334.352 439.287 334.159 440.075 334.159C440.53 334.159 440.978 334.235 441.422 334.386C441.865 334.538 442.268 334.784 442.632 335.125C442.995 335.462 443.285 335.909 443.501 336.466C443.717 337.023 443.825 337.708 443.825 338.523V339.091H437.098V337.932H442.461C442.461 337.439 442.363 337 442.166 336.614C441.973 336.227 441.696 335.922 441.336 335.699C440.98 335.475 440.56 335.364 440.075 335.364C439.541 335.364 439.079 335.496 438.689 335.761C438.302 336.023 438.005 336.364 437.797 336.784C437.588 337.205 437.484 337.655 437.484 338.136V338.909C437.484 339.568 437.598 340.127 437.825 340.585C438.056 341.04 438.376 341.386 438.785 341.625C439.194 341.86 439.67 341.977 440.211 341.977C440.564 341.977 440.882 341.928 441.166 341.83C441.454 341.727 441.702 341.576 441.91 341.375C442.119 341.17 442.28 340.917 442.393 340.614L443.689 340.977C443.552 341.417 443.323 341.803 443.001 342.136C442.679 342.466 442.281 342.723 441.808 342.909C441.334 343.091 440.802 343.182 440.211 343.182ZM447.046 337.75V343H445.705V334.273H447V335.636H447.114C447.318 335.193 447.629 334.837 448.046 334.568C448.462 334.295 449 334.159 449.659 334.159C450.25 334.159 450.767 334.28 451.21 334.523C451.654 334.761 451.998 335.125 452.245 335.614C452.491 336.098 452.614 336.712 452.614 337.455V343H451.273V337.545C451.273 336.86 451.095 336.326 450.739 335.943C450.383 335.557 449.894 335.364 449.273 335.364C448.845 335.364 448.462 335.456 448.125 335.642C447.792 335.828 447.529 336.098 447.335 336.455C447.142 336.811 447.046 337.242 447.046 337.75ZM454.904 343V334.273H456.245V343H454.904ZM455.586 332.818C455.325 332.818 455.099 332.729 454.91 332.551C454.724 332.373 454.631 332.159 454.631 331.909C454.631 331.659 454.724 331.445 454.91 331.267C455.099 331.089 455.325 331 455.586 331C455.847 331 456.071 331.089 456.256 331.267C456.446 331.445 456.541 331.659 456.541 331.909C456.541 332.159 456.446 332.373 456.256 332.551C456.071 332.729 455.847 332.818 455.586 332.818ZM462.2 343.182C461.359 343.182 460.634 342.996 460.024 342.625C459.418 342.25 458.95 341.727 458.621 341.057C458.295 340.383 458.132 339.598 458.132 338.705C458.132 337.811 458.295 337.023 458.621 336.341C458.95 335.655 459.408 335.121 459.996 334.739C460.586 334.352 461.276 334.159 462.064 334.159C462.518 334.159 462.967 334.235 463.41 334.386C463.854 334.538 464.257 334.784 464.621 335.125C464.984 335.462 465.274 335.909 465.49 336.466C465.706 337.023 465.814 337.708 465.814 338.523V339.091H459.086V337.932H464.45C464.45 337.439 464.352 337 464.155 336.614C463.961 336.227 463.685 335.922 463.325 335.699C462.969 335.475 462.549 335.364 462.064 335.364C461.53 335.364 461.068 335.496 460.677 335.761C460.291 336.023 459.994 336.364 459.785 336.784C459.577 337.205 459.473 337.655 459.473 338.136V338.909C459.473 339.568 459.586 340.127 459.814 340.585C460.045 341.04 460.365 341.386 460.774 341.625C461.183 341.86 461.658 341.977 462.2 341.977C462.552 341.977 462.871 341.928 463.155 341.83C463.443 341.727 463.691 341.576 463.899 341.375C464.107 341.17 464.268 340.917 464.382 340.614L465.677 340.977C465.541 341.417 465.312 341.803 464.99 342.136C464.668 342.466 464.27 342.723 463.797 342.909C463.323 343.091 462.791 343.182 462.2 343.182ZM469.034 337.75V343H467.694V334.273H468.989V335.636H469.103C469.307 335.193 469.618 334.837 470.034 334.568C470.451 334.295 470.989 334.159 471.648 334.159C472.239 334.159 472.756 334.28 473.199 334.523C473.642 334.761 473.987 335.125 474.233 335.614C474.48 336.098 474.603 336.712 474.603 337.455V343H473.262V337.545C473.262 336.86 473.084 336.326 472.728 335.943C472.372 335.557 471.883 335.364 471.262 335.364C470.834 335.364 470.451 335.456 470.114 335.642C469.781 335.828 469.517 336.098 469.324 336.455C469.131 336.811 469.034 337.242 469.034 337.75ZM480.688 334.273V335.409H476.166V334.273H480.688ZM477.484 332.182H478.825V340.5C478.825 340.879 478.88 341.163 478.989 341.352C479.103 341.538 479.247 341.663 479.421 341.727C479.599 341.788 479.787 341.818 479.984 341.818C480.132 341.818 480.253 341.811 480.347 341.795C480.442 341.777 480.518 341.761 480.575 341.75L480.847 342.955C480.757 342.989 480.63 343.023 480.467 343.057C480.304 343.095 480.097 343.114 479.847 343.114C479.469 343.114 479.097 343.032 478.734 342.869C478.374 342.706 478.075 342.458 477.836 342.125C477.601 341.792 477.484 341.371 477.484 340.864V332.182ZM490.681 334.273V335.409H486.158V334.273H490.681ZM487.476 332.182H488.817V340.5C488.817 340.879 488.872 341.163 488.982 341.352C489.096 341.538 489.24 341.663 489.414 341.727C489.592 341.788 489.779 341.818 489.976 341.818C490.124 341.818 490.245 341.811 490.34 341.795C490.435 341.777 490.51 341.761 490.567 341.75L490.84 342.955C490.749 342.989 490.622 343.023 490.459 343.057C490.296 343.095 490.09 343.114 489.84 343.114C489.461 343.114 489.09 343.032 488.726 342.869C488.366 342.706 488.067 342.458 487.829 342.125C487.594 341.792 487.476 341.371 487.476 340.864V332.182ZM496.103 343.182C495.262 343.182 494.537 342.996 493.927 342.625C493.321 342.25 492.853 341.727 492.524 341.057C492.198 340.383 492.035 339.598 492.035 338.705C492.035 337.811 492.198 337.023 492.524 336.341C492.853 335.655 493.312 335.121 493.899 334.739C494.49 334.352 495.179 334.159 495.967 334.159C496.421 334.159 496.87 334.235 497.313 334.386C497.757 334.538 498.16 334.784 498.524 335.125C498.887 335.462 499.177 335.909 499.393 336.466C499.609 337.023 499.717 337.708 499.717 338.523V339.091H492.99V337.932H498.353C498.353 337.439 498.255 337 498.058 336.614C497.865 336.227 497.588 335.922 497.228 335.699C496.872 335.475 496.452 335.364 495.967 335.364C495.433 335.364 494.971 335.496 494.581 335.761C494.194 336.023 493.897 336.364 493.688 336.784C493.48 337.205 493.376 337.655 493.376 338.136V338.909C493.376 339.568 493.49 340.127 493.717 340.585C493.948 341.04 494.268 341.386 494.677 341.625C495.086 341.86 495.562 341.977 496.103 341.977C496.456 341.977 496.774 341.928 497.058 341.83C497.346 341.727 497.594 341.576 497.802 341.375C498.01 341.17 498.171 340.917 498.285 340.614L499.581 340.977C499.444 341.417 499.215 341.803 498.893 342.136C498.571 342.466 498.173 342.723 497.7 342.909C497.226 343.091 496.694 343.182 496.103 343.182ZM501.597 343V334.273H502.892V335.591H502.983C503.142 335.159 503.43 334.809 503.847 334.54C504.263 334.271 504.733 334.136 505.256 334.136C505.354 334.136 505.477 334.138 505.625 334.142C505.773 334.146 505.885 334.152 505.96 334.159V335.523C505.915 335.511 505.811 335.494 505.648 335.472C505.489 335.445 505.32 335.432 505.142 335.432C504.718 335.432 504.339 335.521 504.006 335.699C503.676 335.873 503.415 336.116 503.222 336.426C503.032 336.733 502.938 337.083 502.938 337.477V343H501.597ZM507.39 343V334.273H508.685V335.636H508.799C508.981 335.17 509.274 334.809 509.68 334.551C510.085 334.29 510.572 334.159 511.14 334.159C511.716 334.159 512.195 334.29 512.577 334.551C512.964 334.809 513.265 335.17 513.481 335.636H513.572C513.795 335.186 514.13 334.828 514.577 334.562C515.024 334.294 515.56 334.159 516.185 334.159C516.966 334.159 517.604 334.403 518.1 334.892C518.596 335.377 518.844 336.133 518.844 337.159V343H517.503V337.159C517.503 336.515 517.327 336.055 516.975 335.778C516.623 335.502 516.208 335.364 515.731 335.364C515.117 335.364 514.642 335.549 514.305 335.92C513.967 336.288 513.799 336.754 513.799 337.318V343H512.435V337.023C512.435 336.527 512.274 336.127 511.952 335.824C511.63 335.517 511.216 335.364 510.708 335.364C510.359 335.364 510.034 335.456 509.731 335.642C509.431 335.828 509.189 336.085 509.003 336.415C508.822 336.741 508.731 337.117 508.731 337.545V343H507.39ZM527.318 336.227L526.113 336.568C526.038 336.367 525.926 336.172 525.778 335.983C525.634 335.79 525.437 335.631 525.187 335.506C524.937 335.381 524.617 335.318 524.227 335.318C523.693 335.318 523.248 335.441 522.892 335.688C522.539 335.93 522.363 336.239 522.363 336.614C522.363 336.947 522.485 337.21 522.727 337.403C522.969 337.597 523.348 337.758 523.863 337.886L525.159 338.205C525.939 338.394 526.52 338.684 526.903 339.074C527.286 339.46 527.477 339.958 527.477 340.568C527.477 341.068 527.333 341.515 527.045 341.909C526.761 342.303 526.363 342.614 525.852 342.841C525.341 343.068 524.746 343.182 524.068 343.182C523.178 343.182 522.441 342.989 521.858 342.602C521.274 342.216 520.905 341.652 520.75 340.909L522.022 340.591C522.144 341.061 522.373 341.413 522.71 341.648C523.051 341.883 523.496 342 524.045 342C524.67 342 525.166 341.867 525.534 341.602C525.905 341.333 526.091 341.011 526.091 340.636C526.091 340.333 525.985 340.08 525.772 339.875C525.56 339.667 525.235 339.511 524.795 339.409L523.341 339.068C522.541 338.879 521.954 338.585 521.579 338.188C521.208 337.786 521.022 337.284 521.022 336.682C521.022 336.189 521.161 335.754 521.437 335.375C521.717 334.996 522.098 334.699 522.579 334.483C523.064 334.267 523.613 334.159 524.227 334.159C525.091 334.159 525.769 334.348 526.261 334.727C526.757 335.106 527.11 335.606 527.318 336.227Z" fill="#131313"/>
<rect x="65" y="348" width="48" height="48" rx="12" fill="white"/>
<path d="M88.9952 372C90.9962 372 92.6184 370.433 92.6184 368.5C92.6184 366.567 90.9962 365 88.9952 365C86.9942 365 85.3721 366.567 85.3721 368.5C85.3721 370.433 86.9942 372 88.9952 372Z" fill="#F6652F"/>
<path d="M88.9952 375.333C86.7161 375.333 84.6905 376.535 83.4069 378.396C83.1257 378.804 82.9851 379.008 83.0013 379.269C83.0139 379.472 83.1515 379.72 83.3193 379.843C83.5348 380 83.8311 380 84.4239 380H93.5665C94.1593 380 94.4557 380 94.6711 379.843C94.8389 379.72 94.9766 379.472 94.9892 379.269C95.0054 379.008 94.8648 378.804 94.5835 378.396C93.2999 376.535 91.2743 375.333 88.9952 375.333Z" fill="#F6652F"/>
<path d="M88.9952 372C90.9962 372 92.6184 370.433 92.6184 368.5C92.6184 366.567 90.9962 365 88.9952 365C86.9942 365 85.3721 366.567 85.3721 368.5C85.3721 370.433 86.9942 372 88.9952 372Z" stroke="#F6652F" stroke-width="1.5" stroke-linecap="round" stroke-linejoin="round"/>
<path d="M88.9952 375.333C86.7161 375.333 84.6905 376.535 83.4069 378.396C83.1257 378.804 82.9851 379.008 83.0013 379.269C83.0139 379.472 83.1515 379.72 83.3193 379.843C83.5348 380 83.8311 380 84.4239 380H93.5665C94.1593 380 94.4557 380 94.6711 379.843C94.8389 379.72 94.9766 379.472 94.9892 379.269C95.0054 379.008 94.8648 378.804 94.5835 378.396C93.2999 376.535 91.2743 375.333 88.9952 375.333Z" stroke="#F6652F" stroke-width="1.5" stroke-linecap="round" stroke-linejoin="round"/>
<rect x="198" y="492" width="48" height="48" rx="12" fill="white"/>
<path d="M221.995 516C223.996 516 225.618 514.433 225.618 512.5C225.618 510.567 223.996 509 221.995 509C219.994 509 218.372 510.567 218.372 512.5C218.372 514.433 219.994 516 221.995 516Z" fill="#F6652F"/>
<path d="M221.995 519.333C219.716 519.333 217.691 520.535 216.407 522.396C216.126 522.804 215.985 523.008 216.001 523.269C216.014 523.472 216.152 523.72 216.319 523.843C216.535 524 216.831 524 217.424 524H226.567C227.159 524 227.456 524 227.671 523.843C227.839 523.72 227.977 523.472 227.989 523.269C228.005 523.008 227.865 522.804 227.584 522.396C226.3 520.535 224.274 519.333 221.995 519.333Z" fill="#F6652F"/>
<path d="M221.995 516C223.996 516 225.618 514.433 225.618 512.5C225.618 510.567 223.996 509 221.995 509C219.994 509 218.372 510.567 218.372 512.5C218.372 514.433 219.994 516 221.995 516Z" stroke="#F6652F" stroke-width="1.5" stroke-linecap="round" stroke-linejoin="round"/>
<path d="M221.995 519.333C219.716 519.333 217.691 520.535 216.407 522.396C216.126 522.804 215.985 523.008 216.001 523.269C216.014 523.472 216.152 523.72 216.319 523.843C216.535 524 216.831 524 217.424 524H226.567C227.159 524 227.456 524 227.671 523.843C227.839 523.72 227.977 523.472 227.989 523.269C228.005 523.008 227.865 522.804 227.584 522.396C226.3 520.535 224.274 519.333 221.995 519.333Z" stroke="#F6652F" stroke-width="1.5" stroke-linecap="round" stroke-linejoin="round"/>
<rect x="661" y="277" width="48" height="48" rx="12" fill="white"/>
<path d="M684.995 301C686.996 301 688.618 299.433 688.618 297.5C688.618 295.567 686.996 294 684.995 294C682.994 294 681.372 295.567 681.372 297.5C681.372 299.433 682.994 301 684.995 301Z" fill="#3D7C46"/>
<path d="M684.995 304.333C682.716 304.333 680.691 305.535 679.407 307.396C679.126 307.804 678.985 308.008 679.001 308.269C679.014 308.472 679.152 308.72 679.319 308.843C679.535 309 679.831 309 680.424 309H689.567C690.159 309 690.456 309 690.671 308.843C690.839 308.72 690.977 308.472 690.989 308.269C691.005 308.008 690.865 307.804 690.584 307.396C689.3 305.535 687.274 304.333 684.995 304.333Z" fill="#3D7C46"/>
<path d="M684.995 301C686.996 301 688.618 299.433 688.618 297.5C688.618 295.567 686.996 294 684.995 294C682.994 294 681.372 295.567 681.372 297.5C681.372 299.433 682.994 301 684.995 301Z" stroke="#3D7C46" stroke-width="1.5" stroke-linecap="round" stroke-linejoin="round"/>
<path d="M684.995 304.333C682.716 304.333 680.691 305.535 679.407 307.396C679.126 307.804 678.985 308.008 679.001 308.269C679.014 308.472 679.152 308.72 679.319 308.843C679.535 309 679.831 309 680.424 309H689.567C690.159 309 690.456 309 690.671 308.843C690.839 308.72 690.977 308.472 690.989 308.269C691.005 308.008 690.865 307.804 690.584 307.396C689.3 305.535 687.274 304.333 684.995 304.333Z" stroke="#3D7C46" stroke-width="1.5" stroke-linecap="round" stroke-linejoin="round"/>
<rect x="462" width="48" height="48" rx="12" fill="white"/>
<path d="M485.995 24C487.996 24 489.618 22.433 489.618 20.5C489.618 18.567 487.996 17 485.995 17C483.994 17 482.372 18.567 482.372 20.5C482.372 22.433 483.994 24 485.995 24Z" fill="#F6652F"/>
<path d="M485.995 27.3333C483.716 27.3333 481.691 28.5347 480.407 30.3965C480.126 30.8044 479.985 31.0083 480.001 31.2688C480.014 31.4717 480.152 31.72 480.319 31.8426C480.535 32 480.831 32 481.424 32H490.567C491.159 32 491.456 32 491.671 31.8426C491.839 31.72 491.977 31.4717 491.989 31.2688C492.005 31.0083 491.865 30.8044 491.584 30.3965C490.3 28.5347 488.274 27.3333 485.995 27.3333Z" fill="#F6652F"/>
<path d="M485.995 24C487.996 24 489.618 22.433 489.618 20.5C489.618 18.567 487.996 17 485.995 17C483.994 17 482.372 18.567 482.372 20.5C482.372 22.433 483.994 24 485.995 24Z" stroke="#F6652F" stroke-width="1.5" stroke-linecap="round" stroke-linejoin="round"/>
<path d="M485.995 27.3333C483.716 27.3333 481.691 28.5347 480.407 30.3965C480.126 30.8044 479.985 31.0083 480.001 31.2688C480.014 31.4717 480.152 31.72 480.319 31.8426C480.535 32 480.831 32 481.424 32H490.567C491.159 32 491.456 32 491.671 31.8426C491.839 31.72 491.977 31.4717 491.989 31.2688C492.005 31.0083 491.865 30.8044 491.584 30.3965C490.3 28.5347 488.274 27.3333 485.995 27.3333Z" stroke="#F6652F" stroke-width="1.5" stroke-linecap="round" stroke-linejoin="round"/>
<rect x="264" y="65" width="48" height="48" rx="12" fill="white"/>
<path d="M287.995 89C289.996 89 291.618 87.433 291.618 85.5C291.618 83.567 289.996 82 287.995 82C285.994 82 284.372 83.567 284.372 85.5C284.372 87.433 285.994 89 287.995 89Z" fill="#189FB5"/>
<path d="M287.995 92.3333C285.716 92.3333 283.691 93.5347 282.407 95.3965C282.126 95.8044 281.985 96.0083 282.001 96.2688C282.014 96.4717 282.152 96.72 282.319 96.8426C282.535 97 282.831 97 283.424 97H292.567C293.159 97 293.456 97 293.671 96.8426C293.839 96.72 293.977 96.4717 293.989 96.2688C294.005 96.0083 293.865 95.8044 293.584 95.3965C292.3 93.5347 290.274 92.3333 287.995 92.3333Z" fill="#189FB5"/>
<path d="M287.995 89C289.996 89 291.618 87.433 291.618 85.5C291.618 83.567 289.996 82 287.995 82C285.994 82 284.372 83.567 284.372 85.5C284.372 87.433 285.994 89 287.995 89Z" stroke="#189FB5" stroke-width="1.5" stroke-linecap="round" stroke-linejoin="round"/>
<path d="M287.995 92.3333C285.716 92.3333 283.691 93.5347 282.407 95.3965C282.126 95.8044 281.985 96.0083 282.001 96.2688C282.014 96.4717 282.152 96.72 282.319 96.8426C282.535 97 282.831 97 283.424 97H292.567C293.159 97 293.456 97 293.671 96.8426C293.839 96.72 293.977 96.4717 293.989 96.2688C294.005 96.0083 293.865 95.8044 293.584 95.3965C292.3 93.5347 290.274 92.3333 287.995 92.3333Z" stroke="#189FB5" stroke-width="1.5" stroke-linecap="round" stroke-linejoin="round"/>
<rect x="595" y="360" width="48" height="48" rx="12" fill="white"/>
<path d="M618.995 384C620.996 384 622.618 382.433 622.618 380.5C622.618 378.567 620.996 377 618.995 377C616.994 377 615.372 378.567 615.372 380.5C615.372 382.433 616.994 384 618.995 384Z" fill="#189FB5"/>
<path d="M618.995 387.333C616.716 387.333 614.691 388.535 613.407 390.396C613.126 390.804 612.985 391.008 613.001 391.269C613.014 391.472 613.152 391.72 613.319 391.843C613.535 392 613.831 392 614.424 392H623.567C624.159 392 624.456 392 624.671 391.843C624.839 391.72 624.977 391.472 624.989 391.269C625.005 391.008 624.865 390.804 624.584 390.396C623.3 388.535 621.274 387.333 618.995 387.333Z" fill="#189FB5"/>
<path d="M618.995 384C620.996 384 622.618 382.433 622.618 380.5C622.618 378.567 620.996 377 618.995 377C616.994 377 615.372 378.567 615.372 380.5C615.372 382.433 616.994 384 618.995 384Z" stroke="#189FB5" stroke-width="1.5" stroke-linecap="round" stroke-linejoin="round"/>
<path d="M618.995 387.333C616.716 387.333 614.691 388.535 613.407 390.396C613.126 390.804 612.985 391.008 613.001 391.269C613.014 391.472 613.152 391.72 613.319 391.843C613.535 392 613.831 392 614.424 392H623.567C624.159 392 624.456 392 624.671 391.843C624.839 391.72 624.977 391.472 624.989 391.269C625.005 391.008 624.865 390.804 624.584 390.396C623.3 388.535 621.274 387.333 618.995 387.333Z" stroke="#189FB5" stroke-width="1.5" stroke-linecap="round" stroke-linejoin="round"/>
<rect x="372" y="77" width="48" height="48" rx="12" fill="white"/>
<path d="M395.995 101C397.996 101 399.618 99.433 399.618 97.5C399.618 95.567 397.996 94 395.995 94C393.994 94 392.372 95.567 392.372 97.5C392.372 99.433 393.994 101 395.995 101Z" fill="#3D7C46"/>
<path d="M395.995 104.333C393.716 104.333 391.691 105.535 390.407 107.396C390.126 107.804 389.985 108.008 390.001 108.269C390.014 108.472 390.152 108.72 390.319 108.843C390.535 109 390.831 109 391.424 109H400.567C401.159 109 401.456 109 401.671 108.843C401.839 108.72 401.977 108.472 401.989 108.269C402.005 108.008 401.865 107.804 401.584 107.396C400.3 105.535 398.274 104.333 395.995 104.333Z" fill="#3D7C46"/>
<path d="M395.995 101C397.996 101 399.618 99.433 399.618 97.5C399.618 95.567 397.996 94 395.995 94C393.994 94 392.372 95.567 392.372 97.5C392.372 99.433 393.994 101 395.995 101Z" stroke="#3D7C46" stroke-width="1.5" stroke-linecap="round" stroke-linejoin="round"/>
<path d="M395.995 104.333C393.716 104.333 391.691 105.535 390.407 107.396C390.126 107.804 389.985 108.008 390.001 108.269C390.014 108.472 390.152 108.72 390.319 108.843C390.535 109 390.831 109 391.424 109H400.567C401.159 109 401.456 109 401.671 108.843C401.839 108.72 401.977 108.472 401.989 108.269C402.005 108.008 401.865 107.804 401.584 107.396C400.3 105.535 398.274 104.333 395.995 104.333Z" stroke="#3D7C46" stroke-width="1.5" stroke-linecap="round" stroke-linejoin="round"/>
<rect x="330" y="430" width="48" height="48" rx="12" fill="white"/>
<path d="M353.995 454C355.996 454 357.618 452.433 357.618 450.5C357.618 448.567 355.996 447 353.995 447C351.994 447 350.372 448.567 350.372 450.5C350.372 452.433 351.994 454 353.995 454Z" fill="#3D7C46"/>
<path d="M353.995 457.333C351.716 457.333 349.691 458.535 348.407 460.396C348.126 460.804 347.985 461.008 348.001 461.269C348.014 461.472 348.152 461.72 348.319 461.843C348.535 462 348.831 462 349.424 462H358.567C359.159 462 359.456 462 359.671 461.843C359.839 461.72 359.977 461.472 359.989 461.269C360.005 461.008 359.865 460.804 359.584 460.396C358.3 458.535 356.274 457.333 353.995 457.333Z" fill="#3D7C46"/>
<path d="M353.995 454C355.996 454 357.618 452.433 357.618 450.5C357.618 448.567 355.996 447 353.995 447C351.994 447 350.372 448.567 350.372 450.5C350.372 452.433 351.994 454 353.995 454Z" stroke="#3D7C46" stroke-width="1.5" stroke-linecap="round" stroke-linejoin="round"/>
<path d="M353.995 457.333C351.716 457.333 349.691 458.535 348.407 460.396C348.126 460.804 347.985 461.008 348.001 461.269C348.014 461.472 348.152 461.72 348.319 461.843C348.535 462 348.831 462 349.424 462H358.567C359.159 462 359.456 462 359.671 461.843C359.839 461.72 359.977 461.472 359.989 461.269C360.005 461.008 359.865 460.804 359.584 460.396C358.3 458.535 356.274 457.333 353.995 457.333Z" stroke="#3D7C46" stroke-width="1.5" stroke-linecap="round" stroke-linejoin="round"/>
</svg>
