<svg width="475" height="301" viewBox="0 0 475 301" fill="none" xmlns="http://www.w3.org/2000/svg">
<g filter="url(#filter0_d_515_40968)">
<rect x="91.7561" y="19" width="362" height="369" rx="8" transform="rotate(11.53 91.7561 19)" fill="white"/>
<rect x="72.0543" y="195.626" width="98" height="16" rx="4" transform="rotate(11.53 72.0543 195.626)" fill="#E8EEF5"/>
<rect x="65.0585" y="229.92" width="98" height="16" rx="4" transform="rotate(11.53 65.0585 229.92)" fill="#E8EEF5"/>
<rect x="185.782" y="218.826" width="98" height="16" rx="4" transform="rotate(11.53 185.782 218.826)" fill="#E8EEF5"/>
<rect x="178.786" y="253.12" width="98" height="16" rx="4" transform="rotate(11.53 178.786 253.12)" fill="#E8EEF5"/>
<rect x="299.442" y="242.013" width="98" height="16" rx="4" transform="rotate(11.53 299.442 242.013)" fill="#E8EEF5"/>
<rect x="292.446" y="276.306" width="98" height="16" rx="4" transform="rotate(11.53 292.446 276.306)" fill="#E8EEF5"/>
<rect x="171.391" y="289.374" width="98" height="16" rx="4" transform="rotate(11.53 171.391 289.374)" fill="#E8EEF5"/>
<rect x="57.6628" y="266.173" width="98" height="16" rx="4" transform="rotate(11.53 57.6628 266.173)" fill="#E8EEF5"/>
<rect x="73.6533" y="187.788" width="36" height="5" rx="2.5" transform="rotate(11.53 73.6533 187.788)" fill="#E8EEF5"/>
<rect x="66.6575" y="222.081" width="36" height="5" rx="2.5" transform="rotate(11.53 66.6575 222.081)" fill="#E8EEF5"/>
<rect x="187.381" y="210.988" width="36" height="5" rx="2.5" transform="rotate(11.53 187.381 210.988)" fill="#E8EEF5"/>
<rect x="180.386" y="245.282" width="36" height="5" rx="2.5" transform="rotate(11.53 180.386 245.282)" fill="#E8EEF5"/>
<rect x="301.041" y="234.174" width="36" height="5" rx="2.5" transform="rotate(11.53 301.041 234.174)" fill="#E8EEF5"/>
<rect x="294.045" y="268.468" width="36" height="5" rx="2.5" transform="rotate(11.53 294.045 268.468)" fill="#E8EEF5"/>
<rect x="172.99" y="281.535" width="36" height="5" rx="2.5" transform="rotate(11.53 172.99 281.535)" fill="#E8EEF5"/>
<rect x="59.262" y="258.335" width="36" height="5" rx="2.5" transform="rotate(11.53 59.262 258.335)" fill="#E8EEF5"/>
<rect x="90.4434" y="105.483" width="77" height="4" rx="2" transform="rotate(11.53 90.4434 105.483)" fill="#D6DFEC"/>
<rect x="99.3245" y="141.995" width="77" height="4" rx="2" transform="rotate(11.53 99.3245 141.995)" fill="#D6DFEC"/>
<rect x="96.7261" y="154.732" width="77" height="4" rx="2" transform="rotate(11.53 96.7261 154.732)" fill="#D6DFEC"/>
<rect x="93.7279" y="169.43" width="77" height="4" rx="2" transform="rotate(11.53 93.7279 169.43)" fill="#D6DFEC"/>
<rect x="83.6473" y="138.797" width="7" height="4" rx="2" transform="rotate(11.53 83.6473 138.797)" fill="#D6DFEC"/>
<rect x="81.049" y="151.534" width="7" height="4" rx="2" transform="rotate(11.53 81.049 151.534)" fill="#D6DFEC"/>
<rect x="78.0508" y="166.232" width="7" height="4" rx="2" transform="rotate(11.53 78.0508 166.232)" fill="#D6DFEC"/>
<g clip-path="url(#clip0_515_40968)">
<rect x="103.635" y="40.8147" width="32.8511" height="32.8511" transform="rotate(11.53 103.635 40.8147)" fill="#D6DFEC"/>
<rect x="107.295" y="68.0093" width="17.8723" height="25.0213" transform="rotate(-33.47 107.295 68.0093)" fill="#A6B9DF"/>
<rect x="84.2256" y="68.6882" width="17.8723" height="25.0213" transform="rotate(-33.47 84.2256 68.6882)" fill="#A6B9DF"/>
<circle cx="106.778" cy="56.9167" r="2.38298" transform="rotate(11.53 106.778 56.9167)" fill="#A6B9DF"/>
</g>
<path d="M360.387 148.122L362.179 148.488L360.749 155.5C360.614 156.142 360.365 156.667 360.001 157.077C359.638 157.483 359.189 157.761 358.654 157.912C358.123 158.061 357.538 158.07 356.898 157.94C356.314 157.821 355.809 157.609 355.384 157.306C354.963 157.001 354.658 156.614 354.47 156.146C354.281 155.678 354.249 155.137 354.375 154.524L356.171 154.89C356.12 155.16 356.131 155.404 356.205 155.622C356.282 155.841 356.412 156.023 356.595 156.169C356.779 156.314 357.003 156.414 357.27 156.469C357.558 156.528 357.816 156.517 358.042 156.438C358.268 156.356 358.458 156.205 358.611 155.986C358.767 155.768 358.882 155.484 358.957 155.134L360.387 148.122ZM365.26 159.656C364.529 159.507 363.929 159.217 363.459 158.786C362.989 158.356 362.665 157.821 362.487 157.183C362.313 156.546 362.305 155.841 362.462 155.068C362.62 154.295 362.904 153.648 363.315 153.127C363.729 152.606 364.236 152.24 364.838 152.028C365.439 151.815 366.105 151.784 366.835 151.933C367.565 152.082 368.166 152.372 368.636 152.802C369.106 153.233 369.428 153.769 369.601 154.409C369.778 155.051 369.788 155.758 369.63 156.53C369.472 157.303 369.187 157.948 368.774 158.465C368.364 158.984 367.858 159.349 367.257 159.561C366.656 159.773 365.99 159.805 365.26 159.656ZM365.557 158.245C365.953 158.326 366.307 158.285 366.617 158.122C366.928 157.955 367.187 157.7 367.392 157.357C367.601 157.014 367.751 156.615 367.844 156.161C367.937 155.703 367.955 155.276 367.898 154.878C367.844 154.479 367.707 154.141 367.485 153.866C367.264 153.591 366.956 153.413 366.56 153.332C366.154 153.25 365.794 153.291 365.479 153.457C365.168 153.623 364.908 153.88 364.699 154.226C364.493 154.569 364.344 154.97 364.25 155.428C364.158 155.882 364.139 156.308 364.193 156.704C364.251 157.101 364.39 157.438 364.611 157.713C364.836 157.985 365.152 158.163 365.557 158.245ZM370.447 160.562L372.481 150.589L374.244 150.949L373.483 154.679L373.556 154.694C373.684 154.53 373.852 154.363 374.059 154.193C374.267 154.019 374.527 153.888 374.839 153.799C375.152 153.707 375.528 153.706 375.966 153.796C376.544 153.913 377.035 154.167 377.439 154.558C377.847 154.945 378.128 155.454 378.284 156.084C378.443 156.712 378.438 157.441 378.269 158.272C378.101 159.093 377.824 159.764 377.437 160.284C377.051 160.803 376.594 161.167 376.069 161.374C375.543 161.581 374.986 161.625 374.399 161.505C373.97 161.417 373.629 161.273 373.376 161.073C373.123 160.872 372.93 160.654 372.799 160.418C372.672 160.179 372.58 159.959 372.523 159.758L372.421 159.737L372.181 160.915L370.447 160.562ZM372.939 157.175C372.84 157.658 372.822 158.096 372.884 158.487C372.949 158.879 373.091 159.204 373.309 159.462C373.531 159.717 373.828 159.882 374.202 159.958C374.591 160.038 374.939 160 375.244 159.846C375.55 159.689 375.807 159.442 376.014 159.106C376.225 158.767 376.378 158.363 376.474 157.896C376.568 157.432 376.586 157.006 376.526 156.618C376.467 156.231 376.326 155.908 376.105 155.65C375.884 155.392 375.577 155.223 375.184 155.142C374.808 155.066 374.468 155.099 374.164 155.244C373.861 155.388 373.605 155.625 373.396 155.954C373.19 156.284 373.037 156.691 372.939 157.175ZM385.64 163.813C384.91 163.664 384.309 163.374 383.839 162.944C383.369 162.513 383.046 161.979 382.868 161.341C382.694 160.703 382.685 159.998 382.843 159.226C383.001 158.453 383.285 157.806 383.695 157.284C384.109 156.764 384.617 156.397 385.218 156.185C385.819 155.973 386.485 155.941 387.216 156.09C387.946 156.239 388.546 156.529 389.016 156.96C389.486 157.391 389.808 157.926 389.982 158.567C390.159 159.208 390.168 159.915 390.011 160.688C389.853 161.46 389.568 162.105 389.154 162.623C388.744 163.141 388.239 163.506 387.637 163.719C387.036 163.931 386.37 163.962 385.64 163.813ZM385.938 162.403C386.334 162.484 386.687 162.443 386.998 162.279C387.309 162.113 387.567 161.858 387.773 161.514C387.981 161.172 388.132 160.773 388.225 160.318C388.318 159.861 388.336 159.433 388.278 159.036C388.225 158.636 388.087 158.299 387.866 158.024C387.645 157.749 387.336 157.571 386.94 157.49C386.534 157.407 386.174 157.449 385.86 157.614C385.549 157.781 385.288 158.037 385.079 158.383C384.874 158.727 384.724 159.128 384.631 159.585C384.538 160.04 384.519 160.465 384.573 160.862C384.631 161.259 384.77 161.595 384.992 161.87C385.217 162.143 385.532 162.32 385.938 162.403ZM396.064 157.997L395.786 159.36L391.364 158.458L391.643 157.095L396.064 157.997ZM391.222 164.8L392.892 156.614C392.995 156.111 393.184 155.714 393.46 155.422C393.739 155.13 394.072 154.938 394.46 154.845C394.848 154.751 395.257 154.749 395.689 154.837C395.994 154.899 396.26 154.979 396.487 155.076C396.714 155.173 396.881 155.252 396.986 155.314L396.358 156.606C396.288 156.568 396.198 156.526 396.089 156.481C395.981 156.431 395.857 156.393 395.717 156.364C395.389 156.297 395.141 156.329 394.972 156.461C394.807 156.589 394.695 156.8 394.636 157.092L392.99 165.16L391.222 164.8ZM401.233 159.051L400.955 160.415L396.533 159.513L396.811 158.149L401.233 159.051ZM396.391 165.854L398.061 157.669C398.163 157.166 398.353 156.768 398.629 156.476C398.908 156.185 399.241 155.992 399.629 155.899C400.016 155.806 400.426 155.803 400.858 155.891C401.163 155.953 401.429 156.033 401.656 156.13C401.883 156.227 402.05 156.307 402.155 156.369L401.527 157.661C401.456 157.623 401.367 157.581 401.258 157.535C401.15 157.486 401.026 157.447 400.886 157.418C400.558 157.352 400.31 157.384 400.141 157.515C399.976 157.644 399.864 157.854 399.804 158.146L398.158 166.215L396.391 165.854ZM404.088 167.576C403.338 167.423 402.722 167.136 402.24 166.713C401.762 166.287 401.436 165.757 401.261 165.123C401.086 164.486 401.079 163.776 401.239 162.994C401.396 162.224 401.68 161.579 402.09 161.057C402.505 160.533 403.01 160.163 403.605 159.946C404.201 159.726 404.856 159.689 405.57 159.835C406.031 159.929 406.451 160.092 406.83 160.325C407.212 160.555 407.529 160.857 407.781 161.229C408.037 161.603 408.206 162.046 408.291 162.561C408.376 163.072 408.352 163.655 408.218 164.311L408.108 164.851L401.977 163.601L402.22 162.412L406.66 163.318C406.726 162.98 406.714 162.665 406.625 162.373C406.536 162.078 406.38 161.827 406.154 161.623C405.932 161.418 405.652 161.282 405.315 161.213C404.954 161.139 404.62 161.162 404.312 161.282C404.004 161.399 403.745 161.582 403.535 161.834C403.328 162.082 403.189 162.374 403.118 162.707L402.906 163.745C402.818 164.18 402.821 164.569 402.917 164.913C403.013 165.254 403.187 165.536 403.439 165.76C403.691 165.981 404.009 166.13 404.392 166.208C404.648 166.261 404.888 166.272 405.11 166.243C405.333 166.211 405.536 166.139 405.717 166.027C405.899 165.915 406.05 165.762 406.171 165.567L407.779 166.088C407.587 166.502 407.311 166.841 406.953 167.106C406.598 167.368 406.177 167.543 405.69 167.629C405.203 167.713 404.669 167.695 404.088 167.576ZM408.934 168.413L410.46 160.934L412.169 161.282L411.915 162.529L411.993 162.545C412.217 162.141 412.519 161.856 412.898 161.69C413.28 161.521 413.686 161.48 414.114 161.568C414.212 161.587 414.32 161.615 414.438 161.649C414.56 161.68 414.66 161.713 414.738 161.745L414.407 163.367C414.337 163.326 414.224 163.279 414.065 163.226C413.911 163.171 413.759 163.128 413.61 163.098C413.288 163.032 412.985 163.043 412.7 163.13C412.419 163.215 412.181 163.364 411.985 163.578C411.789 163.792 411.659 164.057 411.594 164.376L410.697 168.773L408.934 168.413Z" fill="#263238"/>
<rect x="93.6415" y="89.8057" width="91" height="8" rx="4" transform="rotate(11.53 93.6415 89.8057)" fill="#F6652F"/>
<line x1="86.3458" y1="125.569" x2="409.686" y2="191.53" stroke="#F2F6FB"/>
<g clip-path="url(#clip1_515_40968)">
<rect x="299.315" y="182.597" width="26" height="26" rx="4" transform="rotate(11.53 299.315 182.597)" fill="#D6E3F1"/>
<path d="M305.19 190.254C305.064 190.759 304.573 191.083 304.059 191L297.743 189.978C296.843 189.832 296.591 188.658 297.352 188.156L305.216 182.969C305.976 182.467 306.957 183.161 306.737 184.045L305.19 190.254Z" fill="#9CB8D9"/>
<rect x="304.216" y="179.767" width="5" height="11.6631" transform="rotate(56.6837 304.216 179.767)" fill="white"/>
<rect x="301.616" y="196.334" width="15" height="2" rx="1" transform="rotate(11.53 301.616 196.334)" fill="white"/>
<rect x="300.616" y="201.233" width="11" height="2" rx="1" transform="rotate(11.53 300.616 201.233)" fill="white"/>
</g>
<g clip-path="url(#clip2_515_40968)">
<rect x="340.466" y="190.992" width="26" height="26" rx="4" transform="rotate(11.53 340.466 190.992)" fill="#D6E3F1"/>
<path d="M346.341 198.649C346.215 199.153 345.724 199.477 345.21 199.394L338.894 198.373C337.994 198.227 337.742 197.052 338.503 196.551L346.367 191.364C347.127 190.862 348.108 191.556 347.888 192.44L346.341 198.649Z" fill="#9CB8D9"/>
<rect x="345.367" y="188.162" width="5" height="11.6631" transform="rotate(56.6837 345.367 188.162)" fill="white"/>
<rect x="342.767" y="204.729" width="15" height="2" rx="1" transform="rotate(11.53 342.767 204.729)" fill="white"/>
<rect x="341.767" y="209.628" width="11" height="2" rx="1" transform="rotate(11.53 341.767 209.628)" fill="white"/>
</g>
<g clip-path="url(#clip3_515_40968)">
<rect x="381.596" y="199.49" width="26" height="26" rx="4" transform="rotate(11.53 381.596 199.49)" fill="#D6E3F1"/>
<path d="M387.533 207.113C387.404 207.616 386.91 207.936 386.397 207.849L380.089 206.776C379.191 206.623 378.948 205.446 379.713 204.951L387.619 199.828C388.383 199.332 389.358 200.034 389.131 200.917L387.533 207.113Z" fill="#9CB8D9"/>
<rect x="386.645" y="196.618" width="5" height="11.6631" transform="rotate(57.1499 386.645 196.618)" fill="white"/>
<rect x="383.91" y="213.163" width="15" height="2" rx="1" transform="rotate(11.9962 383.91 213.163)" fill="white"/>
<rect x="382.871" y="218.054" width="11" height="2" rx="1" transform="rotate(11.9962 382.871 218.054)" fill="white"/>
</g>
<rect x="50.736" y="300.481" width="62.9861" height="21.4958" rx="8" transform="rotate(11.53 50.736 300.481)" fill="#00489D"/>
</g>
<defs>
<filter id="filter0_d_515_40968" x="-1" y="-1" width="476.451" height="481.911" filterUnits="userSpaceOnUse" color-interpolation-filters="sRGB">
<feFlood flood-opacity="0" result="BackgroundImageFix"/>
<feColorMatrix in="SourceAlpha" type="matrix" values="0 0 0 0 0 0 0 0 0 0 0 0 0 0 0 0 0 0 127 0" result="hardAlpha"/>
<feOffset dx="5" dy="4"/>
<feGaussianBlur stdDeviation="12"/>
<feComposite in2="hardAlpha" operator="out"/>
<feColorMatrix type="matrix" values="0 0 0 0 0 0 0 0 0 0 0 0 0 0 0 0 0 0 0.08 0"/>
<feBlend mode="normal" in2="BackgroundImageFix" result="effect1_dropShadow_515_40968"/>
<feBlend mode="normal" in="SourceGraphic" in2="effect1_dropShadow_515_40968" result="shape"/>
</filter>
<clipPath id="clip0_515_40968">
<rect x="103.635" y="40.8147" width="32" height="32" rx="8" transform="rotate(11.53 103.635 40.8147)" fill="white"/>
</clipPath>
<clipPath id="clip1_515_40968">
<rect width="26" height="26" fill="white" transform="translate(299.315 182.597) rotate(11.53)"/>
</clipPath>
<clipPath id="clip2_515_40968">
<rect width="26" height="26" fill="white" transform="translate(340.466 190.992) rotate(11.53)"/>
</clipPath>
<clipPath id="clip3_515_40968">
<rect width="26" height="26" fill="white" transform="translate(381.721 199.408) rotate(11.9962)"/>
</clipPath>
</defs>
</svg>
