<svg width="444" height="344" viewBox="0 0 444 344" fill="none" xmlns="http://www.w3.org/2000/svg">
<g filter="url(#filter0_d_515_40770)">
<rect x="19" y="66.325" width="362" height="296" rx="8" transform="rotate(-7.35227 19 66.325)" fill="white"/>
<rect x="57.519" y="239.822" width="98" height="16" rx="4" transform="rotate(-7.35227 57.519 239.822)" fill="#E8EEF5"/>
<rect x="172.635" y="224.969" width="98" height="16" rx="4" transform="rotate(-7.35227 172.635 224.969)" fill="#E8EEF5"/>
<rect x="287.681" y="210.124" width="98" height="16" rx="4" transform="rotate(-7.35227 287.681 210.124)" fill="#E8EEF5"/>
<rect x="177.114" y="259.681" width="98" height="16" rx="4" transform="rotate(-7.35227 177.114 259.681)" fill="#E8EEF5"/>
<rect x="61.9979" y="274.534" width="98" height="16" rx="4" transform="rotate(-7.35227 61.9979 274.534)" fill="#E8EEF5"/>
<rect x="56.4952" y="231.888" width="36" height="5" rx="2.5" transform="rotate(-7.35227 56.4952 231.888)" fill="#E8EEF5"/>
<rect x="171.611" y="217.034" width="36" height="5" rx="2.5" transform="rotate(-7.35227 171.611 217.034)" fill="#E8EEF5"/>
<rect x="286.658" y="202.19" width="36" height="5" rx="2.5" transform="rotate(-7.35227 286.658 202.19)" fill="#E8EEF5"/>
<rect x="176.09" y="251.747" width="36" height="5" rx="2.5" transform="rotate(-7.35227 176.09 251.747)" fill="#E8EEF5"/>
<rect x="60.9742" y="266.6" width="36" height="5" rx="2.5" transform="rotate(-7.35227 60.9742 266.6)" fill="#E8EEF5"/>
<rect x="45.7458" y="148.579" width="77" height="4" rx="2" transform="rotate(-7.35227 45.7458 148.579)" fill="#D6DFEC"/>
<rect x="65.9652" y="180.251" width="77" height="4" rx="2" transform="rotate(-7.35227 65.9652 180.251)" fill="#D6DFEC"/>
<rect x="67.6289" y="193.145" width="77" height="4" rx="2" transform="rotate(-7.35227 67.6289 193.145)" fill="#D6DFEC"/>
<rect x="69.5483" y="208.021" width="77" height="4" rx="2" transform="rotate(-7.35227 69.5483 208.021)" fill="#D6DFEC"/>
<rect x="50.0968" y="182.299" width="7" height="4" rx="2" transform="rotate(-7.35227 50.0968 182.299)" fill="#D6DFEC"/>
<rect x="51.7604" y="195.192" width="7" height="4" rx="2" transform="rotate(-7.35227 51.7604 195.192)" fill="#D6DFEC"/>
<rect x="53.6799" y="210.069" width="7" height="4" rx="2" transform="rotate(-7.35227 53.6799 210.069)" fill="#D6DFEC"/>
<g clip-path="url(#clip0_515_40770)">
<rect x="37.2999" y="83.1213" width="32.8511" height="32.8511" transform="rotate(-7.35227 37.2999 83.1213)" fill="#D6DFEC"/>
<rect x="49.5632" y="107.668" width="17.8723" height="25.0213" transform="rotate(-52.3523 49.5632 107.668)" fill="#A6B9DF"/>
<rect x="27.9552" y="115.777" width="17.8723" height="25.0213" transform="rotate(-52.3523 27.9552 115.777)" fill="#A6B9DF"/>
<circle cx="45.4846" cy="97.3397" r="2.38298" transform="rotate(-7.35227 45.4846 97.3397)" fill="#A6B9DF"/>
</g>
<path d="M314.962 101.563L316.776 101.329L317.692 108.426C317.772 109.077 317.707 109.655 317.494 110.16C317.282 110.662 316.947 111.071 316.49 111.387C316.036 111.7 315.485 111.898 314.838 111.981C314.247 112.058 313.701 112.021 313.201 111.872C312.703 111.719 312.289 111.452 311.96 111.07C311.63 110.688 311.425 110.187 311.345 109.566L313.163 109.331C313.202 109.603 313.291 109.831 313.432 110.013C313.575 110.195 313.758 110.325 313.978 110.404C314.199 110.482 314.444 110.504 314.713 110.469C315.006 110.431 315.246 110.339 315.434 110.191C315.622 110.04 315.752 109.836 315.826 109.579C315.903 109.322 315.92 109.015 315.878 108.66L314.962 101.563ZM323.305 110.899C322.565 110.994 321.904 110.914 321.319 110.659C320.735 110.404 320.256 110.003 319.881 109.456C319.51 108.91 319.274 108.245 319.173 107.463C319.072 106.681 319.132 105.977 319.352 105.351C319.575 104.724 319.936 104.213 320.437 103.818C320.937 103.423 321.557 103.177 322.296 103.082C323.035 102.986 323.697 103.066 324.281 103.322C324.865 103.577 325.343 103.98 325.715 104.53C326.09 105.079 326.328 105.745 326.428 106.527C326.529 107.309 326.468 108.012 326.244 108.635C326.024 109.258 325.664 109.768 325.164 110.163C324.664 110.558 324.044 110.803 323.305 110.899ZM323.13 109.468C323.531 109.416 323.852 109.263 324.093 109.008C324.333 108.75 324.495 108.425 324.578 108.034C324.665 107.642 324.678 107.216 324.619 106.756C324.559 106.292 324.438 105.882 324.255 105.525C324.075 105.164 323.835 104.889 323.537 104.701C323.239 104.512 322.889 104.443 322.488 104.495C322.078 104.548 321.75 104.704 321.506 104.963C321.266 105.221 321.102 105.547 321.017 105.943C320.933 106.334 320.922 106.762 320.982 107.225C321.041 107.685 321.16 108.094 321.34 108.451C321.523 108.809 321.764 109.082 322.062 109.27C322.363 109.455 322.719 109.521 323.13 109.468ZM328.506 110.077L327.204 99.9832L328.988 99.753L329.475 103.528L329.549 103.519C329.617 103.323 329.722 103.111 329.863 102.882C330.003 102.65 330.207 102.442 330.474 102.257C330.74 102.069 331.095 101.946 331.539 101.889C332.123 101.814 332.67 101.895 333.179 102.134C333.69 102.368 334.121 102.759 334.472 103.305C334.826 103.847 335.057 104.539 335.166 105.38C335.273 106.211 335.228 106.935 335.03 107.552C334.833 108.169 334.518 108.66 334.088 109.026C333.658 109.393 333.145 109.614 332.55 109.691C332.117 109.747 331.747 109.721 331.443 109.613C331.138 109.506 330.886 109.361 330.685 109.18C330.488 108.995 330.33 108.817 330.211 108.645L330.107 108.658L330.261 109.851L328.506 110.077ZM329.768 106.066C329.831 106.556 329.955 106.976 330.141 107.326C330.329 107.676 330.569 107.937 330.858 108.11C331.151 108.28 331.486 108.34 331.864 108.291C332.258 108.24 332.575 108.093 332.814 107.848C333.052 107.6 333.215 107.283 333.302 106.898C333.392 106.509 333.407 106.078 333.346 105.605C333.285 105.135 333.164 104.726 332.982 104.379C332.8 104.031 332.563 103.771 332.27 103.599C331.977 103.426 331.632 103.365 331.235 103.417C330.853 103.466 330.543 103.608 330.302 103.843C330.062 104.077 329.896 104.384 329.805 104.764C329.717 105.142 329.704 105.577 329.768 106.066ZM343.934 108.237C343.195 108.332 342.533 108.252 341.949 107.997C341.365 107.742 340.885 107.341 340.511 106.795C340.14 106.248 339.904 105.584 339.803 104.802C339.702 104.019 339.761 103.315 339.981 102.689C340.204 102.062 340.566 101.551 341.066 101.156C341.566 100.761 342.186 100.515 342.925 100.42C343.665 100.325 344.326 100.405 344.91 100.66C345.495 100.915 345.972 101.318 346.344 101.868C346.719 102.418 346.957 103.083 347.058 103.865C347.159 104.647 347.097 105.35 346.874 105.974C346.654 106.597 346.293 107.106 345.793 107.501C345.293 107.896 344.673 108.142 343.934 108.237ZM343.759 106.806C344.16 106.755 344.481 106.601 344.722 106.346C344.963 106.088 345.125 105.763 345.208 105.372C345.294 104.98 345.308 104.554 345.248 104.094C345.188 103.631 345.067 103.22 344.884 102.863C344.704 102.502 344.465 102.227 344.166 102.039C343.868 101.85 343.518 101.782 343.118 101.833C342.707 101.886 342.38 102.042 342.136 102.301C341.895 102.559 341.732 102.886 341.646 103.281C341.563 103.672 341.551 104.1 341.611 104.563C341.67 105.023 341.79 105.432 341.97 105.79C342.153 106.147 342.393 106.42 342.692 106.608C342.993 106.793 343.349 106.859 343.759 106.806ZM351.914 99.3604L352.093 100.74L347.617 101.318L347.439 99.9378L351.914 99.3604ZM349.535 107.364L348.466 99.0788C348.4 98.5695 348.45 98.132 348.617 97.7665C348.787 97.4005 349.04 97.1106 349.377 96.8968C349.713 96.683 350.1 96.5479 350.537 96.4915C350.846 96.4516 351.124 96.4409 351.37 96.4592C351.616 96.4776 351.799 96.499 351.919 96.5236L351.742 97.9495C351.664 97.9362 351.566 97.9255 351.448 97.9173C351.329 97.9059 351.199 97.9093 351.058 97.9275C350.726 97.9703 350.502 98.0812 350.384 98.26C350.27 98.4351 350.232 98.6705 350.27 98.9662L351.324 107.133L349.535 107.364ZM357.146 98.6853L357.324 100.065L352.849 100.643L352.671 99.2627L357.146 98.6853ZM354.767 106.689L353.698 98.4037C353.632 97.8944 353.682 97.457 353.849 97.0914C354.019 96.7254 354.272 96.4355 354.609 96.2217C354.945 96.0079 355.332 95.8728 355.769 95.8164C356.078 95.7766 356.355 95.7658 356.602 95.7842C356.848 95.8025 357.031 95.824 357.151 95.8485L356.974 97.2744C356.896 97.2611 356.797 97.2504 356.68 97.2423C356.561 97.2308 356.431 97.2342 356.29 97.2524C355.958 97.2953 355.734 97.4061 355.616 97.5849C355.502 97.76 355.464 97.9954 355.502 98.2911L356.556 106.458L354.767 106.689ZM362.606 105.828C361.847 105.926 361.172 105.852 360.579 105.608C359.989 105.36 359.509 104.965 359.138 104.421C358.767 103.875 358.53 103.205 358.428 102.413C358.327 101.635 358.387 100.932 358.607 100.306C358.83 99.6757 359.187 99.1618 359.681 98.7641C360.173 98.3632 360.781 98.116 361.504 98.0228C361.971 97.9626 362.421 97.9813 362.854 98.0791C363.291 98.1731 363.688 98.3556 364.047 98.6266C364.41 98.8972 364.714 99.2622 364.96 99.7214C365.206 100.177 365.372 100.737 365.458 101.401L365.528 101.948L359.323 102.749L359.168 101.546L363.663 100.966C363.615 100.625 363.502 100.33 363.323 100.083C363.144 99.8322 362.915 99.6463 362.635 99.5254C362.359 99.404 362.05 99.3654 361.708 99.4095C361.343 99.4566 361.035 99.5866 360.781 99.7997C360.528 100.009 360.342 100.267 360.225 100.573C360.11 100.875 360.073 101.196 360.113 101.534L360.249 102.584C360.306 103.025 360.435 103.392 360.637 103.687C360.838 103.978 361.094 104.189 361.405 104.319C361.715 104.446 362.064 104.485 362.452 104.435C362.711 104.401 362.942 104.335 363.143 104.235C363.343 104.133 363.511 103.999 363.647 103.834C363.783 103.67 363.876 103.476 363.928 103.252L365.618 103.224C365.569 103.678 365.419 104.089 365.165 104.455C364.915 104.818 364.573 105.12 364.139 105.359C363.706 105.596 363.195 105.752 362.606 105.828ZM367.463 105.051L366.486 97.4801L368.216 97.2569L368.379 98.5187L368.458 98.5085C368.54 98.0537 368.733 97.6864 369.037 97.4065C369.345 97.123 369.715 96.9532 370.149 96.8973C370.248 96.8846 370.358 96.8753 370.481 96.8695C370.607 96.8599 370.712 96.8581 370.796 96.8639L371.008 98.5052C370.929 98.4886 370.806 98.4811 370.639 98.4826C370.475 98.4804 370.318 98.489 370.167 98.5085C369.841 98.5505 369.558 98.6589 369.317 98.8336C369.078 99.0047 368.901 99.223 368.785 99.4885C368.669 99.754 368.632 100.048 368.673 100.37L369.247 104.82L367.463 105.051Z" fill="#263238"/>
<rect x="43.6984" y="132.71" width="91" height="8" rx="4" transform="rotate(-7.35227 43.6984 132.71)" fill="#F6652F"/>
<line x1="48.3692" y1="168.91" x2="375.656" y2="126.68" stroke="#F2F6FB"/>
<g clip-path="url(#clip1_515_40770)">
<rect x="268.333" y="153.947" width="26" height="26" rx="4" transform="rotate(-7.35227 268.333 153.947)" fill="#D6E3F1"/>
<path d="M276.37 159.291C276.414 159.809 276.054 160.275 275.542 160.362L269.234 161.439C268.336 161.593 267.717 160.563 268.275 159.842L274.037 152.389C274.594 151.668 275.746 152.008 275.824 152.916L276.37 159.291Z" fill="#9CB8D9"/>
<rect x="272.055" y="149.684" width="5" height="11.6631" transform="rotate(37.8014 272.055 149.684)" fill="white"/>
<rect x="274.956" y="166.2" width="15" height="2" rx="1" transform="rotate(-7.35227 274.956 166.2)" fill="white"/>
<rect x="275.596" y="171.159" width="11" height="2" rx="1" transform="rotate(-7.35227 275.596 171.159)" fill="white"/>
</g>
<g clip-path="url(#clip2_515_40770)">
<rect x="309.987" y="148.573" width="26" height="26" rx="4" transform="rotate(-7.35227 309.987 148.573)" fill="#D6E3F1"/>
<path d="M318.023 153.917C318.067 154.435 317.707 154.9 317.195 154.988L310.888 156.065C309.989 156.218 309.371 155.188 309.928 154.468L315.69 147.015C316.247 146.294 317.4 146.633 317.477 147.541L318.023 153.917Z" fill="#9CB8D9"/>
<rect x="313.708" y="144.309" width="5" height="11.6631" transform="rotate(37.8014 313.708 144.309)" fill="white"/>
<rect x="316.609" y="160.826" width="15" height="2" rx="1" transform="rotate(-7.35227 316.609 160.826)" fill="white"/>
<rect x="317.249" y="165.785" width="11" height="2" rx="1" transform="rotate(-7.35227 317.249 165.785)" fill="white"/>
</g>
<g clip-path="url(#clip3_515_40770)">
<rect x="351.653" y="143.302" width="26" height="26" rx="4" transform="rotate(-7.35227 351.653 143.302)" fill="#D6E3F1"/>
<path d="M359.738 148.594C359.778 149.112 359.414 149.575 358.901 149.658L352.585 150.684C351.686 150.83 351.076 149.795 351.639 149.079L357.461 141.673C358.024 140.957 359.174 141.305 359.244 142.214L359.738 148.594Z" fill="#9CB8D9"/>
<rect x="355.501" y="138.951" width="5" height="11.6631" transform="rotate(38.2676 355.501 138.951)" fill="white"/>
<rect x="358.268" y="155.491" width="15" height="2" rx="1" transform="rotate(-6.88609 358.268 155.491)" fill="white"/>
<rect x="358.867" y="160.455" width="11" height="2" rx="1" transform="rotate(-6.88609 358.867 160.455)" fill="white"/>
</g>
<rect x="67.162" y="314.007" width="62.9861" height="21.4958" rx="8" transform="rotate(-7.35227 67.162 314.007)" fill="#00489D"/>
<path d="M87.5232 324.737L86.6138 324.855L87.9245 318.913L88.9142 318.785L91.6901 324.2L90.7808 324.317L88.576 319.877L88.5316 319.883L87.5232 324.737ZM87.3887 322.494L90.3386 322.113L90.4316 322.834L87.4818 323.215L87.3887 322.494ZM94.3359 323.946C93.9237 323.999 93.5568 323.951 93.2352 323.803C92.9151 323.653 92.6543 323.422 92.4526 323.112C92.251 322.802 92.1226 322.433 92.0675 322.006C92.0117 321.573 92.0438 321.181 92.1637 320.829C92.2835 320.476 92.4792 320.187 92.7508 319.962C93.0224 319.737 93.3588 319.599 93.7599 319.547C94.0833 319.505 94.3794 319.528 94.6481 319.615C94.9166 319.701 95.1423 319.841 95.3252 320.035C95.51 320.23 95.6356 320.468 95.7022 320.751L94.8954 320.855C94.8253 320.661 94.7014 320.502 94.5239 320.378C94.3482 320.254 94.1282 320.21 93.8639 320.244C93.6328 320.273 93.4383 320.361 93.2803 320.505C93.1239 320.647 93.0121 320.836 92.9449 321.073C92.8774 321.307 92.8632 321.575 92.9023 321.878C92.9424 322.189 93.0241 322.451 93.1474 322.664C93.2708 322.878 93.4264 323.035 93.6143 323.137C93.804 323.238 94.0162 323.274 94.2509 323.243C94.408 323.223 94.5467 323.176 94.6668 323.102C94.7885 323.027 94.8858 322.929 94.9586 322.808C95.0333 322.688 95.0782 322.549 95.0936 322.391L95.9003 322.286C95.9063 322.566 95.8484 322.823 95.7266 323.059C95.6048 323.294 95.4262 323.49 95.1908 323.646C94.9572 323.802 94.6723 323.902 94.3359 323.946ZM98.9217 323.354C98.5095 323.407 98.1426 323.359 97.8209 323.211C97.5009 323.061 97.24 322.83 97.0384 322.52C96.8368 322.21 96.7084 321.841 96.6533 321.414C96.5975 320.982 96.6296 320.59 96.7495 320.238C96.8693 319.884 97.0649 319.595 97.3366 319.37C97.6082 319.145 97.9446 319.007 98.3456 318.955C98.6691 318.913 98.9652 318.936 99.2339 319.024C99.5024 319.109 99.7281 319.249 99.911 319.444C100.096 319.638 100.221 319.876 100.288 320.159L99.4812 320.263C99.4111 320.069 99.2872 319.91 99.1097 319.787C98.934 319.663 98.714 319.618 98.4497 319.652C98.2186 319.682 98.0241 319.769 97.8661 319.913C97.7097 320.056 97.5979 320.245 97.5306 320.481C97.4631 320.715 97.449 320.984 97.4881 321.287C97.5281 321.597 97.6098 321.859 97.7332 322.073C97.8566 322.286 98.0122 322.443 98.2 322.545C98.3898 322.646 98.602 322.682 98.8367 322.652C98.9938 322.631 99.1324 322.584 99.2526 322.511C99.3743 322.435 99.4716 322.337 99.5444 322.217C99.619 322.096 99.664 321.957 99.6794 321.799L100.486 321.695C100.492 321.974 100.434 322.231 100.312 322.467C100.191 322.703 100.012 322.898 99.7766 323.055C99.543 323.211 99.2581 323.31 98.9217 323.354ZM103.549 322.757C103.129 322.811 102.757 322.768 102.43 322.628C102.106 322.485 101.84 322.261 101.633 321.955C101.428 321.647 101.297 321.273 101.24 320.831C101.184 320.395 101.216 320 101.335 319.646C101.457 319.292 101.653 319.003 101.922 318.778C102.194 318.553 102.528 318.415 102.923 318.364C103.163 318.333 103.401 318.343 103.637 318.394C103.873 318.444 104.091 318.543 104.293 318.689C104.494 318.836 104.664 319.039 104.802 319.297C104.941 319.554 105.035 319.875 105.085 320.262L105.122 320.555L101.737 320.992L101.657 320.371L104.23 320.039C104.202 319.821 104.133 319.634 104.022 319.477C103.911 319.318 103.769 319.2 103.596 319.123C103.424 319.046 103.231 319.021 103.017 319.049C102.784 319.079 102.588 319.162 102.429 319.299C102.272 319.434 102.158 319.599 102.087 319.794C102.018 319.987 101.997 320.19 102.025 320.403L102.087 320.888C102.124 321.172 102.205 321.408 102.331 321.595C102.458 321.781 102.619 321.916 102.814 321.998C103.009 322.078 103.227 322.102 103.469 322.071C103.626 322.051 103.766 322.01 103.89 321.949C104.014 321.886 104.117 321.803 104.199 321.7C104.282 321.598 104.339 321.477 104.372 321.337L105.175 321.377C105.142 321.616 105.055 321.833 104.915 322.028C104.776 322.221 104.591 322.381 104.36 322.508C104.13 322.634 103.86 322.717 103.549 322.757ZM106.647 323.893L105.891 318.038L106.701 317.933L106.79 318.624L106.859 318.615C106.896 318.52 106.952 318.408 107.028 318.28C107.103 318.152 107.216 318.034 107.365 317.927C107.515 317.817 107.721 317.745 107.986 317.711C108.33 317.667 108.648 317.714 108.94 317.853C109.232 317.992 109.476 318.215 109.672 318.522C109.869 318.83 109.998 319.213 110.057 319.673C110.116 320.134 110.091 320.538 109.98 320.887C109.868 321.234 109.69 321.513 109.445 321.725C109.2 321.936 108.905 322.063 108.561 322.107C108.303 322.141 108.085 322.124 107.91 322.059C107.736 321.993 107.595 321.908 107.488 321.803C107.38 321.699 107.296 321.604 107.234 321.52L107.184 321.527L107.476 323.786L106.647 323.893ZM106.978 320.062C107.017 320.362 107.094 320.619 107.21 320.833C107.326 321.047 107.475 321.207 107.656 321.314C107.836 321.418 108.046 321.455 108.284 321.424C108.532 321.392 108.731 321.3 108.88 321.147C109.029 320.993 109.132 320.796 109.187 320.558C109.245 320.319 109.255 320.058 109.219 319.773C109.182 319.492 109.107 319.245 108.993 319.033C108.881 318.82 108.733 318.66 108.548 318.552C108.365 318.444 108.149 318.406 107.899 318.438C107.659 318.469 107.464 318.557 107.313 318.703C107.165 318.848 107.062 319.037 107.006 319.27C106.949 319.502 106.94 319.767 106.978 320.062ZM112.854 317.139L112.94 317.805L110.614 318.105L110.528 317.44L112.854 317.139ZM111.02 316.339L111.849 316.232L112.369 320.26C112.389 320.421 112.429 320.539 112.488 320.614C112.546 320.687 112.615 320.734 112.694 320.754C112.776 320.771 112.862 320.774 112.952 320.763C113.019 320.754 113.076 320.742 113.125 320.726C113.174 320.711 113.212 320.698 113.239 320.689L113.477 321.355C113.431 321.379 113.365 321.407 113.279 321.437C113.193 321.468 113.083 321.494 112.95 321.513C112.733 321.545 112.524 321.532 112.325 321.475C112.126 321.418 111.958 321.312 111.819 321.157C111.681 321.002 111.595 320.796 111.562 320.539L111.02 316.339Z" fill="white"/>
</g>
<defs>
<filter id="filter0_d_515_40770" x="0" y="0" width="444.903" height="387.891" filterUnits="userSpaceOnUse" color-interpolation-filters="sRGB">
<feFlood flood-opacity="0" result="BackgroundImageFix"/>
<feColorMatrix in="SourceAlpha" type="matrix" values="0 0 0 0 0 0 0 0 0 0 0 0 0 0 0 0 0 0 127 0" result="hardAlpha"/>
<feOffset dx="5" dy="4"/>
<feGaussianBlur stdDeviation="12"/>
<feComposite in2="hardAlpha" operator="out"/>
<feColorMatrix type="matrix" values="0 0 0 0 0 0 0 0 0 0 0 0 0 0 0 0 0 0 0.08 0"/>
<feBlend mode="normal" in2="BackgroundImageFix" result="effect1_dropShadow_515_40770"/>
<feBlend mode="normal" in="SourceGraphic" in2="effect1_dropShadow_515_40770" result="shape"/>
</filter>
<clipPath id="clip0_515_40770">
<rect x="37.2999" y="83.1213" width="32" height="32" rx="8" transform="rotate(-7.35227 37.2999 83.1213)" fill="white"/>
</clipPath>
<clipPath id="clip1_515_40770">
<rect width="26" height="26" fill="white" transform="translate(268.333 153.947) rotate(-7.35227)"/>
</clipPath>
<clipPath id="clip2_515_40770">
<rect width="26" height="26" fill="white" transform="translate(309.987 148.573) rotate(-7.35227)"/>
</clipPath>
<clipPath id="clip3_515_40770">
<rect width="26" height="26" fill="white" transform="translate(351.745 143.184) rotate(-6.88609)"/>
</clipPath>
</defs>
</svg>
