<svg width="205" height="127" viewBox="0 0 205 127" fill="none" xmlns="http://www.w3.org/2000/svg">
<g filter="url(#filter0_d_415_10885)">
<rect x="19" y="20" width="156.563" height="78.7187" rx="3.49861" fill="white" shape-rendering="crispEdges"/>
<g filter="url(#filter1_i_415_10885)">
<rect x="32.9944" y="47.9885" width="60.7883" height="20.9916" fill="white" fill-opacity="0.01"/>
</g>
<rect x="35.9998" y="57" width="39" height="5" rx="2.5" fill="#D6DFEC"/>
<path d="M36.9552 52.9299V49.1133H39.2437V49.5233H37.4174V50.8129H39.0723V51.2229H37.4174V52.9299H36.9552ZM39.9449 52.9299V50.0674H40.3698V50.4998H40.3996C40.4518 50.3582 40.5462 50.2432 40.6829 50.155C40.8196 50.0668 40.9736 50.0227 41.1451 50.0227C41.1774 50.0227 41.2177 50.0233 41.2662 50.0246C41.3147 50.0258 41.3513 50.0277 41.3762 50.0302V50.4774C41.3612 50.4737 41.3271 50.4681 41.2737 50.4607C41.2215 50.452 41.1662 50.4476 41.1078 50.4476C40.9686 50.4476 40.8444 50.4768 40.7351 50.5352C40.627 50.5924 40.5413 50.6719 40.4779 50.7737C40.4158 50.8744 40.3847 50.9893 40.3847 51.1185V52.9299H39.9449ZM42.9733 52.9896C42.7148 52.9896 42.4881 52.9281 42.293 52.8051C42.0992 52.6821 41.9477 52.51 41.8383 52.2889C41.7302 52.0677 41.6762 51.8093 41.6762 51.5136C41.6762 51.2154 41.7302 50.9551 41.8383 50.7327C41.9477 50.5104 42.0992 50.3377 42.293 50.2147C42.4881 50.0917 42.7148 50.0302 42.9733 50.0302C43.2317 50.0302 43.4578 50.0917 43.6516 50.2147C43.8467 50.3377 43.9982 50.5104 44.1063 50.7327C44.2157 50.9551 44.2703 51.2154 44.2703 51.5136C44.2703 51.8093 44.2157 52.0677 44.1063 52.2889C43.9982 52.51 43.8467 52.6821 43.6516 52.8051C43.4578 52.9281 43.2317 52.9896 42.9733 52.9896ZM42.9733 52.5945C43.1696 52.5945 43.3311 52.5442 43.4578 52.4435C43.5845 52.3429 43.6783 52.2106 43.7392 52.0466C43.8001 51.8826 43.8305 51.7049 43.8305 51.5136C43.8305 51.3223 43.8001 51.144 43.7392 50.9787C43.6783 50.8135 43.5845 50.6799 43.4578 50.5781C43.3311 50.4762 43.1696 50.4252 42.9733 50.4252C42.777 50.4252 42.6154 50.4762 42.4887 50.5781C42.362 50.6799 42.2682 50.8135 42.2073 50.9787C42.1464 51.144 42.116 51.3223 42.116 51.5136C42.116 51.7049 42.1464 51.8826 42.2073 52.0466C42.2682 52.2106 42.362 52.3429 42.4887 52.4435C42.6154 52.5442 42.777 52.5945 42.9733 52.5945ZM44.9417 52.9299V50.0674H45.3666V50.5147H45.4039C45.4635 50.3619 45.5598 50.2432 45.6927 50.1588C45.8257 50.073 45.9853 50.0302 46.1717 50.0302C46.3605 50.0302 46.5177 50.073 46.6432 50.1588C46.7699 50.2432 46.8687 50.3619 46.9395 50.5147H46.9693C47.0426 50.3669 47.1525 50.2494 47.2992 50.1625C47.4458 50.0743 47.6216 50.0302 47.8266 50.0302C48.0825 50.0302 48.2918 50.1103 48.4546 50.2706C48.6173 50.4296 48.6987 50.6775 48.6987 51.0141V52.9299H48.2589V51.0141C48.2589 50.8029 48.2011 50.652 48.0856 50.5613C47.9701 50.4706 47.834 50.4252 47.6775 50.4252C47.4762 50.4252 47.3203 50.4861 47.2097 50.6079C47.0991 50.7284 47.0438 50.8812 47.0438 51.0663V52.9299H46.5966V50.9694C46.5966 50.8067 46.5438 50.6756 46.4382 50.5762C46.3326 50.4756 46.1965 50.4252 46.03 50.4252C45.9157 50.4252 45.8089 50.4557 45.7095 50.5166C45.6113 50.5774 45.5318 50.6619 45.471 50.77C45.4113 50.8769 45.3815 51.0005 45.3815 51.1409V52.9299H44.9417Z" fill="#8B8B8B"/>
<g filter="url(#filter2_i_415_10885)">
<rect x="100.78" y="47.9885" width="60.7883" height="20.9916" fill="white" fill-opacity="0.01"/>
</g>
<rect x="104" y="57" width="39" height="5" rx="2.5" fill="#D6DFEC"/>
<path d="M104.532 49.5233V49.1133H107.394V49.5233H106.194V52.9299H105.732V49.5233H104.532ZM108.796 52.9896C108.537 52.9896 108.31 52.9281 108.115 52.8051C107.922 52.6821 107.77 52.51 107.661 52.2889C107.553 52.0677 107.499 51.8093 107.499 51.5136C107.499 51.2154 107.553 50.9551 107.661 50.7327C107.77 50.5104 107.922 50.3377 108.115 50.2147C108.31 50.0917 108.537 50.0302 108.796 50.0302C109.054 50.0302 109.28 50.0917 109.474 50.2147C109.669 50.3377 109.821 50.5104 109.929 50.7327C110.038 50.9551 110.093 51.2154 110.093 51.5136C110.093 51.8093 110.038 52.0677 109.929 52.2889C109.821 52.51 109.669 52.6821 109.474 52.8051C109.28 52.9281 109.054 52.9896 108.796 52.9896ZM108.796 52.5945C108.992 52.5945 109.153 52.5442 109.28 52.4435C109.407 52.3429 109.501 52.2106 109.562 52.0466C109.622 51.8826 109.653 51.7049 109.653 51.5136C109.653 51.3223 109.622 51.144 109.562 50.9787C109.501 50.8135 109.407 50.6799 109.28 50.5781C109.153 50.4762 108.992 50.4252 108.796 50.4252C108.599 50.4252 108.438 50.4762 108.311 50.5781C108.184 50.6799 108.091 50.8135 108.03 50.9787C107.969 51.144 107.938 51.3223 107.938 51.5136C107.938 51.7049 107.969 51.8826 108.03 52.0466C108.091 52.2106 108.184 52.3429 108.311 52.4435C108.438 52.5442 108.599 52.5945 108.796 52.5945Z" fill="#8B8B8B"/>
<path d="M33.5543 39.9937V34.9048H35.3682C35.7641 34.9048 36.0921 34.9768 36.3522 35.1209C36.6123 35.2651 36.8069 35.4622 36.9361 35.7123C37.0654 35.9608 37.13 36.2408 37.13 36.5522C37.13 36.8653 37.0645 37.1469 36.9337 37.397C36.8044 37.6455 36.609 37.8426 36.3472 37.9884C36.0872 38.1325 35.76 38.2046 35.3657 38.2046H34.1184V37.5536H35.2962C35.5463 37.5536 35.7492 37.5105 35.9049 37.4244C36.0607 37.3366 36.175 37.2173 36.2479 37.0666C36.3207 36.9158 36.3572 36.7444 36.3572 36.5522C36.3572 36.36 36.3207 36.1894 36.2479 36.0403C36.175 35.8912 36.0598 35.7745 35.9025 35.69C35.7467 35.6055 35.5413 35.5632 35.2862 35.5632H34.3221V39.9937H33.5543ZM37.9704 39.9937V36.177H38.6886V36.7833H38.7283C38.7979 36.5779 38.9205 36.4164 39.0961 36.2987C39.2733 36.1795 39.4738 36.1198 39.6974 36.1198C39.7438 36.1198 39.7984 36.1215 39.8614 36.1248C39.926 36.1281 39.9765 36.1323 40.013 36.1372V36.8479C39.9831 36.8396 39.9301 36.8305 39.8539 36.8206C39.7777 36.809 39.7015 36.8032 39.6253 36.8032C39.4497 36.8032 39.2932 36.8404 39.1557 36.915C39.0199 36.9879 38.9122 37.0897 38.8327 37.2206C38.7532 37.3498 38.7134 37.4973 38.7134 37.6629V39.9937H37.9704ZM40.6559 39.9937V36.177H41.3989V39.9937H40.6559ZM41.0311 35.5881C40.9019 35.5881 40.7909 35.545 40.6981 35.4589C40.607 35.3711 40.5615 35.2667 40.5615 35.1458C40.5615 35.0232 40.607 34.9188 40.6981 34.8327C40.7909 34.7449 40.9019 34.701 41.0311 34.701C41.1603 34.701 41.2705 34.7449 41.3616 34.8327C41.4543 34.9188 41.5007 35.0232 41.5007 35.1458C41.5007 35.2667 41.4543 35.3711 41.3616 35.4589C41.2705 35.545 41.1603 35.5881 41.0311 35.5881ZM44.006 40.0707C43.6366 40.0707 43.3186 39.987 43.0519 39.8197C42.7868 39.6507 42.5831 39.418 42.4406 39.1215C42.2981 38.825 42.2269 38.4854 42.2269 38.1027C42.2269 37.7151 42.2998 37.373 42.4456 37.0765C42.5914 36.7783 42.7968 36.5456 43.0618 36.3783C43.3269 36.2109 43.6391 36.1273 43.9986 36.1273C44.2885 36.1273 44.5469 36.1811 44.7738 36.2888C45.0008 36.3948 45.1838 36.5439 45.323 36.7361C45.4638 36.9282 45.5474 37.1527 45.5739 37.4095H44.8509C44.8111 37.2305 44.72 37.0765 44.5775 36.9473C44.4367 36.8181 44.2479 36.7535 44.011 36.7535C43.8039 36.7535 43.6225 36.8081 43.4668 36.9175C43.3128 37.0251 43.1927 37.1792 43.1065 37.3796C43.0204 37.5784 42.9773 37.8136 42.9773 38.0853C42.9773 38.3636 43.0196 38.6038 43.1041 38.8059C43.1885 39.008 43.3078 39.1646 43.4619 39.2755C43.6176 39.3865 43.8006 39.442 44.011 39.442C44.1518 39.442 44.2794 39.4163 44.3937 39.365C44.5096 39.312 44.6065 39.2366 44.6844 39.1389C44.7639 39.0411 44.8194 38.9235 44.8509 38.786H45.5739C45.5474 39.0329 45.4671 39.2532 45.3329 39.447C45.1987 39.6408 45.019 39.7932 44.7937 39.9042C44.5701 40.0152 44.3075 40.0707 44.006 40.0707ZM48.0134 40.0707C47.6374 40.0707 47.3135 39.9903 47.0418 39.8297C46.7718 39.6673 46.5631 39.4395 46.4157 39.1463C46.2699 38.8515 46.197 38.5061 46.197 38.1102C46.197 37.7192 46.2699 37.3747 46.4157 37.0765C46.5631 36.7783 46.7685 36.5456 47.0319 36.3783C47.297 36.2109 47.6067 36.1273 47.9612 36.1273C48.1766 36.1273 48.3853 36.1629 48.5874 36.2341C48.7895 36.3054 48.9709 36.4172 49.1316 36.5696C49.2923 36.722 49.419 36.9199 49.5117 37.1635C49.6045 37.4053 49.6509 37.6993 49.6509 38.0456V38.309H46.6169V37.7524H48.9228C48.9228 37.5569 48.8831 37.3838 48.8036 37.233C48.7241 37.0806 48.6122 36.9605 48.4681 36.8727C48.3257 36.7849 48.1584 36.741 47.9662 36.741C47.7575 36.741 47.5753 36.7924 47.4195 36.8951C47.2655 36.9961 47.1462 37.1287 47.0617 37.2927C46.9789 37.455 46.9375 37.6314 46.9375 37.8219V38.2568C46.9375 38.5119 46.9822 38.7289 47.0717 38.9078C47.1628 39.0867 47.2895 39.2234 47.4518 39.3178C47.6142 39.4106 47.8039 39.4569 48.0209 39.4569C48.1617 39.4569 48.2901 39.4371 48.406 39.3973C48.522 39.3559 48.6222 39.2946 48.7067 39.2134C48.7912 39.1323 48.8558 39.032 48.9005 38.9128L49.6037 39.0395C49.5474 39.2466 49.4463 39.4279 49.3005 39.5837C49.1564 39.7377 48.975 39.8578 48.7564 39.944C48.5394 40.0284 48.2917 40.0707 48.0134 40.0707Z" fill="#0B0B0B"/>
<path d="M159.971 36.7627L158.222 38.512L156.472 36.7627" stroke="#333333" stroke-width="0.524791" stroke-linecap="square"/>
<rect x="32.996" y="79.4756" width="128.574" height="1.7493" rx="0.874652" fill="white"/>
<rect x="32.996" y="79.4756" width="103.209" height="1.7493" rx="0.874652" fill="#00489D"/>
<circle cx="37.3701" cy="80.3493" r="4.37326" fill="#00489D"/>
<circle cx="37.3694" cy="80.3486" r="2.62396" fill="white"/>
<circle cx="136.205" cy="80.3493" r="4.37326" fill="#00489D"/>
<circle cx="136.204" cy="80.3486" r="2.62396" fill="white"/>
</g>
<defs>
<filter id="filter0_d_415_10885" x="0" y="0" width="204.563" height="126.719" filterUnits="userSpaceOnUse" color-interpolation-filters="sRGB">
<feFlood flood-opacity="0" result="BackgroundImageFix"/>
<feColorMatrix in="SourceAlpha" type="matrix" values="0 0 0 0 0 0 0 0 0 0 0 0 0 0 0 0 0 0 127 0" result="hardAlpha"/>
<feOffset dx="5" dy="4"/>
<feGaussianBlur stdDeviation="12"/>
<feComposite in2="hardAlpha" operator="out"/>
<feColorMatrix type="matrix" values="0 0 0 0 0 0 0 0 0 0 0 0 0 0 0 0 0 0 0.08 0"/>
<feBlend mode="normal" in2="BackgroundImageFix" result="effect1_dropShadow_415_10885"/>
<feBlend mode="normal" in="SourceGraphic" in2="effect1_dropShadow_415_10885" result="shape"/>
</filter>
<filter id="filter1_i_415_10885" x="32.9944" y="47.9885" width="60.7883" height="20.9917" filterUnits="userSpaceOnUse" color-interpolation-filters="sRGB">
<feFlood flood-opacity="0" result="BackgroundImageFix"/>
<feBlend mode="normal" in="SourceGraphic" in2="BackgroundImageFix" result="shape"/>
<feColorMatrix in="SourceAlpha" type="matrix" values="0 0 0 0 0 0 0 0 0 0 0 0 0 0 0 0 0 0 127 0" result="hardAlpha"/>
<feOffset dy="-0.437326"/>
<feComposite in2="hardAlpha" operator="arithmetic" k2="-1" k3="1"/>
<feColorMatrix type="matrix" values="0 0 0 0 0.912654 0 0 0 0 0.912654 0 0 0 0 0.912654 0 0 0 1 0"/>
<feBlend mode="normal" in2="shape" result="effect1_innerShadow_415_10885"/>
</filter>
<filter id="filter2_i_415_10885" x="100.78" y="47.9885" width="60.7883" height="20.9917" filterUnits="userSpaceOnUse" color-interpolation-filters="sRGB">
<feFlood flood-opacity="0" result="BackgroundImageFix"/>
<feBlend mode="normal" in="SourceGraphic" in2="BackgroundImageFix" result="shape"/>
<feColorMatrix in="SourceAlpha" type="matrix" values="0 0 0 0 0 0 0 0 0 0 0 0 0 0 0 0 0 0 127 0" result="hardAlpha"/>
<feOffset dy="-0.437326"/>
<feComposite in2="hardAlpha" operator="arithmetic" k2="-1" k3="1"/>
<feColorMatrix type="matrix" values="0 0 0 0 0.912654 0 0 0 0 0.912654 0 0 0 0 0.912654 0 0 0 1 0"/>
<feBlend mode="normal" in2="shape" result="effect1_innerShadow_415_10885"/>
</filter>
</defs>
</svg>
