<svg width="126" height="71" viewBox="0 0 126 71" fill="none" xmlns="http://www.w3.org/2000/svg">
<rect width="125.989" height="70.9889" rx="3.49861" fill="white"/>
<path d="M16.9643 14.5579C16.9382 14.3376 16.8324 14.1665 16.6469 14.0448C16.4613 13.923 16.2338 13.8621 15.9642 13.8621C15.767 13.8621 15.5946 13.894 15.4467 13.9578C15.3003 14.0216 15.1858 14.1093 15.1032 14.2209C15.022 14.3325 14.9814 14.4593 14.9814 14.6014C14.9814 14.7202 15.0097 14.8224 15.0662 14.9079C15.1242 14.992 15.1981 15.0623 15.288 15.1188C15.3779 15.1739 15.4721 15.2196 15.5706 15.2558C15.6692 15.2906 15.7598 15.3189 15.8424 15.3406L16.2946 15.4624C16.4106 15.4928 16.5396 15.5348 16.6817 15.5885C16.8252 15.6421 16.9621 15.7153 17.0926 15.808C17.2245 15.8994 17.3332 16.0168 17.4187 16.1603C17.5042 16.3038 17.547 16.4799 17.547 16.6886C17.547 16.9292 17.4839 17.1466 17.3578 17.3409C17.2332 17.5351 17.0505 17.6895 16.8099 17.804C16.5708 17.9185 16.2802 17.9757 15.9381 17.9757C15.6192 17.9757 15.3431 17.9243 15.1097 17.8214C14.8778 17.7185 14.6952 17.575 14.5618 17.3909C14.4299 17.2068 14.3553 16.993 14.3379 16.7495H14.8945C14.909 16.9176 14.9655 17.0568 15.064 17.1669C15.1641 17.2756 15.2902 17.3568 15.4424 17.4104C15.596 17.4626 15.7612 17.4887 15.9381 17.4887C16.1439 17.4887 16.3287 17.4554 16.4925 17.3887C16.6563 17.3206 16.786 17.2264 16.8817 17.1061C16.9773 16.9843 17.0252 16.8422 17.0252 16.6799C17.0252 16.5321 16.9839 16.4118 16.9013 16.319C16.8186 16.2262 16.7099 16.1508 16.5751 16.0929C16.4403 16.0349 16.2946 15.9842 16.1381 15.9407L15.5902 15.7841C15.2423 15.6841 14.9669 15.5413 14.764 15.3558C14.5611 15.1703 14.4596 14.9275 14.4596 14.6275C14.4596 14.3781 14.527 14.1607 14.6618 13.9752C14.7981 13.7882 14.9807 13.6433 15.2097 13.5404C15.4402 13.436 15.6975 13.3838 15.9816 13.3838C16.2686 13.3838 16.5237 13.4353 16.7469 13.5382C16.9701 13.6396 17.1469 13.7788 17.2774 13.9556C17.4093 14.1325 17.4789 14.3332 17.4861 14.5579H16.9643ZM19.7641 17.967C19.4424 17.967 19.1648 17.896 18.9314 17.754C18.6995 17.6105 18.5205 17.4104 18.3944 17.1539C18.2697 16.8959 18.2074 16.5958 18.2074 16.2538C18.2074 15.9117 18.2697 15.6102 18.3944 15.3493C18.5205 15.0869 18.6959 14.8826 18.9205 14.7362C19.1467 14.5883 19.4105 14.5144 19.712 14.5144C19.8859 14.5144 20.0577 14.5434 20.2272 14.6014C20.3968 14.6593 20.5512 14.7536 20.6903 14.884C20.8295 15.013 20.9404 15.1841 21.023 15.3971C21.1056 15.6102 21.1469 15.8726 21.1469 16.1842V16.4016H18.5727V15.9581H20.6251C20.6251 15.7696 20.5874 15.6015 20.5121 15.4537C20.4381 15.3058 20.3323 15.1891 20.1946 15.1036C20.0584 15.0181 19.8975 14.9753 19.712 14.9753C19.5076 14.9753 19.3307 15.0261 19.1814 15.1275C19.0336 15.2275 18.9198 15.358 18.8401 15.5189C18.7604 15.6798 18.7205 15.8523 18.7205 16.0363V16.332C18.7205 16.5842 18.764 16.798 18.851 16.9734C18.9394 17.1474 19.0619 17.28 19.2184 17.3713C19.375 17.4612 19.5569 17.5061 19.7641 17.5061C19.8989 17.5061 20.0207 17.4873 20.1294 17.4496C20.2396 17.4104 20.3345 17.3525 20.4142 17.2756C20.4939 17.1974 20.5555 17.1003 20.599 16.9843L21.0948 17.1234C21.0426 17.2916 20.9549 17.4394 20.8317 17.567C20.7085 17.6931 20.5563 17.7916 20.3751 17.8627C20.1939 17.9322 19.9903 17.967 19.7641 17.967ZM22.4406 15.8885V17.8975H21.9275V14.5579H22.4232V15.0797H22.4667C22.5449 14.9101 22.6638 14.7739 22.8232 14.6709C22.9827 14.5666 23.1885 14.5144 23.4407 14.5144C23.6668 14.5144 23.8647 14.5608 24.0343 14.6535C24.2039 14.7449 24.3358 14.884 24.43 15.071C24.5242 15.2565 24.5713 15.4913 24.5713 15.7754V17.8975H24.0582V15.8102C24.0582 15.5479 23.9901 15.3435 23.8538 15.1971C23.7176 15.0493 23.5306 14.9753 23.2929 14.9753C23.1291 14.9753 22.9827 15.0108 22.8537 15.0819C22.7261 15.1529 22.6254 15.2565 22.5515 15.3928C22.4775 15.529 22.4406 15.6943 22.4406 15.8885ZM25.5089 17.8975V14.5579H26.022V17.8975H25.5089ZM25.7698 14.0013C25.6698 14.0013 25.5836 13.9672 25.5111 13.8991C25.4401 13.831 25.4046 13.7491 25.4046 13.6534C25.4046 13.5577 25.4401 13.4759 25.5111 13.4077C25.5836 13.3396 25.6698 13.3055 25.7698 13.3055C25.8698 13.3055 25.9554 13.3396 26.0264 13.4077C26.0989 13.4759 26.1351 13.5577 26.1351 13.6534C26.1351 13.7491 26.0989 13.831 26.0264 13.8991C25.9554 13.9672 25.8698 14.0013 25.7698 14.0013ZM28.3185 17.967C28.0171 17.967 27.7525 17.8953 27.525 17.7518C27.2988 17.6083 27.122 17.4075 26.9945 17.1495C26.8684 16.8915 26.8053 16.59 26.8053 16.2451C26.8053 15.8972 26.8684 15.5935 26.9945 15.3341C27.122 15.0746 27.2988 14.8731 27.525 14.7296C27.7525 14.5861 28.0171 14.5144 28.3185 14.5144C28.62 14.5144 28.8838 14.5861 29.11 14.7296C29.3375 14.8731 29.5144 15.0746 29.6405 15.3341C29.768 15.5935 29.8318 15.8972 29.8318 16.2451C29.8318 16.59 29.768 16.8915 29.6405 17.1495C29.5144 17.4075 29.3375 17.6083 29.11 17.7518C28.8838 17.8953 28.62 17.967 28.3185 17.967ZM28.3185 17.5061C28.5476 17.5061 28.736 17.4474 28.8838 17.33C29.0317 17.2126 29.1411 17.0582 29.2121 16.8669C29.2832 16.6756 29.3187 16.4683 29.3187 16.2451C29.3187 16.0218 29.2832 15.8138 29.2121 15.6211C29.1411 15.4283 29.0317 15.2725 28.8838 15.1536C28.736 15.0348 28.5476 14.9753 28.3185 14.9753C28.0895 14.9753 27.9011 15.0348 27.7533 15.1536C27.6054 15.2725 27.496 15.4283 27.4249 15.6211C27.3539 15.8138 27.3184 16.0218 27.3184 16.2451C27.3184 16.4683 27.3539 16.6756 27.4249 16.8669C27.496 17.0582 27.6054 17.2126 27.7533 17.33C27.9011 17.4474 28.0895 17.5061 28.3185 17.5061ZM30.6151 17.8975V14.5579H31.1108V15.0623H31.1456C31.2064 14.8971 31.3166 14.763 31.476 14.6601C31.6355 14.5572 31.8152 14.5057 32.0152 14.5057C32.0529 14.5057 32.1 14.5064 32.1566 14.5079C32.2131 14.5093 32.2559 14.5115 32.2848 14.5144V15.0362C32.2674 15.0319 32.2276 15.0253 32.1653 15.0166C32.1044 15.0065 32.0399 15.0014 31.9718 15.0014C31.8094 15.0014 31.6645 15.0355 31.5369 15.1036C31.4108 15.1703 31.3108 15.263 31.2369 15.3819C31.1644 15.4993 31.1282 15.6334 31.1282 15.7841V17.8975H30.6151ZM32.8931 17.8975V14.5579H33.4062V17.8975H32.8931ZM33.154 14.0013C33.054 14.0013 32.9677 13.9672 32.8952 13.8991C32.8242 13.831 32.7887 13.7491 32.7887 13.6534C32.7887 13.5577 32.8242 13.4759 32.8952 13.4077C32.9677 13.3396 33.054 13.3055 33.154 13.3055C33.254 13.3055 33.3395 13.3396 33.4105 13.4077C33.483 13.4759 33.5192 13.5577 33.5192 13.6534C33.5192 13.7491 33.483 13.831 33.4105 13.8991C33.3395 13.9672 33.254 14.0013 33.154 14.0013ZM35.7984 14.5579V14.9927H34.0677V14.5579H35.7984ZM34.5721 13.7578H35.0852V16.9408C35.0852 17.0858 35.1062 17.1945 35.1483 17.2669C35.1918 17.338 35.2468 17.3858 35.3135 17.4104C35.3816 17.4336 35.4534 17.4452 35.5288 17.4452C35.5853 17.4452 35.6317 17.4423 35.6679 17.4365C35.7041 17.4293 35.7331 17.4235 35.7549 17.4191L35.8592 17.8801C35.8244 17.8931 35.7759 17.9062 35.7136 17.9192C35.6512 17.9337 35.5722 17.9409 35.4766 17.9409C35.3316 17.9409 35.1896 17.9098 35.0504 17.8475C34.9127 17.7851 34.7982 17.6902 34.7069 17.5626C34.617 17.4351 34.5721 17.2742 34.5721 17.08V13.7578ZM36.9007 19.1498C36.8137 19.1498 36.7362 19.1426 36.668 19.1281C36.5999 19.115 36.5528 19.102 36.5267 19.0889L36.6572 18.6367C36.7818 18.6686 36.892 18.6802 36.9876 18.6715C37.0833 18.6628 37.1681 18.62 37.242 18.5432C37.3174 18.4678 37.3863 18.3453 37.4486 18.1758L37.5442 17.9149L36.3093 14.5579H36.8659L37.7878 17.2191H37.8225L38.7444 14.5579H39.301L37.8834 18.3845C37.8196 18.557 37.7406 18.6997 37.6464 18.8128C37.5522 18.9273 37.4428 19.0121 37.3181 19.0672C37.1949 19.1223 37.0558 19.1498 36.9007 19.1498Z" fill="#686868"/>
<path d="M16.2338 42.7462H16.773V45.9292C16.773 46.2133 16.7208 46.4547 16.6164 46.6532C16.5121 46.8518 16.3649 47.0026 16.1751 47.1055C15.9852 47.2084 15.7612 47.2599 15.5032 47.2599C15.2597 47.2599 15.043 47.2156 14.8531 47.1272C14.6633 47.0374 14.514 46.9098 14.4053 46.7446C14.2966 46.5793 14.2422 46.3829 14.2422 46.1554H14.7727C14.7727 46.2815 14.8039 46.3916 14.8662 46.4858C14.93 46.5786 15.0169 46.6511 15.1271 46.7033C15.2373 46.7554 15.3626 46.7815 15.5032 46.7815C15.6583 46.7815 15.7902 46.7489 15.8989 46.6837C16.0077 46.6185 16.0903 46.5228 16.1468 46.3967C16.2048 46.2691 16.2338 46.1133 16.2338 45.9292V42.7462ZM19.1407 47.2685C18.8392 47.2685 18.5747 47.1968 18.3471 47.0533C18.121 46.9098 17.9441 46.7091 17.8166 46.451C17.6905 46.193 17.6274 45.8916 17.6274 45.5466C17.6274 45.1987 17.6905 44.895 17.8166 44.6356C17.9441 44.3761 18.121 44.1747 18.3471 44.0312C18.5747 43.8877 18.8392 43.8159 19.1407 43.8159C19.4422 43.8159 19.706 43.8877 19.9321 44.0312C20.1597 44.1747 20.3365 44.3761 20.4626 44.6356C20.5902 44.895 20.6539 45.1987 20.6539 45.5466C20.6539 45.8916 20.5902 46.193 20.4626 46.451C20.3365 46.7091 20.1597 46.9098 19.9321 47.0533C19.706 47.1968 19.4422 47.2685 19.1407 47.2685ZM19.1407 46.8076C19.3697 46.8076 19.5581 46.7489 19.706 46.6315C19.8538 46.5141 19.9633 46.3597 20.0343 46.1684C20.1053 45.9771 20.1408 45.7698 20.1408 45.5466C20.1408 45.3234 20.1053 45.1154 20.0343 44.9226C19.9633 44.7298 19.8538 44.574 19.706 44.4551C19.5581 44.3363 19.3697 44.2768 19.1407 44.2768C18.9117 44.2768 18.7232 44.3363 18.5754 44.4551C18.4275 44.574 18.3181 44.7298 18.2471 44.9226C18.1761 45.1154 18.1405 45.3234 18.1405 45.5466C18.1405 45.7698 18.1761 45.9771 18.2471 46.1684C18.3181 46.3597 18.4275 46.5141 18.5754 46.6315C18.7232 46.7489 18.9117 46.8076 19.1407 46.8076ZM21.5068 47.199V42.7462H22.0199V44.3899H22.0634C22.101 44.3319 22.1532 44.258 22.2199 44.1681C22.288 44.0768 22.3851 43.9956 22.5112 43.9246C22.6388 43.8521 22.8113 43.8159 23.0287 43.8159C23.3099 43.8159 23.5578 43.8862 23.7723 44.0268C23.9868 44.1674 24.1542 44.3667 24.2745 44.6247C24.3948 44.8827 24.455 45.1871 24.455 45.5379C24.455 45.8916 24.3948 46.1981 24.2745 46.4576C24.1542 46.7156 23.9875 46.9156 23.7745 47.0577C23.5614 47.1982 23.3157 47.2685 23.0374 47.2685C22.8229 47.2685 22.6511 47.233 22.5221 47.162C22.3931 47.0895 22.2938 47.0076 22.2242 46.9163C22.1547 46.8236 22.101 46.7467 22.0634 46.6859H22.0025V47.199H21.5068ZM22.0112 45.5292C22.0112 45.7814 22.0481 46.0039 22.1221 46.1967C22.196 46.388 22.304 46.538 22.446 46.6467C22.5881 46.754 22.762 46.8076 22.9678 46.8076C23.1823 46.8076 23.3614 46.7511 23.5049 46.638C23.6498 46.5235 23.7585 46.3699 23.831 46.1771C23.9049 45.9829 23.9419 45.7669 23.9419 45.5292C23.9419 45.2944 23.9056 45.0827 23.8332 44.8943C23.7621 44.7044 23.6542 44.5544 23.5092 44.4443C23.3657 44.3326 23.1852 44.2768 22.9678 44.2768C22.7591 44.2768 22.5837 44.3297 22.4417 44.4356C22.2996 44.5399 22.1924 44.6863 22.1199 44.8747C22.0474 45.0617 22.0112 45.2799 22.0112 45.5292ZM29.4665 43.8594C29.4404 43.6391 29.3346 43.468 29.1491 43.3463C28.9636 43.2245 28.736 43.1636 28.4664 43.1636C28.2693 43.1636 28.0968 43.1955 27.9489 43.2593C27.8025 43.3231 27.688 43.4108 27.6054 43.5224C27.5242 43.634 27.4837 43.7608 27.4837 43.9029C27.4837 44.0217 27.5119 44.1239 27.5684 44.2094C27.6264 44.2935 27.7003 44.3638 27.7902 44.4203C27.8801 44.4754 27.9743 44.5211 28.0729 44.5573C28.1714 44.5921 28.262 44.6204 28.3446 44.6421L28.7969 44.7639C28.9128 44.7943 29.0418 44.8363 29.1839 44.89C29.3274 44.9436 29.4644 45.0168 29.5948 45.1096C29.7267 45.2009 29.8354 45.3183 29.9209 45.4618C30.0065 45.6053 30.0492 45.7814 30.0492 45.9901C30.0492 46.2307 29.9862 46.4481 29.8601 46.6424C29.7354 46.8366 29.5528 46.991 29.3122 47.1055C29.073 47.22 28.7824 47.2772 28.4403 47.2772C28.1214 47.2772 27.8453 47.2258 27.6119 47.1229C27.38 47.02 27.1974 46.8765 27.064 46.6924C26.9321 46.5083 26.8575 46.2945 26.8401 46.051H27.3967C27.4112 46.2191 27.4677 46.3583 27.5663 46.4684C27.6663 46.5772 27.7924 46.6583 27.9446 46.712C28.0982 46.7641 28.2635 46.7902 28.4403 46.7902C28.6461 46.7902 28.8309 46.7569 28.9947 46.6902C29.1585 46.6221 29.2882 46.5279 29.3839 46.4076C29.4796 46.2858 29.5274 46.1438 29.5274 45.9814C29.5274 45.8336 29.4861 45.7133 29.4035 45.6205C29.3209 45.5277 29.2121 45.4524 29.0773 45.3944C28.9425 45.3364 28.7969 45.2857 28.6403 45.2422L28.0924 45.0856C27.7446 44.9856 27.4692 44.8429 27.2662 44.6573C27.0633 44.4718 26.9618 44.229 26.9618 43.929C26.9618 43.6797 27.0292 43.4622 27.164 43.2767C27.3003 43.0897 27.4829 42.9448 27.7119 42.8419C27.9424 42.7375 28.1997 42.6853 28.4838 42.6853C28.7708 42.6853 29.0259 42.7368 29.2491 42.8397C29.4723 42.9412 29.6492 43.0803 29.7796 43.2571C29.9115 43.434 29.9811 43.6347 29.9883 43.8594H29.4665ZM32.9708 45.8336V43.8594H33.4839V47.199H32.9708V46.6337H32.936C32.8577 46.8033 32.736 46.9475 32.5707 47.0663C32.4055 47.1838 32.1968 47.2425 31.9446 47.2425C31.7359 47.2425 31.5503 47.1968 31.388 47.1055C31.2256 47.0127 31.0981 46.8736 31.0053 46.688C30.9126 46.5011 30.8662 46.2655 30.8662 45.9814V43.8594H31.3793V45.9466C31.3793 46.1901 31.4474 46.3844 31.5837 46.5293C31.7214 46.6743 31.8967 46.7467 32.1098 46.7467C32.2374 46.7467 32.3671 46.7141 32.499 46.6489C32.6324 46.5837 32.744 46.4837 32.8338 46.3489C32.9251 46.2141 32.9708 46.0423 32.9708 45.8336ZM35.7804 47.2685C35.4673 47.2685 35.1977 47.1946 34.9716 47.0468C34.7455 46.8989 34.5716 46.6953 34.4498 46.4358C34.3281 46.1764 34.2672 45.88 34.2672 45.5466C34.2672 45.2074 34.3295 44.9081 34.4542 44.6486C34.5803 44.3877 34.7556 44.1841 34.9803 44.0377C35.2064 43.8898 35.4702 43.8159 35.7717 43.8159C36.0065 43.8159 36.2182 43.8594 36.4066 43.9464C36.595 44.0333 36.7494 44.1551 36.8697 44.3116C36.99 44.4682 37.0647 44.6508 37.0936 44.8595H36.5805C36.5414 44.7073 36.4544 44.5725 36.3196 44.4551C36.1863 44.3363 36.0065 44.2768 35.7804 44.2768C35.5804 44.2768 35.405 44.329 35.2543 44.4334C35.105 44.5363 34.9883 44.682 34.9042 44.8704C34.8216 45.0574 34.7803 45.277 34.7803 45.5292C34.7803 45.7872 34.8209 46.0119 34.902 46.2032C34.9847 46.3945 35.1006 46.5431 35.2499 46.6489C35.4007 46.7547 35.5775 46.8076 35.7804 46.8076C35.9138 46.8076 36.0348 46.7844 36.1435 46.738C36.2522 46.6917 36.3443 46.625 36.4196 46.538C36.495 46.451 36.5486 46.3467 36.5805 46.2249H37.0936C37.0647 46.4221 36.9929 46.5996 36.8784 46.7576C36.7653 46.9142 36.6153 47.0388 36.4283 47.1316C36.2428 47.2229 36.0268 47.2685 35.7804 47.2685ZM39.2004 47.2685C38.8874 47.2685 38.6178 47.1946 38.3916 47.0468C38.1655 46.8989 37.9916 46.6953 37.8698 46.4358C37.7481 46.1764 37.6872 45.88 37.6872 45.5466C37.6872 45.2074 37.7495 44.9081 37.8742 44.6486C38.0003 44.3877 38.1757 44.1841 38.4003 44.0377C38.6265 43.8898 38.8903 43.8159 39.1917 43.8159C39.4266 43.8159 39.6382 43.8594 39.8266 43.9464C40.015 44.0333 40.1694 44.1551 40.2897 44.3116C40.41 44.4682 40.4847 44.6508 40.5137 44.8595H40.0006C39.9614 44.7073 39.8744 44.5725 39.7396 44.4551C39.6063 44.3363 39.4266 44.2768 39.2004 44.2768C39.0004 44.2768 38.825 44.329 38.6743 44.4334C38.525 44.5363 38.4083 44.682 38.3242 44.8704C38.2416 45.0574 38.2003 45.277 38.2003 45.5292C38.2003 45.7872 38.2409 46.0119 38.3221 46.2032C38.4047 46.3945 38.5206 46.5431 38.6699 46.6489C38.8207 46.7547 38.9975 46.8076 39.2004 46.8076C39.3338 46.8076 39.4548 46.7844 39.5635 46.738C39.6722 46.6917 39.7643 46.625 39.8397 46.538C39.915 46.451 39.9687 46.3467 40.0006 46.2249H40.5137C40.4847 46.4221 40.4129 46.5996 40.2984 46.7576C40.1854 46.9142 40.0353 47.0388 39.8484 47.1316C39.6628 47.2229 39.4469 47.2685 39.2004 47.2685ZM42.664 47.2685C42.3422 47.2685 42.0646 47.1975 41.8312 47.0555C41.5993 46.912 41.4203 46.712 41.2942 46.4554C41.1696 46.1974 41.1072 45.8974 41.1072 45.5553C41.1072 45.2132 41.1696 44.9117 41.2942 44.6508C41.4203 44.3885 41.5957 44.1841 41.8204 44.0377C42.0465 43.8898 42.3103 43.8159 42.6118 43.8159C42.7857 43.8159 42.9575 43.8449 43.1271 43.9029C43.2966 43.9609 43.451 44.0551 43.5902 44.1855C43.7293 44.3145 43.8402 44.4856 43.9228 44.6986C44.0054 44.9117 44.0467 45.1741 44.0467 45.4857V45.7031H41.4725V45.2596H43.5249C43.5249 45.0712 43.4873 44.903 43.4119 44.7552C43.338 44.6073 43.2321 44.4906 43.0944 44.4051C42.9582 44.3196 42.7973 44.2768 42.6118 44.2768C42.4074 44.2768 42.2306 44.3276 42.0813 44.429C41.9334 44.5291 41.8196 44.6595 41.7399 44.8204C41.6602 44.9813 41.6203 45.1538 41.6203 45.3379V45.6335C41.6203 45.8858 41.6638 46.0996 41.7508 46.2749C41.8392 46.4489 41.9617 46.5815 42.1182 46.6728C42.2748 46.7627 42.4567 46.8076 42.664 46.8076C42.7988 46.8076 42.9205 46.7888 43.0292 46.7511C43.1394 46.712 43.2343 46.654 43.314 46.5772C43.3938 46.4989 43.4554 46.4018 43.4988 46.2858L43.9946 46.425C43.9424 46.5931 43.8547 46.7409 43.7315 46.8685C43.6083 46.9946 43.4561 47.0932 43.2749 47.1642C43.0937 47.2338 42.8901 47.2685 42.664 47.2685ZM47.1928 44.6073L46.7319 44.7378C46.7029 44.661 46.6601 44.5863 46.6036 44.5138C46.5485 44.4399 46.4732 44.379 46.3775 44.3312C46.2818 44.2834 46.1594 44.2594 46.0101 44.2594C45.8057 44.2594 45.6354 44.3066 45.4991 44.4008C45.3643 44.4935 45.2969 44.6117 45.2969 44.7552C45.2969 44.8827 45.3433 44.9835 45.4361 45.0574C45.5288 45.1313 45.6738 45.1929 45.8709 45.2422L46.3666 45.3639C46.6652 45.4364 46.8877 45.5473 47.0341 45.6966C47.1805 45.8444 47.2537 46.035 47.2537 46.2684C47.2537 46.4597 47.1986 46.6308 47.0885 46.7815C46.9798 46.9323 46.8276 47.0511 46.6319 47.1381C46.4362 47.2251 46.2086 47.2685 45.9492 47.2685C45.6086 47.2685 45.3266 47.1946 45.1034 47.0468C44.8802 46.8989 44.7389 46.683 44.6794 46.3989L45.1665 46.2771C45.2128 46.4568 45.3005 46.5916 45.4295 46.6815C45.56 46.7714 45.7303 46.8163 45.9405 46.8163C46.1796 46.8163 46.3695 46.7656 46.5101 46.6641C46.6522 46.5612 46.7232 46.438 46.7232 46.2945C46.7232 46.1785 46.6826 46.0814 46.6014 46.0032C46.5203 45.9234 46.3956 45.864 46.2275 45.8249L45.6709 45.6944C45.365 45.622 45.1404 45.5096 44.9969 45.3574C44.8548 45.2038 44.7838 45.0117 44.7838 44.7813C44.7838 44.5928 44.8367 44.4261 44.9425 44.2812C45.0498 44.1362 45.1955 44.0225 45.3795 43.9398C45.5651 43.8572 45.7752 43.8159 46.0101 43.8159C46.3405 43.8159 46.6 43.8884 46.7884 44.0333C46.9783 44.1783 47.1131 44.3696 47.1928 44.6073ZM50.3916 44.6073L49.9307 44.7378C49.9017 44.661 49.8589 44.5863 49.8024 44.5138C49.7473 44.4399 49.672 44.379 49.5763 44.3312C49.4806 44.2834 49.3582 44.2594 49.2089 44.2594C49.0045 44.2594 48.8342 44.3066 48.6979 44.4008C48.5631 44.4935 48.4957 44.6117 48.4957 44.7552C48.4957 44.8827 48.5421 44.9835 48.6349 45.0574C48.7276 45.1313 48.8726 45.1929 49.0697 45.2422L49.5654 45.3639C49.864 45.4364 50.0865 45.5473 50.2329 45.6966C50.3793 45.8444 50.4525 46.035 50.4525 46.2684C50.4525 46.4597 50.3974 46.6308 50.2873 46.7815C50.1786 46.9323 50.0264 47.0511 49.8307 47.1381C49.635 47.2251 49.4074 47.2685 49.148 47.2685C48.8074 47.2685 48.5254 47.1946 48.3022 47.0468C48.079 46.8989 47.9377 46.683 47.8782 46.3989L48.3653 46.2771C48.4116 46.4568 48.4993 46.5916 48.6283 46.6815C48.7588 46.7714 48.9291 46.8163 49.1393 46.8163C49.3784 46.8163 49.5683 46.7656 49.7089 46.6641C49.851 46.5612 49.922 46.438 49.922 46.2945C49.922 46.1785 49.8814 46.0814 49.8002 46.0032C49.7191 45.9234 49.5944 45.864 49.4263 45.8249L48.8697 45.6944C48.5638 45.622 48.3392 45.5096 48.1957 45.3574C48.0536 45.2038 47.9826 45.0117 47.9826 44.7813C47.9826 44.5928 48.0355 44.4261 48.1413 44.2812C48.2486 44.1362 48.3943 44.0225 48.5783 43.9398C48.7639 43.8572 48.974 43.8159 49.2089 43.8159C49.5393 43.8159 49.7988 43.8884 49.9872 44.0333C50.1771 44.1783 50.3119 44.3696 50.3916 44.6073Z" fill="#686868"/>
<path d="M70.539 17.8975V13.4447H72.0435C72.3928 13.4447 72.6784 13.5077 72.9001 13.6338C73.1234 13.7585 73.2886 13.9274 73.3959 14.1404C73.5031 14.3535 73.5568 14.5912 73.5568 14.8536C73.5568 15.1159 73.5031 15.3544 73.3959 15.5689C73.2901 15.7834 73.1263 15.9544 72.9045 16.082C72.6827 16.2081 72.3986 16.2712 72.0522 16.2712H70.9738V15.7928H72.0348C72.274 15.7928 72.466 15.7515 72.611 15.6689C72.7559 15.5863 72.861 15.4747 72.9262 15.3341C72.9929 15.192 73.0262 15.0319 73.0262 14.8536C73.0262 14.6753 72.9929 14.5158 72.9262 14.3752C72.861 14.2346 72.7552 14.1245 72.6088 14.0448C72.4624 13.9636 72.2682 13.923 72.0261 13.923H71.0782V17.8975H70.539ZM75.3385 17.9757C75.1269 17.9757 74.9348 17.9359 74.7624 17.8562C74.5899 17.775 74.4529 17.6583 74.3514 17.5061C74.25 17.3525 74.1992 17.1669 74.1992 16.9495C74.1992 16.7582 74.2369 16.6031 74.3123 16.4842C74.3877 16.3639 74.4884 16.2697 74.6145 16.2016C74.7406 16.1335 74.8798 16.0827 75.032 16.0494C75.1856 16.0146 75.34 15.9871 75.4951 15.9668C75.698 15.9407 75.8625 15.9211 75.9886 15.9081C76.1162 15.8936 76.2089 15.8697 76.2669 15.8363C76.3263 15.803 76.356 15.745 76.356 15.6624V15.645C76.356 15.4305 76.2973 15.2638 76.1799 15.1449C76.064 15.0261 75.8879 14.9666 75.6516 14.9666C75.4066 14.9666 75.2146 15.0203 75.0754 15.1275C74.9363 15.2348 74.8384 15.3493 74.7819 15.471L74.2949 15.2971C74.3819 15.0942 74.4978 14.9362 74.6428 14.8231C74.7892 14.7086 74.9486 14.6289 75.1211 14.584C75.295 14.5376 75.4661 14.5144 75.6342 14.5144C75.7415 14.5144 75.8647 14.5274 76.0038 14.5535C76.1444 14.5782 76.2799 14.6296 76.4104 14.7079C76.5423 14.7862 76.6517 14.9043 76.7387 15.0623C76.8257 15.2203 76.8692 15.4319 76.8692 15.6972V17.8975H76.356V17.4452H76.33C76.2952 17.5177 76.2372 17.5952 76.156 17.6779C76.0748 17.7605 75.9669 17.8308 75.8321 17.8888C75.6973 17.9467 75.5327 17.9757 75.3385 17.9757ZM75.4168 17.5148C75.6197 17.5148 75.7908 17.4749 75.9299 17.3952C76.0705 17.3155 76.1763 17.2126 76.2473 17.0865C76.3198 16.9604 76.356 16.8278 76.356 16.6886V16.219C76.3343 16.2451 76.2865 16.269 76.2125 16.2907C76.1401 16.311 76.056 16.3291 75.9603 16.3451C75.8661 16.3596 75.7741 16.3726 75.6842 16.3842C75.5958 16.3944 75.524 16.4031 75.469 16.4103C75.3356 16.4277 75.211 16.456 75.095 16.4951C74.9805 16.5328 74.8877 16.59 74.8167 16.6669C74.7471 16.7422 74.7123 16.8451 74.7123 16.9756C74.7123 17.1539 74.7783 17.2887 74.9102 17.38C75.0436 17.4699 75.2124 17.5148 75.4168 17.5148ZM78.0166 19.1498C77.9296 19.1498 77.8521 19.1426 77.784 19.1281C77.7158 19.115 77.6687 19.102 77.6426 19.0889L77.7731 18.6367C77.8977 18.6686 78.0079 18.6802 78.1036 18.6715C78.1992 18.6628 78.284 18.62 78.3579 18.5432C78.4333 18.4678 78.5022 18.3453 78.5645 18.1758L78.6602 17.9149L77.4252 14.5579H77.9818L78.9037 17.2191H78.9385L79.8603 14.5579H80.4169L78.9993 18.3845C78.9356 18.557 78.8566 18.6997 78.7623 18.8128C78.6681 18.9273 78.5587 19.0121 78.434 19.0672C78.3108 19.1223 78.1717 19.1498 78.0166 19.1498ZM81.0942 17.8975V14.5579H81.5899V15.0797H81.6334C81.703 14.9014 81.8153 14.763 81.9704 14.6644C82.1255 14.5644 82.3117 14.5144 82.5292 14.5144C82.7495 14.5144 82.9328 14.5644 83.0792 14.6644C83.2271 14.763 83.3423 14.9014 83.4249 15.0797H83.4597C83.5452 14.9072 83.6735 14.7702 83.8446 14.6688C84.0156 14.5659 84.2207 14.5144 84.4599 14.5144C84.7584 14.5144 85.0027 14.6079 85.1926 14.7949C85.3824 14.9804 85.4774 15.2696 85.4774 15.6624V17.8975H84.9643V15.6624C84.9643 15.416 84.8969 15.2399 84.7621 15.134C84.6273 15.0282 84.4685 14.9753 84.2859 14.9753C84.0511 14.9753 83.8692 15.0464 83.7402 15.1884C83.6112 15.329 83.5467 15.5073 83.5467 15.7233V17.8975H83.0249V15.6102C83.0249 15.4203 82.9633 15.2674 82.8401 15.1514C82.7169 15.034 82.5581 14.9753 82.3639 14.9753C82.2306 14.9753 82.1059 15.0108 81.99 15.0819C81.8754 15.1529 81.7827 15.2515 81.7117 15.3776C81.6421 15.5022 81.6073 15.6464 81.6073 15.8102V17.8975H81.0942ZM87.8157 17.967C87.494 17.967 87.2164 17.896 86.983 17.754C86.7511 17.6105 86.5721 17.4104 86.446 17.1539C86.3213 16.8959 86.259 16.5958 86.259 16.2538C86.259 15.9117 86.3213 15.6102 86.446 15.3493C86.5721 15.0869 86.7475 14.8826 86.9721 14.7362C87.1983 14.5883 87.4621 14.5144 87.7636 14.5144C87.9375 14.5144 88.1093 14.5434 88.2788 14.6014C88.4484 14.6593 88.6028 14.7536 88.742 14.884C88.8811 15.013 88.992 15.1841 89.0746 15.3971C89.1572 15.6102 89.1985 15.8726 89.1985 16.1842V16.4016H86.6243V15.9581H88.6767C88.6767 15.7696 88.639 15.6015 88.5637 15.4537C88.4897 15.3058 88.3839 15.1891 88.2462 15.1036C88.11 15.0181 87.9491 14.9753 87.7636 14.9753C87.5592 14.9753 87.3823 15.0261 87.2331 15.1275C87.0852 15.2275 86.9714 15.358 86.8917 15.5189C86.812 15.6798 86.7721 15.8523 86.7721 16.0363V16.332C86.7721 16.5842 86.8156 16.798 86.9026 16.9734C86.991 17.1474 87.1135 17.28 87.27 17.3713C87.4266 17.4612 87.6085 17.5061 87.8157 17.5061C87.9505 17.5061 88.0723 17.4873 88.181 17.4496C88.2912 17.4104 88.3861 17.3525 88.4658 17.2756C88.5455 17.1974 88.6071 17.1003 88.6506 16.9843L89.1464 17.1234C89.0942 17.2916 89.0065 17.4394 88.8833 17.567C88.7601 17.6931 88.6079 17.7916 88.4267 17.8627C88.2455 17.9322 88.0419 17.967 87.8157 17.967ZM90.4922 15.8885V17.8975H89.9791V14.5579H90.4748V15.0797H90.5183C90.5965 14.9101 90.7154 14.7739 90.8748 14.6709C91.0343 14.5666 91.2401 14.5144 91.4923 14.5144C91.7184 14.5144 91.9163 14.5608 92.0859 14.6535C92.2555 14.7449 92.3874 14.884 92.4816 15.071C92.5758 15.2565 92.6229 15.4913 92.6229 15.7754V17.8975H92.1098V15.8102C92.1098 15.5479 92.0417 15.3435 91.9054 15.1971C91.7692 15.0493 91.5822 14.9753 91.3445 14.9753C91.1807 14.9753 91.0343 15.0108 90.9053 15.0819C90.7777 15.1529 90.677 15.2565 90.6031 15.3928C90.5291 15.529 90.4922 15.6943 90.4922 15.8885ZM95.0129 14.5579V14.9927H93.2822V14.5579H95.0129ZM93.7866 13.7578H94.2998V16.9408C94.2998 17.0858 94.3208 17.1945 94.3628 17.2669C94.4063 17.338 94.4614 17.3858 94.5281 17.4104C94.5962 17.4336 94.6679 17.4452 94.7433 17.4452C94.7998 17.4452 94.8462 17.4423 94.8824 17.4365C94.9187 17.4293 94.9477 17.4235 94.9694 17.4191L95.0738 17.8801C95.039 17.8931 94.9904 17.9062 94.9281 17.9192C94.8658 17.9337 94.7868 17.9409 94.6911 17.9409C94.5462 17.9409 94.4041 17.9098 94.265 17.8475C94.1273 17.7851 94.0128 17.6902 93.9215 17.5626C93.8316 17.4351 93.7866 17.2742 93.7866 17.08V13.7578Z" fill="#686868"/>
<path d="M70.2954 43.6615V43.1832H73.635V43.6615H72.2348V47.636H71.6956V43.6615H70.2954ZM74.3976 47.636V44.2964H74.9107V47.636H74.3976ZM74.6585 43.7398C74.5585 43.7398 74.4723 43.7057 74.3998 43.6376C74.3288 43.5695 74.2933 43.4876 74.2933 43.3919C74.2933 43.2963 74.3288 43.2144 74.3998 43.1463C74.4723 43.0781 74.5585 43.0441 74.6585 43.0441C74.7585 43.0441 74.8441 43.0781 74.9151 43.1463C74.9876 43.2144 75.0238 43.2963 75.0238 43.3919C75.0238 43.4876 74.9876 43.5695 74.9151 43.6376C74.8441 43.7057 74.7585 43.7398 74.6585 43.7398ZM75.8505 47.636V44.2964H76.3463V44.8182H76.3897C76.4593 44.6399 76.5717 44.5015 76.7267 44.4029C76.8818 44.3029 77.0681 44.2529 77.2855 44.2529C77.5058 44.2529 77.6892 44.3029 77.8356 44.4029C77.9834 44.5015 78.0987 44.6399 78.1813 44.8182H78.2161C78.3016 44.6457 78.4299 44.5088 78.6009 44.4073C78.772 44.3044 78.9771 44.2529 79.2162 44.2529C79.5148 44.2529 79.759 44.3464 79.9489 44.5334C80.1388 44.7189 80.2337 45.0081 80.2337 45.4009V47.636H79.7206V45.4009C79.7206 45.1545 79.6532 44.9784 79.5184 44.8726C79.3836 44.7668 79.2249 44.7139 79.0423 44.7139C78.8075 44.7139 78.6256 44.7849 78.4966 44.9269C78.3675 45.0675 78.303 45.2458 78.303 45.4618V47.636H77.7812V45.3487C77.7812 45.1588 77.7196 45.0059 77.5964 44.89C77.4732 44.7726 77.3145 44.7139 77.1203 44.7139C76.9869 44.7139 76.8623 44.7494 76.7463 44.8204C76.6318 44.8914 76.539 44.99 76.468 45.1161C76.3984 45.2407 76.3637 45.385 76.3637 45.5487V47.636H75.8505ZM82.5721 47.7056C82.2503 47.7056 81.9727 47.6345 81.7394 47.4925C81.5075 47.349 81.3285 47.149 81.2023 46.8924C81.0777 46.6344 81.0154 46.3344 81.0154 45.9923C81.0154 45.6502 81.0777 45.3487 81.2023 45.0878C81.3285 44.8255 81.5038 44.6211 81.7285 44.4747C81.9546 44.3268 82.2184 44.2529 82.5199 44.2529C82.6939 44.2529 82.8656 44.2819 83.0352 44.3399C83.2048 44.3979 83.3592 44.4921 83.4983 44.6225C83.6375 44.7515 83.7483 44.9226 83.831 45.1357C83.9136 45.3487 83.9549 45.6111 83.9549 45.9227V46.1401H81.3806V45.6966H83.4331C83.4331 45.5082 83.3954 45.34 83.32 45.1922C83.2461 45.0443 83.1403 44.9277 83.0026 44.8421C82.8663 44.7566 82.7054 44.7139 82.5199 44.7139C82.3155 44.7139 82.1387 44.7646 81.9894 44.866C81.8416 44.9661 81.7278 45.0965 81.6481 45.2574C81.5683 45.4183 81.5285 45.5908 81.5285 45.7749V46.0706C81.5285 46.3228 81.572 46.5366 81.6589 46.7119C81.7474 46.8859 81.8698 47.0185 82.0264 47.1098C82.1829 47.1997 82.3648 47.2446 82.5721 47.2446C82.7069 47.2446 82.8287 47.2258 82.9374 47.1881C83.0475 47.149 83.1425 47.091 83.2222 47.0142C83.3019 46.9359 83.3635 46.8388 83.407 46.7228L83.9027 46.862C83.8505 47.0301 83.7628 47.178 83.6396 47.3055C83.5164 47.4316 83.3642 47.5302 83.1831 47.6012C83.0019 47.6708 82.7982 47.7056 82.5721 47.7056ZM86.3617 47.636V47.2446L88.2576 44.8095V44.7747H86.4226V44.2964H88.9186V44.7052L87.0749 47.1229V47.1577H88.9795V47.636H86.3617ZM91.0308 47.7056C90.7294 47.7056 90.4648 47.6338 90.2373 47.4903C90.0111 47.3468 89.8343 47.1461 89.7068 46.8881C89.5806 46.6301 89.5176 46.3286 89.5176 45.9836C89.5176 45.6357 89.5806 45.3321 89.7068 45.0726C89.8343 44.8131 90.0111 44.6117 90.2373 44.4682C90.4648 44.3247 90.7294 44.2529 91.0308 44.2529C91.3323 44.2529 91.5961 44.3247 91.8223 44.4682C92.0498 44.6117 92.2267 44.8131 92.3528 45.0726C92.4803 45.3321 92.5441 45.6357 92.5441 45.9836C92.5441 46.3286 92.4803 46.6301 92.3528 46.8881C92.2267 47.1461 92.0498 47.3468 91.8223 47.4903C91.5961 47.6338 91.3323 47.7056 91.0308 47.7056ZM91.0308 47.2446C91.2599 47.2446 91.4483 47.1859 91.5961 47.0685C91.744 46.9511 91.8534 46.7967 91.9244 46.6054C91.9955 46.4141 92.031 46.2068 92.031 45.9836C92.031 45.7604 91.9955 45.5524 91.9244 45.3596C91.8534 45.1668 91.744 45.011 91.5961 44.8921C91.4483 44.7733 91.2599 44.7139 91.0308 44.7139C90.8018 44.7139 90.6134 44.7733 90.4656 44.8921C90.3177 45.011 90.2083 45.1668 90.1372 45.3596C90.0662 45.5524 90.0307 45.7604 90.0307 45.9836C90.0307 46.2068 90.0662 46.4141 90.1372 46.6054C90.2083 46.7967 90.3177 46.9511 90.4656 47.0685C90.6134 47.1859 90.8018 47.2446 91.0308 47.2446ZM93.8405 45.627V47.636H93.3273V44.2964H93.8231V44.8182H93.8666C93.9448 44.6486 94.0637 44.5124 94.2231 44.4095C94.3826 44.3051 94.5884 44.2529 94.8406 44.2529C95.0667 44.2529 95.2646 44.2993 95.4342 44.3921C95.6037 44.4834 95.7356 44.6225 95.8299 44.8095C95.9241 44.9951 95.9712 45.2299 95.9712 45.514V47.636H95.4581V45.5487C95.4581 45.2864 95.3899 45.082 95.2537 44.9356C95.1174 44.7878 94.9305 44.7139 94.6928 44.7139C94.529 44.7139 94.3826 44.7494 94.2536 44.8204C94.126 44.8914 94.0253 44.9951 93.9513 45.1313C93.8774 45.2676 93.8405 45.4328 93.8405 45.627ZM98.309 47.7056C97.9872 47.7056 97.7096 47.6345 97.4763 47.4925C97.2444 47.349 97.0654 47.149 96.9392 46.8924C96.8146 46.6344 96.7523 46.3344 96.7523 45.9923C96.7523 45.6502 96.8146 45.3487 96.9392 45.0878C97.0654 44.8255 97.2407 44.6211 97.4654 44.4747C97.6915 44.3268 97.9553 44.2529 98.2568 44.2529C98.4308 44.2529 98.6025 44.2819 98.7721 44.3399C98.9417 44.3979 99.0961 44.4921 99.2352 44.6225C99.3744 44.7515 99.4852 44.9226 99.5679 45.1357C99.6505 45.3487 99.6918 45.6111 99.6918 45.9227V46.1401H97.1175V45.6966H99.17C99.17 45.5082 99.1323 45.34 99.0569 45.1922C98.983 45.0443 98.8772 44.9277 98.7395 44.8421C98.6032 44.7566 98.4423 44.7139 98.2568 44.7139C98.0524 44.7139 97.8756 44.7646 97.7263 44.866C97.5785 44.9661 97.4647 45.0965 97.385 45.2574C97.3052 45.4183 97.2654 45.5908 97.2654 45.7749V46.0706C97.2654 46.3228 97.3089 46.5366 97.3958 46.7119C97.4842 46.8859 97.6067 47.0185 97.7633 47.1098C97.9198 47.1997 98.1017 47.2446 98.309 47.2446C98.4438 47.2446 98.5656 47.2258 98.6743 47.1881C98.7844 47.149 98.8794 47.091 98.9591 47.0142C99.0388 46.9359 99.1004 46.8388 99.1439 46.7228L99.6396 46.862C99.5874 47.0301 99.4997 47.178 99.3765 47.3055C99.2533 47.4316 99.1011 47.5302 98.9199 47.6012C98.7388 47.6708 98.5351 47.7056 98.309 47.7056Z" fill="#686868"/>
<rect x="13.9944" y="22.9944" width="33" height="4" rx="2" fill="#D6DFEC"/>
<rect x="13.9944" y="52.9944" width="33" height="4" rx="2" fill="#D6DFEC"/>
<rect x="69.9998" y="24" width="39" height="4" rx="2" fill="#D6DFEC"/>
<rect x="69.9998" y="53" width="39" height="4" rx="2" fill="#D6DFEC"/>
</svg>
