<svg width="381" height="104" viewBox="0 0 381 104" fill="none" xmlns="http://www.w3.org/2000/svg">
<g filter="url(#filter0_d_427_12627)">
<rect x="19" y="20" width="333" height="56" rx="8" fill="white"/>
<rect x="76" y="57" width="77" height="4" rx="2" fill="#D6DFEC"/>
<g clip-path="url(#clip0_427_12627)">
<rect x="31" y="32" width="32.8511" height="32.8511" fill="#D6DFEC"/>
<rect x="40.0212" y="57.9143" width="17.8723" height="25.0213" transform="rotate(-45 40.0212 57.9143)" fill="#A6B9DF"/>
<rect x="17.5532" y="63.1909" width="17.8723" height="25.0213" transform="rotate(-45 17.5532 63.1909)" fill="#A6B9DF"/>
<circle cx="37.2979" cy="47.1488" r="2.38298" fill="#A6B9DF"/>
</g>
<circle cx="62" cy="62" r="7" fill="#F6652F" stroke="white" stroke-width="2"/>
<path d="M301.753 41V40.3608L304.153 37.733C304.435 37.4252 304.667 37.1577 304.849 36.9304C305.032 36.7008 305.167 36.4853 305.254 36.2841C305.344 36.0805 305.389 35.8674 305.389 35.6449C305.389 35.3892 305.328 35.1679 305.205 34.9808C305.084 34.7938 304.918 34.6494 304.707 34.5476C304.497 34.4458 304.26 34.3949 303.997 34.3949C303.718 34.3949 303.474 34.4529 303.266 34.5689C303.06 34.6825 302.9 34.8423 302.786 35.0483C302.675 35.2543 302.619 35.4957 302.619 35.7727H301.781C301.781 35.3466 301.879 34.9725 302.076 34.6506C302.272 34.3286 302.54 34.0777 302.879 33.8977C303.219 33.7178 303.602 33.6278 304.026 33.6278C304.452 33.6278 304.829 33.7178 305.158 33.8977C305.487 34.0777 305.746 34.3203 305.933 34.6257C306.12 34.9311 306.213 35.2708 306.213 35.6449C306.213 35.9124 306.165 36.174 306.067 36.4297C305.973 36.683 305.807 36.9659 305.57 37.2784C305.336 37.5885 305.01 37.9673 304.594 38.4148L302.96 40.1619V40.2188H306.341V41H301.753ZM308.66 37.7188V41H307.822V33.7273H308.66V36.3977H308.731C308.859 36.116 309.05 35.8923 309.306 35.7266C309.564 35.5585 309.907 35.4744 310.336 35.4744C310.708 35.4744 311.033 35.549 311.312 35.6982C311.592 35.8449 311.808 36.071 311.962 36.3764C312.119 36.6795 312.197 37.0653 312.197 37.5341V41H311.359V37.5909C311.359 37.1577 311.246 36.8227 311.021 36.5859C310.799 36.3468 310.49 36.2273 310.094 36.2273C309.82 36.2273 309.574 36.2853 309.356 36.4013C309.14 36.5173 308.97 36.6866 308.844 36.9091C308.721 37.1316 308.66 37.4015 308.66 37.7188ZM318.148 41.1278C317.802 41.1278 317.488 41.0627 317.206 40.9325C316.925 40.8 316.701 40.6094 316.535 40.3608C316.37 40.1098 316.287 39.8068 316.287 39.4517C316.287 39.1392 316.348 38.8859 316.471 38.6918C316.595 38.4953 316.759 38.3414 316.965 38.2301C317.171 38.1188 317.398 38.036 317.647 37.9815C317.898 37.9247 318.15 37.8797 318.403 37.8466C318.735 37.804 319.003 37.772 319.209 37.7507C319.418 37.727 319.569 37.688 319.664 37.6335C319.761 37.5791 319.809 37.4844 319.809 37.3494V37.321C319.809 36.9706 319.714 36.6984 319.522 36.5043C319.332 36.3101 319.045 36.2131 318.659 36.2131C318.259 36.2131 317.945 36.3007 317.718 36.4759C317.491 36.651 317.331 36.8381 317.238 37.0369L316.443 36.7528C316.585 36.4214 316.774 36.1634 317.011 35.9787C317.25 35.7917 317.511 35.6615 317.792 35.5881C318.077 35.5123 318.356 35.4744 318.631 35.4744C318.806 35.4744 319.007 35.4957 319.234 35.5384C319.464 35.5786 319.685 35.6626 319.898 35.7905C320.114 35.9183 320.292 36.1113 320.434 36.3693C320.577 36.6274 320.648 36.973 320.648 37.4062V41H319.809V40.2614H319.767C319.71 40.3797 319.615 40.5064 319.483 40.6413C319.35 40.7763 319.174 40.8911 318.954 40.9858C318.733 41.0805 318.465 41.1278 318.148 41.1278ZM318.275 40.375C318.607 40.375 318.886 40.3099 319.113 40.1797C319.343 40.0495 319.516 39.8814 319.632 39.6754C319.75 39.4695 319.809 39.2528 319.809 39.0256V38.2585C319.774 38.3011 319.696 38.3402 319.575 38.3757C319.457 38.4089 319.319 38.4384 319.163 38.4645C319.009 38.4882 318.859 38.5095 318.712 38.5284C318.568 38.545 318.451 38.5592 318.361 38.571C318.143 38.5994 317.939 38.6456 317.75 38.7095C317.563 38.7711 317.411 38.8646 317.295 38.9901C317.182 39.1132 317.125 39.2812 317.125 39.4943C317.125 39.7855 317.233 40.0057 317.448 40.1548C317.666 40.3016 317.942 40.375 318.275 40.375ZM324.379 43.1591C323.974 43.1591 323.626 43.107 323.335 43.0028C323.044 42.901 322.801 42.7661 322.607 42.598C322.415 42.4323 322.262 42.2547 322.149 42.0653L322.816 41.5966C322.892 41.696 322.988 41.8097 323.104 41.9375C323.22 42.0677 323.379 42.1802 323.58 42.2749C323.783 42.3719 324.05 42.4205 324.379 42.4205C324.819 42.4205 325.183 42.3139 325.469 42.1009C325.756 41.8878 325.899 41.554 325.899 41.0994V39.9915H325.828C325.766 40.0909 325.679 40.214 325.565 40.3608C325.454 40.5052 325.293 40.6342 325.082 40.7479C324.874 40.8591 324.592 40.9148 324.237 40.9148C323.797 40.9148 323.401 40.8106 323.051 40.6023C322.703 40.3939 322.427 40.0909 322.223 39.6932C322.022 39.2955 321.922 38.8125 321.922 38.2443C321.922 37.6856 322.02 37.1991 322.216 36.7848C322.413 36.3681 322.686 36.0462 323.037 35.8189C323.387 35.5893 323.792 35.4744 324.251 35.4744C324.606 35.4744 324.888 35.5336 325.096 35.652C325.307 35.768 325.468 35.9006 325.579 36.0497C325.693 36.1965 325.78 36.3172 325.842 36.4119H325.927V35.5455H326.737V41.1562C326.737 41.625 326.63 42.0062 326.417 42.2997C326.207 42.5956 325.922 42.8123 325.565 42.9496C325.21 43.0893 324.815 43.1591 324.379 43.1591ZM324.35 40.1619C324.687 40.1619 324.971 40.085 325.203 39.9311C325.435 39.7772 325.611 39.5559 325.732 39.267C325.853 38.9782 325.913 38.6326 325.913 38.2301C325.913 37.8371 325.854 37.4903 325.735 37.1896C325.617 36.889 325.442 36.6534 325.21 36.483C324.978 36.3125 324.691 36.2273 324.35 36.2273C323.995 36.2273 323.699 36.3172 323.463 36.4972C323.228 36.6771 323.052 36.9186 322.934 37.2216C322.818 37.5246 322.76 37.8608 322.76 38.2301C322.76 38.6089 322.819 38.9439 322.937 39.2351C323.058 39.5239 323.235 39.7512 323.47 39.9169C323.707 40.0803 324 40.1619 324.35 40.1619ZM330.487 41.1136C329.994 41.1136 329.562 40.9964 329.191 40.7621C328.821 40.5277 328.533 40.1998 328.324 39.7784C328.118 39.357 328.015 38.8646 328.015 38.3011C328.015 37.733 328.118 37.237 328.324 36.8132C328.533 36.3894 328.821 36.0604 329.191 35.826C329.562 35.5916 329.994 35.4744 330.487 35.4744C330.979 35.4744 331.41 35.5916 331.779 35.826C332.151 36.0604 332.44 36.3894 332.646 36.8132C332.854 37.237 332.958 37.733 332.958 38.3011C332.958 38.8646 332.854 39.357 332.646 39.7784C332.44 40.1998 332.151 40.5277 331.779 40.7621C331.41 40.9964 330.979 41.1136 330.487 41.1136ZM330.487 40.3608C330.861 40.3608 331.169 40.2649 331.41 40.0732C331.652 39.8814 331.83 39.6293 331.946 39.3168C332.062 39.0043 332.12 38.6657 332.12 38.3011C332.12 37.9366 332.062 37.5968 331.946 37.282C331.83 36.9671 331.652 36.7126 331.41 36.5185C331.169 36.3243 330.861 36.2273 330.487 36.2273C330.113 36.2273 329.805 36.3243 329.564 36.5185C329.322 36.7126 329.143 36.9671 329.027 37.282C328.911 37.5968 328.853 37.9366 328.853 38.3011C328.853 38.6657 328.911 39.0043 329.027 39.3168C329.143 39.6293 329.322 39.8814 329.564 40.0732C329.805 40.2649 330.113 40.3608 330.487 40.3608Z" fill="#7E7E7E"/>
<path d="M79.926 45.37V38.492H81.4865V45.37H79.926ZM77.2673 42.7112V41.1508H84.1452V42.7112H77.2673ZM90.4603 36.8222V47H88.6166V38.6163H88.557L86.1765 40.137V38.4473L88.7061 36.8222H90.4603ZM105.327 40.2562H103.468C103.415 39.9514 103.318 39.6814 103.175 39.4462C103.033 39.2076 102.855 39.0055 102.643 38.8399C102.431 38.6742 102.189 38.55 101.918 38.4672C101.649 38.381 101.36 38.338 101.048 38.338C100.495 38.338 100.004 38.4771 99.5771 38.7554C99.1497 39.0304 98.8151 39.4346 98.5732 39.968C98.3314 40.4981 98.2104 41.1458 98.2104 41.9111C98.2104 42.6897 98.3314 43.3457 98.5732 43.8791C98.8184 44.4092 99.153 44.8101 99.5771 45.0817C100.004 45.3501 100.493 45.4843 101.043 45.4843C101.348 45.4843 101.633 45.4445 101.898 45.365C102.166 45.2822 102.406 45.1612 102.618 45.0022C102.834 44.8432 103.014 44.6477 103.16 44.4158C103.309 44.1839 103.412 43.9188 103.468 43.6207L105.327 43.6306C105.257 44.1143 105.107 44.5682 104.875 44.9923C104.646 45.4164 104.346 45.7907 103.975 46.1154C103.604 46.4368 103.17 46.6886 102.673 46.8708C102.176 47.0497 101.625 47.1391 101.018 47.1391C100.124 47.1391 99.3253 46.9321 98.6229 46.5179C97.9205 46.1038 97.3673 45.5058 96.9631 44.7239C96.5589 43.942 96.3568 43.0044 96.3568 41.9111C96.3568 40.8145 96.5605 39.8769 96.968 39.0983C97.3755 38.3164 97.9305 37.7184 98.6329 37.3043C99.3352 36.8902 100.13 36.6831 101.018 36.6831C101.585 36.6831 102.112 36.7626 102.599 36.9216C103.086 37.0807 103.52 37.3142 103.901 37.6223C104.282 37.9271 104.595 38.3015 104.84 38.7455C105.088 39.1861 105.251 39.6897 105.327 40.2562ZM108.735 36.8222V47H106.936V36.8222H108.735ZM110.585 47V39.3667H112.384V47H110.585ZM111.489 38.2833C111.204 38.2833 110.959 38.1889 110.754 38C110.548 37.8079 110.446 37.5776 110.446 37.3093C110.446 37.0376 110.548 36.8073 110.754 36.6185C110.959 36.4263 111.204 36.3302 111.489 36.3302C111.777 36.3302 112.023 36.4263 112.225 36.6185C112.43 36.8073 112.533 37.0376 112.533 37.3093C112.533 37.5776 112.43 37.8079 112.225 38C112.023 38.1889 111.777 38.2833 111.489 38.2833ZM117.613 47.1491C116.848 47.1491 116.187 46.9901 115.63 46.672C115.077 46.3506 114.651 45.8967 114.353 45.3103C114.055 44.7206 113.906 44.0265 113.906 43.2281C113.906 42.4429 114.055 41.7537 114.353 41.1607C114.654 40.5644 115.075 40.1005 115.615 39.7692C116.155 39.4346 116.79 39.2673 117.519 39.2673C117.989 39.2673 118.433 39.3435 118.85 39.4959C119.271 39.645 119.642 39.8769 119.964 40.1916C120.288 40.5064 120.543 40.9073 120.729 41.3943C120.915 41.878 121.007 42.4545 121.007 43.1237V43.6753H114.751V42.4627H119.283C119.28 42.1182 119.205 41.8117 119.059 41.5434C118.913 41.2717 118.71 41.058 118.448 40.9023C118.19 40.7466 117.888 40.6687 117.543 40.6687C117.176 40.6687 116.853 40.7582 116.574 40.9371C116.296 41.1127 116.079 41.3446 115.923 41.6328C115.771 41.9177 115.693 42.2308 115.69 42.5721V43.6306C115.69 44.0746 115.771 44.4556 115.933 44.7736C116.096 45.0884 116.323 45.3302 116.614 45.4992C116.906 45.6648 117.247 45.7477 117.638 45.7477C117.9 45.7477 118.137 45.7112 118.349 45.6383C118.561 45.5621 118.744 45.4511 118.9 45.3054C119.056 45.1596 119.174 44.979 119.253 44.7637L120.933 44.9525C120.827 45.3965 120.625 45.7841 120.326 46.1154C120.032 46.4434 119.654 46.6985 119.193 46.8807C118.733 47.0596 118.206 47.1491 117.613 47.1491ZM124.328 42.5273V47H122.529V39.3667H124.249V40.6637H124.338C124.514 40.2364 124.794 39.8968 125.178 39.645C125.566 39.3932 126.044 39.2673 126.614 39.2673C127.141 39.2673 127.6 39.3799 127.991 39.6052C128.385 39.8305 128.69 40.1568 128.905 40.5842C129.124 41.0116 129.232 41.5301 129.228 42.1397V47H127.429V42.418C127.429 41.9078 127.297 41.5086 127.032 41.2203C126.77 40.9321 126.407 40.788 125.943 40.788C125.629 40.788 125.349 40.8576 125.103 40.9967C124.862 41.1325 124.671 41.3297 124.532 41.5881C124.396 41.8465 124.328 42.1596 124.328 42.5273ZM134.869 39.3667V40.7582H130.481V39.3667H134.869ZM131.564 37.5379H133.363V44.704C133.363 44.9459 133.399 45.1314 133.472 45.2606C133.549 45.3865 133.648 45.4727 133.771 45.5191C133.893 45.5654 134.029 45.5886 134.178 45.5886C134.291 45.5886 134.393 45.5803 134.486 45.5638C134.582 45.5472 134.655 45.5323 134.705 45.5191L135.008 46.9255C134.912 46.9586 134.774 46.995 134.595 47.0348C134.42 47.0745 134.205 47.0977 133.949 47.1044C133.499 47.1176 133.093 47.0497 132.732 46.9006C132.371 46.7482 132.084 46.513 131.872 46.1949C131.663 45.8769 131.561 45.4793 131.564 45.0022V37.5379Z" fill="#263238"/>
<path d="M293.403 36.4C293.403 35.7635 293.15 35.153 292.699 34.7029C292.249 34.2529 291.637 34 291 34C290.363 34 289.751 34.2529 289.301 34.7029C288.85 35.153 288.597 35.7635 288.597 36.4C288.597 37.6361 288.285 38.4824 287.936 39.0422C287.642 39.5143 287.495 39.7504 287.5 39.8163C287.506 39.8892 287.522 39.917 287.58 39.9606C287.634 40 287.873 40 288.352 40H293.648C294.127 40 294.366 40 294.42 39.9606C294.478 39.917 294.494 39.8892 294.5 39.8163C294.505 39.7504 294.358 39.5144 294.064 39.0422C293.715 38.4824 293.403 37.6361 293.403 36.4Z" fill="#D6DFEC"/>
<path d="M289.94 41.6C290.223 41.8489 290.594 42 291 42C291.406 42 291.777 41.8489 292.06 41.6M293.403 36.4C293.403 35.7635 293.15 35.153 292.699 34.7029C292.249 34.2529 291.637 34 291 34C290.363 34 289.751 34.2529 289.301 34.7029C288.85 35.153 288.597 35.7635 288.597 36.4C288.597 37.6361 288.285 38.4824 287.936 39.0422C287.642 39.5144 287.495 39.7504 287.5 39.8163C287.506 39.8892 287.522 39.917 287.58 39.9606C287.634 40 287.873 40 288.352 40H293.648C294.127 40 294.366 40 294.42 39.9606C294.478 39.917 294.494 39.8892 294.5 39.8163C294.505 39.7504 294.358 39.5144 294.064 39.0422C293.715 38.4824 293.403 37.6361 293.403 36.4Z" stroke="#D6DFEC" stroke-linecap="round" stroke-linejoin="round"/>
</g>
<defs>
<filter id="filter0_d_427_12627" x="0" y="0" width="381" height="104" filterUnits="userSpaceOnUse" color-interpolation-filters="sRGB">
<feFlood flood-opacity="0" result="BackgroundImageFix"/>
<feColorMatrix in="SourceAlpha" type="matrix" values="0 0 0 0 0 0 0 0 0 0 0 0 0 0 0 0 0 0 127 0" result="hardAlpha"/>
<feOffset dx="5" dy="4"/>
<feGaussianBlur stdDeviation="12"/>
<feComposite in2="hardAlpha" operator="out"/>
<feColorMatrix type="matrix" values="0 0 0 0 0 0 0 0 0 0 0 0 0 0 0 0 0 0 0.08 0"/>
<feBlend mode="normal" in2="BackgroundImageFix" result="effect1_dropShadow_427_12627"/>
<feBlend mode="normal" in="SourceGraphic" in2="effect1_dropShadow_427_12627" result="shape"/>
</filter>
<clipPath id="clip0_427_12627">
<rect x="31" y="32" width="32" height="32" rx="8" fill="white"/>
</clipPath>
</defs>
</svg>
