<svg width="281" height="85" viewBox="0 0 281 85" fill="none" xmlns="http://www.w3.org/2000/svg">
<g clip-path="url(#clip0_550_19146)">
<rect width="281" height="85" rx="3.49861" fill="white"/>
<rect width="280.8" height="85.0338" fill="white"/>
<path d="M62.2243 48.6332C63.1894 48.6793 63.9405 49.5002 63.8283 50.4598C63.3653 54.4206 61.9786 58.2264 59.7698 61.5661C57.561 64.9059 54.6015 67.6715 51.1378 69.6477C50.2987 70.1265 49.2493 69.7566 48.8292 68.8866L47.0238 65.1483C46.6037 64.2783 46.9739 63.2397 47.7986 62.7365C50.029 61.3754 51.9399 59.5373 53.3891 57.3461C54.8383 55.1549 55.7819 52.6771 56.1614 50.0919C56.3018 49.136 57.1127 48.3888 58.0777 48.435L62.2243 48.6332Z" fill="#3D7C46"/>
<path d="M31.069 24.9412C30.7667 24.0236 31.2644 23.0285 32.2006 22.7898C35.5355 21.9395 39.0143 21.7716 42.4268 22.3033C46.4166 22.925 50.2016 24.4853 53.4705 26.8557C56.7394 29.2262 59.3986 32.339 61.2293 35.938C62.7951 39.0164 63.7166 42.3751 63.9447 45.8092C64.0087 46.7732 63.2175 47.5555 62.2514 47.5533L58.1 47.5439C57.1339 47.5417 56.3614 46.7549 56.269 45.7932C56.0557 43.5718 55.4272 41.4047 54.4107 39.4064C53.1292 36.8871 51.2678 34.7081 48.9796 33.0488C46.6914 31.3895 44.0418 30.2973 41.249 29.8621C39.0338 29.5169 36.7787 29.5929 34.601 30.0805C33.6582 30.2915 32.6703 29.8018 32.368 28.8842L31.069 24.9412Z" fill="#189FB5"/>
<path d="M47.7462 69.3766C48.1223 70.2665 47.7073 71.2989 46.7937 71.6131C44.155 72.5206 41.3814 72.9901 38.5832 72.9991C35.2009 73.0101 31.8503 72.348 28.7264 71.0516C25.6024 69.7551 22.7676 67.8502 20.387 65.4476C18.0064 63.045 16.1275 60.1929 14.8598 57.0572C13.592 53.9215 12.9607 50.565 13.0027 47.183C13.0446 43.801 13.759 40.4611 15.1041 37.3578C16.4493 34.2546 18.3983 31.4499 20.8378 29.1071C22.8561 27.1689 25.1767 25.5788 27.7046 24.3974C28.5799 23.9884 29.5958 24.4423 29.9438 25.3436L31.4395 29.2162C31.7876 30.1174 31.3342 31.1225 30.4714 31.5571C28.8845 32.3564 27.4229 33.3895 26.1367 34.6248C24.429 36.2647 23.0647 38.228 22.1231 40.4003C21.1815 42.5726 20.6815 44.9105 20.6521 47.2779C20.6227 49.6453 21.0646 51.9948 21.952 54.1898C22.8395 56.3848 24.1547 58.3813 25.8211 60.0631C27.4876 61.7449 29.4719 63.0784 31.6587 63.9859C33.8454 64.8934 36.1909 65.3568 38.5584 65.3492C40.3417 65.3434 42.1107 65.0705 43.8071 64.5423C44.7296 64.2551 45.7541 64.6627 46.1302 65.5526L47.7462 69.3766Z" fill="#F6652F"/>
<rect x="84.624" y="26.6265" width="5.24791" height="5.24791" rx="2.62396" fill="#F6652F"/>
<rect x="231.538" y="26.8313" width="5" height="4" rx="2" fill="#D6DFEC"/>
<rect x="95.5386" y="26.8313" width="107" height="4" rx="2" fill="#D6DFEC"/>
<rect x="84.624" y="44.1191" width="5.24791" height="5.24791" rx="2.62396" fill="#189FB5"/>
<rect x="97.5387" y="44.8313" width="107" height="4" rx="2" fill="#D6DFEC"/>
<rect x="231.539" y="43.8313" width="5" height="4" rx="2" fill="#D6DFEC"/>
<rect x="84.624" y="61.6135" width="5.24791" height="5.24791" rx="2.62396" fill="#3D7C46"/>
<rect x="96.5387" y="61.8313" width="107" height="4" rx="2" fill="#D6DFEC"/>
<rect x="231.539" y="60.8313" width="5" height="4" rx="2" fill="#D6DFEC"/>
<path d="M9.39213 9.17845C9.36232 8.92666 9.24139 8.73119 9.02935 8.59204C8.81732 8.45289 8.55724 8.38332 8.24912 8.38332C8.02383 8.38332 7.82671 8.41976 7.65774 8.49265C7.49043 8.56554 7.35956 8.66576 7.26514 8.79331C7.17237 8.92086 7.12599 9.06581 7.12599 9.22815C7.12599 9.36399 7.15829 9.48077 7.2229 9.57851C7.28916 9.67459 7.37364 9.75493 7.47635 9.81953C7.57905 9.88248 7.68673 9.93466 7.79937 9.97608C7.91202 10.0158 8.01555 10.0481 8.10997 10.073L8.62681 10.2121C8.75934 10.2469 8.90677 10.295 9.06911 10.3563C9.23311 10.4175 9.38965 10.5012 9.53874 10.6072C9.68948 10.7116 9.81372 10.8458 9.91146 11.0098C10.0092 11.1738 10.0581 11.375 10.0581 11.6136C10.0581 11.8886 9.986 12.137 9.84189 12.359C9.69942 12.581 9.4907 12.7574 9.21571 12.8883C8.94239 13.0191 8.61025 13.0846 8.21931 13.0846C7.85487 13.0846 7.5393 13.0258 7.2726 12.9081C7.00755 12.7905 6.79883 12.6265 6.64642 12.4162C6.49568 12.2058 6.41037 11.9614 6.39049 11.6831H7.0266C7.04316 11.8753 7.10777 12.0343 7.22041 12.1602C7.33472 12.2845 7.47883 12.3772 7.65277 12.4385C7.82836 12.4982 8.01721 12.528 8.21931 12.528C8.45453 12.528 8.66574 12.4899 8.85293 12.4137C9.04012 12.3358 9.18838 12.2281 9.29771 12.0906C9.40704 11.9515 9.46171 11.7892 9.46171 11.6036C9.46171 11.4347 9.4145 11.2972 9.32008 11.1911C9.22565 11.0851 9.10141 10.999 8.94735 10.9327C8.7933 10.8665 8.62681 10.8085 8.44791 10.7588L7.82174 10.5799C7.42417 10.4656 7.10943 10.3024 6.87751 10.0904C6.6456 9.87834 6.52964 9.60087 6.52964 9.25797C6.52964 8.97304 6.60667 8.72456 6.76073 8.51253C6.91644 8.29883 7.12516 8.13318 7.3869 8.01557C7.65029 7.89629 7.94432 7.83666 8.269 7.83666C8.597 7.83666 8.88855 7.89547 9.14365 8.01308C9.39876 8.12904 9.60086 8.28807 9.74995 8.49016C9.90069 8.69226 9.98021 8.92169 9.98849 9.17845H9.39213ZM12.6516 9.17845V9.67542H10.6737V9.17845H12.6516ZM11.2501 8.26405H11.8366V11.9018C11.8366 12.0675 11.8606 12.1917 11.9086 12.2745C11.9583 12.3557 12.0213 12.4104 12.0975 12.4385C12.1753 12.465 12.2573 12.4783 12.3435 12.4783C12.4081 12.4783 12.4611 12.475 12.5025 12.4683C12.5439 12.4601 12.577 12.4534 12.6019 12.4485L12.7212 12.9752C12.6814 12.9901 12.6259 13.0051 12.5547 13.02C12.4834 13.0365 12.3932 13.0448 12.2838 13.0448C12.1182 13.0448 11.9558 13.0092 11.7968 12.938C11.6394 12.8667 11.5086 12.7582 11.4042 12.6125C11.3015 12.4667 11.2501 12.2828 11.2501 12.0608V8.26405ZM14.6568 13.0846C14.415 13.0846 14.1955 13.039 13.9983 12.9479C13.8012 12.8551 13.6447 12.7218 13.5287 12.5479C13.4128 12.3723 13.3548 12.1602 13.3548 11.9117C13.3548 11.6931 13.3978 11.5158 13.484 11.38C13.5701 11.2425 13.6853 11.1348 13.8294 11.057C13.9735 10.9791 14.1325 10.9211 14.3065 10.883C14.4821 10.8433 14.6585 10.8118 14.8357 10.7886C15.0676 10.7588 15.2557 10.7364 15.3998 10.7215C15.5456 10.705 15.6516 10.6776 15.7178 10.6395C15.7857 10.6014 15.8197 10.5352 15.8197 10.4407V10.4209C15.8197 10.1757 15.7526 9.98519 15.6184 9.84935C15.4859 9.71352 15.2846 9.6456 15.0146 9.6456C14.7347 9.6456 14.5152 9.70689 14.3562 9.82947C14.1971 9.95206 14.0853 10.0829 14.0207 10.2221L13.4641 10.0233C13.5635 9.79137 13.696 9.61081 13.8617 9.4816C14.029 9.35073 14.2112 9.25963 14.4083 9.20827C14.6071 9.15526 14.8026 9.12876 14.9948 9.12876C15.1173 9.12876 15.2581 9.14367 15.4172 9.17348C15.5779 9.20165 15.7327 9.26045 15.8818 9.34991C16.0326 9.43936 16.1576 9.57437 16.257 9.75493C16.3564 9.93549 16.4061 10.1773 16.4061 10.4805V12.9951H15.8197V12.4783H15.7899C15.7501 12.5611 15.6839 12.6497 15.5911 12.7442C15.4983 12.8386 15.3749 12.9189 15.2209 12.9852C15.0668 13.0514 14.8788 13.0846 14.6568 13.0846ZM14.7463 12.5578C14.9782 12.5578 15.1737 12.5122 15.3327 12.4211C15.4934 12.33 15.6143 12.2124 15.6955 12.0683C15.7783 11.9242 15.8197 11.7726 15.8197 11.6136V11.0768C15.7949 11.1067 15.7402 11.134 15.6557 11.1588C15.5729 11.182 15.4768 11.2027 15.3675 11.221C15.2598 11.2375 15.1546 11.2524 15.0519 11.2657C14.9509 11.2773 14.8689 11.2872 14.8059 11.2955C14.6535 11.3154 14.511 11.3477 14.3785 11.3924C14.2477 11.4355 14.1416 11.5009 14.0605 11.5887C13.981 11.6749 13.9412 11.7925 13.9412 11.9416C13.9412 12.1453 14.0166 12.2994 14.1673 12.4037C14.3197 12.5064 14.5127 12.5578 14.7463 12.5578ZM19.1363 9.17845V9.67542H17.1584V9.17845H19.1363ZM17.7349 8.26405H18.3213V11.9018C18.3213 12.0675 18.3453 12.1917 18.3933 12.2745C18.443 12.3557 18.506 12.4104 18.5822 12.4385C18.66 12.465 18.742 12.4783 18.8282 12.4783C18.8928 12.4783 18.9458 12.475 18.9872 12.4683C19.0286 12.4601 19.0618 12.4534 19.0866 12.4485L19.2059 12.9752C19.1661 12.9901 19.1106 13.0051 19.0394 13.02C18.9682 13.0365 18.8779 13.0448 18.7686 13.0448C18.6029 13.0448 18.4406 13.0092 18.2815 12.938C18.1242 12.8667 17.9933 12.7582 17.8889 12.6125C17.7862 12.4667 17.7349 12.2828 17.7349 12.0608V8.26405ZM20.0184 12.9951V9.17845H20.6048V12.9951H20.0184ZM20.3166 8.54234C20.2023 8.54234 20.1037 8.50342 20.0209 8.42556C19.9397 8.3477 19.8991 8.25411 19.8991 8.14478C19.8991 8.03544 19.9397 7.94185 20.0209 7.86399C20.1037 7.78614 20.2023 7.74721 20.3166 7.74721C20.4309 7.74721 20.5286 7.78614 20.6098 7.86399C20.6926 7.94185 20.734 8.03544 20.734 8.14478C20.734 8.25411 20.6926 8.3477 20.6098 8.42556C20.5286 8.50342 20.4309 8.54234 20.3166 8.54234ZM24.3823 10.0332L23.8556 10.1823C23.8224 10.0945 23.7736 10.0092 23.709 9.92638C23.646 9.8419 23.5599 9.77232 23.4505 9.71766C23.3412 9.66299 23.2012 9.63566 23.0306 9.63566C22.797 9.63566 22.6024 9.6895 22.4467 9.79717C22.2926 9.90319 22.2156 10.0382 22.2156 10.2022C22.2156 10.348 22.2686 10.4631 22.3746 10.5476C22.4806 10.6321 22.6463 10.7025 22.8716 10.7588L23.4381 10.8979C23.7794 10.9808 24.0336 11.1075 24.201 11.2781C24.3683 11.4471 24.4519 11.6649 24.4519 11.9316C24.4519 12.1503 24.389 12.3458 24.2631 12.518C24.1388 12.6903 23.9649 12.8262 23.7413 12.9255C23.5176 13.0249 23.2576 13.0746 22.961 13.0746C22.5718 13.0746 22.2496 12.9901 21.9945 12.8212C21.7393 12.6522 21.5778 12.4054 21.5099 12.0807L22.0665 11.9416C22.1195 12.147 22.2197 12.301 22.3672 12.4037C22.5163 12.5064 22.7109 12.5578 22.9511 12.5578C23.2244 12.5578 23.4414 12.4998 23.6021 12.3839C23.7645 12.2662 23.8456 12.1254 23.8456 11.9614C23.8456 11.8289 23.7992 11.7179 23.7065 11.6285C23.6137 11.5374 23.4713 11.4694 23.2791 11.4247L22.643 11.2756C22.2935 11.1928 22.0367 11.0644 21.8727 10.8905C21.7104 10.7149 21.6292 10.4954 21.6292 10.232C21.6292 10.0167 21.6896 9.82616 21.8106 9.66051C21.9332 9.49485 22.0996 9.36482 22.31 9.27039C22.5221 9.17597 22.7623 9.12876 23.0306 9.12876C23.4083 9.12876 23.7048 9.21159 23.9202 9.37724C24.1372 9.54289 24.2912 9.76156 24.3823 10.0332ZM26.9945 9.17845V9.67542H25.0166V9.17845H26.9945ZM25.5931 8.26405H26.1795V11.9018C26.1795 12.0675 26.2035 12.1917 26.2515 12.2745C26.3012 12.3557 26.3642 12.4104 26.4404 12.4385C26.5182 12.465 26.6002 12.4783 26.6864 12.4783C26.751 12.4783 26.804 12.475 26.8454 12.4683C26.8868 12.4601 26.92 12.4534 26.9448 12.4485L27.0641 12.9752C27.0243 12.9901 26.9688 13.0051 26.8976 13.02C26.8264 13.0365 26.7361 13.0448 26.6268 13.0448C26.4611 13.0448 26.2988 13.0092 26.1397 12.938C25.9824 12.8667 25.8515 12.7582 25.7471 12.6125C25.6444 12.4667 25.5931 12.2828 25.5931 12.0608V8.26405ZM27.8766 12.9951V9.17845H28.463V12.9951H27.8766ZM28.1748 8.54234C28.0605 8.54234 27.9619 8.50342 27.8791 8.42556C27.7979 8.3477 27.7573 8.25411 27.7573 8.14478C27.7573 8.03544 27.7979 7.94185 27.8791 7.86399C27.9619 7.78614 28.0605 7.74721 28.1748 7.74721C28.2891 7.74721 28.3868 7.78614 28.468 7.86399C28.5508 7.94185 28.5922 8.03544 28.5922 8.14478C28.5922 8.25411 28.5508 8.3477 28.468 8.42556C28.3868 8.50342 28.2891 8.54234 28.1748 8.54234ZM31.0876 13.0746C30.7298 13.0746 30.4217 12.9901 30.1633 12.8212C29.9048 12.6522 29.706 12.4195 29.5669 12.123C29.4277 11.8264 29.3582 11.4877 29.3582 11.1067C29.3582 10.719 29.4294 10.377 29.5719 10.0804C29.716 9.78226 29.9164 9.54952 30.1732 9.38221C30.4316 9.21324 30.7331 9.12876 31.0777 9.12876C31.346 9.12876 31.5879 9.17845 31.8032 9.27785C32.0186 9.37724 32.195 9.51639 32.3325 9.69529C32.47 9.8742 32.5553 10.0829 32.5884 10.3215H32.002C31.9573 10.1475 31.8579 9.99347 31.7038 9.85929C31.5514 9.72346 31.346 9.65554 31.0876 9.65554C30.859 9.65554 30.6586 9.71517 30.4863 9.83444C30.3157 9.95206 30.1823 10.1185 30.0862 10.3339C29.9918 10.5476 29.9446 10.7985 29.9446 11.0868C29.9446 11.3816 29.991 11.6384 30.0837 11.8571C30.1782 12.0757 30.3107 12.2455 30.4813 12.3665C30.6536 12.4874 30.8557 12.5479 31.0876 12.5479C31.24 12.5479 31.3783 12.5213 31.5026 12.4683C31.6268 12.4153 31.732 12.3391 31.8181 12.2397C31.9043 12.1403 31.9656 12.0211 32.002 11.8819H32.5884C32.5553 12.1072 32.4733 12.3101 32.3424 12.4907C32.2132 12.6696 32.0418 12.8121 31.8281 12.9181C31.616 13.0225 31.3692 13.0746 31.0876 13.0746ZM36.1491 10.0332L35.6224 10.1823C35.5892 10.0945 35.5404 10.0092 35.4758 9.92638C35.4128 9.8419 35.3267 9.77232 35.2173 9.71766C35.108 9.66299 34.968 9.63566 34.7974 9.63566C34.5638 9.63566 34.3692 9.6895 34.2135 9.79717C34.0594 9.90319 33.9824 10.0382 33.9824 10.2022C33.9824 10.348 34.0354 10.4631 34.1414 10.5476C34.2474 10.6321 34.4131 10.7025 34.6384 10.7588L35.2049 10.8979C35.5462 10.9808 35.8004 11.1075 35.9678 11.2781C36.1351 11.4471 36.2187 11.6649 36.2187 11.9316C36.2187 12.1503 36.1558 12.3458 36.0299 12.518C35.9056 12.6903 35.7317 12.8262 35.5081 12.9255C35.2844 13.0249 35.0244 13.0746 34.7278 13.0746C34.3386 13.0746 34.0164 12.9901 33.7613 12.8212C33.5061 12.6522 33.3446 12.4054 33.2767 12.0807L33.8333 11.9416C33.8863 12.147 33.9865 12.301 34.134 12.4037C34.2831 12.5064 34.4777 12.5578 34.7179 12.5578C34.9912 12.5578 35.2082 12.4998 35.3689 12.3839C35.5313 12.2662 35.6124 12.1254 35.6124 11.9614C35.6124 11.8289 35.566 11.7179 35.4733 11.6285C35.3805 11.5374 35.2381 11.4694 35.0459 11.4247L34.4098 11.2756C34.0603 11.1928 33.8035 11.0644 33.6395 10.8905C33.4772 10.7149 33.396 10.4954 33.396 10.232C33.396 10.0167 33.4564 9.82616 33.5774 9.66051C33.7 9.49485 33.8664 9.36482 34.0768 9.27039C34.2889 9.17597 34.5291 9.12876 34.7974 9.12876C35.1751 9.12876 35.4716 9.21159 35.687 9.37724C35.904 9.54289 36.058 9.76156 36.1491 10.0332Z" fill="#131313"/>
</g>
<defs>
<clipPath id="clip0_550_19146">
<rect width="281" height="85" rx="3.49861" fill="white"/>
</clipPath>
</defs>
</svg>
