<svg width="203" height="22" viewBox="0 0 203 22" fill="none" xmlns="http://www.w3.org/2000/svg">
<rect x="-0.000488281" y="0.000976562" width="133.822" height="20.9916" rx="3.49861" fill="white"/>
<rect x="7" y="9" width="69" height="3" rx="1.5" fill="#D6DFEC" fill-opacity="0.6"/>
<rect x="139.507" width="62.9861" height="21.4958" rx="8" fill="#00489D"/>
<path d="M161.239 9.02674C161.21 8.76211 161.087 8.55711 160.87 8.41175C160.654 8.26452 160.382 8.19091 160.054 8.19091C159.819 8.19091 159.616 8.22818 159.445 8.30273C159.273 8.37541 159.14 8.47604 159.045 8.60463C158.952 8.73136 158.905 8.87579 158.905 9.03792C158.905 9.17396 158.937 9.29137 159 9.39014C159.065 9.48891 159.15 9.57184 159.255 9.63893C159.361 9.70416 159.475 9.75913 159.596 9.80386C159.717 9.84672 159.833 9.88213 159.945 9.91009L160.504 10.0554C160.687 10.1002 160.874 10.1607 161.066 10.2371C161.258 10.3136 161.436 10.4142 161.6 10.5391C161.764 10.6639 161.896 10.8186 161.997 11.0031C162.099 11.1876 162.151 11.4084 162.151 11.6656C162.151 11.9899 162.067 12.2778 161.899 12.5294C161.733 12.781 161.492 12.9794 161.175 13.1248C160.86 13.2702 160.479 13.3428 160.032 13.3428C159.603 13.3428 159.232 13.2748 158.919 13.1388C158.606 13.0027 158.361 12.8099 158.184 12.5601C158.007 12.3085 157.909 12.0104 157.89 11.6656H158.757C158.774 11.8725 158.841 12.0448 158.958 12.1828C159.078 12.3188 159.229 12.4204 159.414 12.4875C159.6 12.5527 159.804 12.5853 160.026 12.5853C160.27 12.5853 160.487 12.5471 160.677 12.4707C160.869 12.3924 161.02 12.2843 161.13 12.1464C161.24 12.0066 161.295 11.8436 161.295 11.6572C161.295 11.4876 161.247 11.3488 161.15 11.2407C161.055 11.1326 160.925 11.0432 160.761 10.9723C160.599 10.9015 160.416 10.8391 160.211 10.785L159.534 10.6006C159.076 10.4757 158.712 10.2921 158.444 10.0499C158.177 9.80759 158.044 9.48705 158.044 9.08824C158.044 8.75838 158.134 8.47045 158.313 8.22446C158.491 7.97846 158.734 7.78744 159.039 7.6514C159.345 7.51349 159.69 7.44454 160.074 7.44454C160.461 7.44454 160.803 7.51256 161.1 7.6486C161.398 7.78465 161.633 7.97194 161.804 8.21048C161.975 8.44716 162.065 8.71924 162.072 9.02674H161.239ZM165.124 13.3345C164.701 13.3345 164.336 13.2441 164.031 13.0633C163.727 12.8807 163.492 12.6244 163.326 12.2946C163.162 11.9628 163.08 11.5743 163.08 11.1289C163.08 10.6891 163.162 10.3014 163.326 9.96599C163.492 9.63055 163.723 9.36871 164.02 9.18049C164.318 8.99226 164.666 8.89815 165.065 8.89815C165.307 8.89815 165.542 8.93822 165.77 9.01835C165.997 9.09849 166.201 9.22428 166.382 9.39573C166.562 9.56718 166.705 9.78988 166.809 10.0638C166.914 10.3359 166.966 10.6667 166.966 11.0562V11.3525H163.553V10.7263H166.147C166.147 10.5064 166.102 10.3117 166.013 10.1421C165.923 9.97065 165.797 9.83554 165.635 9.73677C165.475 9.638 165.287 9.58861 165.071 9.58861C164.836 9.58861 164.631 9.64639 164.456 9.76193C164.282 9.87561 164.148 10.0247 164.053 10.2092C163.96 10.3918 163.913 10.5903 163.913 10.8046V11.2938C163.913 11.5808 163.964 11.8249 164.064 12.0262C164.167 12.2275 164.309 12.3812 164.492 12.4875C164.675 12.5918 164.888 12.644 165.132 12.644C165.291 12.644 165.435 12.6216 165.565 12.5769C165.696 12.5303 165.809 12.4614 165.904 12.37C165.999 12.2787 166.071 12.166 166.122 12.0318L166.913 12.1744C166.849 12.4073 166.736 12.6114 166.572 12.7866C166.41 12.9599 166.206 13.095 165.96 13.1919C165.715 13.2869 165.437 13.3345 165.124 13.3345ZM169.3 13.3428C169.028 13.3428 168.782 13.2925 168.562 13.1919C168.342 13.0894 168.168 12.9412 168.04 12.7474C167.913 12.5536 167.849 12.316 167.849 12.0346C167.849 11.7923 167.896 11.5929 167.989 11.4364C168.082 11.2798 168.208 11.1559 168.367 11.0646C168.525 10.9733 168.702 10.9043 168.898 10.8577C169.093 10.8111 169.293 10.7757 169.496 10.7515C169.753 10.7217 169.962 10.6975 170.122 10.6788C170.282 10.6583 170.399 10.6257 170.472 10.581C170.544 10.5363 170.581 10.4636 170.581 10.3629V10.3434C170.581 10.0992 170.512 9.91009 170.374 9.77591C170.238 9.64173 170.035 9.57464 169.764 9.57464C169.483 9.57464 169.261 9.63707 169.099 9.76193C168.939 9.88493 168.828 10.0219 168.766 10.1729L167.981 9.99395C168.074 9.73304 168.21 9.52246 168.389 9.36219C168.57 9.20005 168.778 9.08265 169.012 9.00997C169.247 8.93542 169.494 8.89815 169.753 8.89815C169.925 8.89815 170.106 8.91865 170.298 8.95965C170.492 8.99878 170.673 9.07146 170.841 9.17769C171.01 9.28392 171.149 9.4358 171.257 9.63334C171.365 9.82902 171.419 10.0834 171.419 10.3965V13.2478H170.603V12.6608H170.569C170.515 12.7689 170.434 12.8751 170.326 12.9794C170.218 13.0838 170.079 13.1705 169.91 13.2394C169.74 13.3084 169.537 13.3428 169.3 13.3428ZM169.482 12.6719C169.713 12.6719 169.911 12.6263 170.075 12.535C170.24 12.4437 170.366 12.3244 170.452 12.1772C170.54 12.0281 170.583 11.8687 170.583 11.6991V11.1457C170.554 11.1755 170.496 11.2034 170.41 11.2295C170.326 11.2537 170.23 11.2752 170.122 11.2938C170.014 11.3106 169.909 11.3264 169.806 11.3413C169.704 11.3544 169.618 11.3656 169.549 11.3749C169.387 11.3954 169.239 11.4299 169.105 11.4783C168.972 11.5268 168.866 11.5966 168.786 11.688C168.708 11.7774 168.669 11.8967 168.669 12.0458C168.669 12.2526 168.745 12.4092 168.898 12.5154C169.051 12.6198 169.245 12.6719 169.482 12.6719ZM172.69 13.2478V8.95406H173.498V9.63614H173.543C173.621 9.40505 173.759 9.22335 173.956 9.09103C174.156 8.95685 174.381 8.88976 174.633 8.88976C174.685 8.88976 174.746 8.89163 174.817 8.89535C174.89 8.89908 174.947 8.90374 174.988 8.90933V9.70882C174.954 9.6995 174.895 9.68925 174.809 9.67807C174.723 9.66502 174.637 9.6585 174.552 9.6585C174.354 9.6585 174.178 9.70043 174.023 9.78429C173.871 9.86629 173.749 9.9809 173.66 10.1281C173.57 10.2735 173.526 10.4394 173.526 10.6257V13.2478H172.69ZM177.523 13.3345C177.108 13.3345 176.75 13.2403 176.45 13.0521C176.152 12.862 175.923 12.6002 175.762 12.2666C175.602 11.933 175.522 11.551 175.522 11.1205C175.522 10.6844 175.604 10.2996 175.768 9.96599C175.932 9.63055 176.163 9.36871 176.461 9.18049C176.759 8.99226 177.111 8.89815 177.515 8.89815C177.841 8.89815 178.132 8.95872 178.387 9.07985C178.642 9.19912 178.848 9.36685 179.005 9.58302C179.163 9.7992 179.257 10.0517 179.287 10.3406H178.474C178.429 10.1393 178.327 9.96599 178.166 9.82063C178.008 9.67527 177.795 9.60259 177.529 9.60259C177.296 9.60259 177.092 9.66409 176.917 9.78709C176.743 9.90822 176.608 10.0815 176.511 10.307C176.415 10.5307 176.366 10.7953 176.366 11.1009C176.366 11.414 176.414 11.6842 176.509 11.9116C176.604 12.139 176.738 12.3151 176.911 12.4399C177.086 12.5648 177.292 12.6272 177.529 12.6272C177.687 12.6272 177.831 12.5983 177.959 12.5406C178.09 12.4809 178.199 12.3961 178.287 12.2862C178.376 12.1762 178.438 12.0439 178.474 11.8892H179.287C179.257 12.1669 179.167 12.4148 179.016 12.6328C178.865 12.8509 178.663 13.0223 178.41 13.1472C178.158 13.272 177.863 13.3345 177.523 13.3345ZM181.174 10.6984V13.2478H180.339V7.52281H181.163V9.65291H181.216C181.317 9.42182 181.471 9.23826 181.678 9.10221C181.884 8.96617 182.155 8.89815 182.488 8.89815C182.783 8.89815 183.04 8.95872 183.26 9.07985C183.482 9.20099 183.653 9.38175 183.774 9.62216C183.897 9.8607 183.959 10.1589 183.959 10.5167V13.2478H183.123V10.6173C183.123 10.3024 183.042 10.0582 182.88 9.88493C182.717 9.70975 182.492 9.62216 182.203 9.62216C182.006 9.62216 181.828 9.66409 181.672 9.74795C181.517 9.83182 181.395 9.95481 181.306 10.1169C181.218 10.2772 181.174 10.471 181.174 10.6984Z" fill="white"/>
</svg>
