<svg width="157" height="84" viewBox="0 0 157 84" fill="none" xmlns="http://www.w3.org/2000/svg">
<rect width="156.564" height="83.9657" rx="3.49861" fill="white"/>
<path d="M17.3291 16.2423C17.3026 16.0071 17.1932 15.8249 17.0011 15.6957C16.8089 15.5648 16.567 15.4994 16.2755 15.4994C16.0668 15.4994 15.8862 15.5325 15.7338 15.5988C15.5814 15.6634 15.463 15.7528 15.3785 15.8671C15.2957 15.9798 15.2542 16.1081 15.2542 16.2523C15.2542 16.3732 15.2824 16.4776 15.3387 16.5654C15.3967 16.6531 15.4721 16.7269 15.5648 16.7865C15.6593 16.8445 15.7603 16.8933 15.868 16.9331C15.9757 16.9712 16.0792 17.0027 16.1786 17.0275L16.6756 17.1567C16.8379 17.1965 17.0044 17.2503 17.175 17.3182C17.3456 17.3862 17.5038 17.4756 17.6496 17.5866C17.7954 17.6976 17.913 17.8351 18.0024 17.9991C18.0935 18.1631 18.1391 18.3594 18.1391 18.588C18.1391 18.8762 18.0646 19.1322 17.9155 19.3558C17.768 19.5794 17.5535 19.7558 17.2719 19.8851C16.992 20.0143 16.6532 20.0789 16.2556 20.0789C15.8746 20.0789 15.545 20.0184 15.2667 19.8975C14.9884 19.7766 14.7705 19.6051 14.6132 19.3831C14.4558 19.1595 14.3688 18.8944 14.3523 18.588L15.1225 18.588C15.1375 18.7719 15.1971 18.9251 15.3015 19.0477C15.4075 19.1686 15.5425 19.2589 15.7065 19.3185C15.8721 19.3765 16.0535 19.4055 16.2506 19.4055C16.4677 19.4055 16.6606 19.3715 16.8296 19.3036C17.0002 19.234 17.1344 19.138 17.2321 19.0154C17.3299 18.8911 17.3788 18.7462 17.3788 18.5805C17.3788 18.4298 17.3357 18.3064 17.2495 18.2103C17.1651 18.1142 17.0499 18.0347 16.9042 17.9718C16.76 17.9088 16.5969 17.8533 16.4146 17.8053L15.8133 17.6413C15.4058 17.5303 15.0828 17.3671 14.8442 17.1518C14.6074 16.9364 14.4889 16.6515 14.4889 16.297C14.4889 16.0038 14.5684 15.7479 14.7275 15.5292C14.8865 15.3105 15.1018 15.1407 15.3735 15.0198C15.6452 14.8972 15.9516 14.8359 16.2929 14.8359C16.6375 14.8359 16.9414 14.8964 17.2048 15.0173C17.4699 15.1382 17.6786 15.3047 17.831 15.5168C17.9834 15.7271 18.0629 15.969 18.0695 16.2423L17.3291 16.2423ZM20.6419 20.0714C20.2659 20.0714 19.942 19.9911 19.6704 19.8304C19.4003 19.668 19.1916 19.4403 19.0442 19.1471C18.8984 18.8522 18.8255 18.5068 18.8255 18.1109C18.8255 17.72 18.8984 17.3754 19.0442 17.0772C19.1916 16.779 19.397 16.5463 19.6604 16.379C19.9255 16.2117 20.2352 16.128 20.5897 16.128C20.8051 16.128 21.0138 16.1636 21.2159 16.2349C21.418 16.3061 21.5994 16.4179 21.7601 16.5703C21.9208 16.7227 22.0475 16.9207 22.1403 17.1642C22.233 17.406 22.2794 17.7001 22.2794 18.0463L22.2794 18.3097L19.2455 18.3097L19.2455 17.7531L21.5514 17.7531C21.5514 17.5576 21.5116 17.3845 21.4321 17.2338C21.3526 17.0814 21.2408 16.9613 21.0966 16.8735C20.9542 16.7857 20.7869 16.7418 20.5947 16.7418C20.386 16.7418 20.2038 16.7931 20.0481 16.8958C19.894 16.9969 19.7747 17.1294 19.6902 17.2934C19.6074 17.4557 19.566 17.6322 19.566 17.8227L19.566 18.2575C19.566 18.5126 19.6107 18.7296 19.7002 18.9085C19.7913 19.0874 19.918 19.2241 20.0804 19.3185C20.2427 19.4113 20.4324 19.4577 20.6494 19.4577C20.7902 19.4577 20.9186 19.4378 21.0345 19.398C21.1505 19.3566 21.2507 19.2953 21.3352 19.2142C21.4197 19.133 21.4843 19.0328 21.529 18.9135L22.2322 19.0402C22.1759 19.2473 22.0748 19.4287 21.9291 19.5844C21.7849 19.7384 21.6035 19.8585 21.3849 19.9447C21.1679 20.0292 20.9202 20.0714 20.6419 20.0714ZM23.8467 17.7282L23.8467 19.9944L23.1037 19.9944L23.1037 16.1777L23.8169 16.1777L23.8169 16.7989L23.8641 16.7989C23.9519 16.5968 24.0894 16.4345 24.2766 16.3119C24.4654 16.1893 24.7031 16.128 24.9897 16.128C25.2498 16.128 25.4776 16.1827 25.673 16.292C25.8685 16.3997 26.0201 16.5604 26.1278 16.7741C26.2354 16.9878 26.2893 17.252 26.2893 17.5667L26.2893 19.9944L25.5463 19.9944L25.5463 17.6562C25.5463 17.3795 25.4743 17.1634 25.3301 17.0076C25.186 16.8503 24.9881 16.7716 24.7363 16.7716C24.564 16.7716 24.4108 16.8089 24.2766 16.8834C24.1441 16.958 24.0389 17.0673 23.961 17.2114C23.8848 17.3539 23.8467 17.5261 23.8467 17.7282ZM27.2857 19.9944L27.2857 16.1777L28.0286 16.1777L28.0286 19.9944L27.2857 19.9944ZM27.6609 15.5888C27.5317 15.5888 27.4207 15.5458 27.3279 15.4596C27.2368 15.3718 27.1913 15.2675 27.1913 15.1465C27.1913 15.0239 27.2368 14.9196 27.3279 14.8334C27.4207 14.7456 27.5317 14.7017 27.6609 14.7017C27.7901 14.7017 27.9002 14.7456 27.9914 14.8334C28.0841 14.9196 28.1305 15.0239 28.1305 15.1465C28.1305 15.2675 28.0841 15.3718 27.9914 15.4596C27.9002 15.5458 27.7901 15.5888 27.6609 15.5888ZM30.6358 20.0714C30.278 20.0714 29.9657 19.9894 29.699 19.8254C29.4323 19.6614 29.2253 19.432 29.0778 19.1371C28.9304 18.8423 28.8567 18.4977 28.8567 18.1034C28.8567 17.7075 28.9304 17.3613 29.0778 17.0648C29.2253 16.7683 29.4323 16.538 29.699 16.374C29.9657 16.21 30.278 16.128 30.6358 16.128C30.9936 16.128 31.3059 16.21 31.5726 16.374C31.8393 16.538 32.0464 16.7683 32.1938 17.0648C32.3412 17.3613 32.4149 17.7075 32.4149 18.1034C32.4149 18.4977 32.3412 18.8423 32.1938 19.1371C32.0464 19.432 31.8393 19.6614 31.5726 19.8254C31.3059 19.9894 30.9936 20.0714 30.6358 20.0714ZM30.6383 19.4477C30.8702 19.4477 31.0624 19.3864 31.2148 19.2639C31.3672 19.1413 31.4798 18.9781 31.5527 18.7743C31.6273 18.5706 31.6645 18.3461 31.6645 18.101C31.6645 17.8575 31.6273 17.6338 31.5527 17.4301C31.4798 17.2247 31.3672 17.0598 31.2148 16.9356C31.0624 16.8113 30.8702 16.7492 30.6383 16.7492C30.4047 16.7492 30.2109 16.8113 30.0569 16.9356C29.9045 17.0598 29.791 17.2247 29.7164 17.4301C29.6435 17.6338 29.6071 17.8575 29.6071 18.101C29.6071 18.3461 29.6435 18.5706 29.7164 18.7743C29.791 18.9781 29.9045 19.1413 30.0569 19.2639C30.2109 19.3864 30.4047 19.4477 30.6383 19.4477ZM33.2442 19.9944L33.2442 16.1777L33.9623 16.1777L33.9623 16.784L34.0021 16.784C34.0717 16.5786 34.1943 16.4171 34.3699 16.2995C34.5471 16.1802 34.7475 16.1206 34.9712 16.1206C35.0176 16.1206 35.0722 16.1222 35.1352 16.1255C35.1998 16.1289 35.2503 16.133 35.2867 16.138L35.2867 16.8486C35.2569 16.8403 35.2039 16.8312 35.1277 16.8213C35.0515 16.8097 34.9753 16.8039 34.8991 16.8039C34.7235 16.8039 34.567 16.8412 34.4295 16.9157C34.2937 16.9886 34.186 17.0905 34.1065 17.2213C34.027 17.3506 33.9872 17.498 33.9872 17.6636L33.9872 19.9944L33.2442 19.9944ZM35.9297 19.9944L35.9297 16.1777L36.6727 16.1777L36.6727 19.9944L35.9297 19.9944ZM36.3049 15.5888C36.1757 15.5888 36.0647 15.5458 35.9719 15.4596C35.8808 15.3718 35.8353 15.2675 35.8353 15.1465C35.8353 15.0239 35.8808 14.9196 35.9719 14.8334C36.0647 14.7456 36.1757 14.7017 36.3049 14.7017C36.4341 14.7017 36.5443 14.7456 36.6354 14.8334C36.7281 14.9196 36.7745 15.0239 36.7745 15.1465C36.7745 15.2675 36.7281 15.3718 36.6354 15.4596C36.5443 15.5458 36.4341 15.5888 36.3049 15.5888ZM39.4538 16.1777L39.4538 16.7741L37.369 16.7741L37.369 16.1777L39.4538 16.1777ZM37.9281 15.2633L38.6711 15.2633L38.6711 18.8737C38.6711 19.0179 38.6926 19.1264 38.7357 19.1992C38.7787 19.2705 38.8342 19.3193 38.9021 19.3459C38.9717 19.3707 39.0471 19.3831 39.1283 19.3831C39.1879 19.3831 39.2401 19.379 39.2848 19.3707C39.3295 19.3624 39.3643 19.3558 39.3892 19.3508L39.5233 19.9646C39.4803 19.9811 39.419 19.9977 39.3395 20.0143C39.26 20.0325 39.1606 20.0424 39.0413 20.0441C38.8458 20.0474 38.6636 20.0126 38.4946 19.9397C38.3257 19.8668 38.189 19.7542 38.0846 19.6018C37.9803 19.4494 37.9281 19.2581 37.9281 19.0278L37.9281 15.2633ZM40.7452 21.4256C40.6343 21.4256 40.5332 21.4165 40.4421 21.3983C40.351 21.3817 40.2831 21.3635 40.2383 21.3436L40.4173 20.7349C40.5531 20.7713 40.674 20.787 40.78 20.7821C40.8861 20.7771 40.9796 20.7373 41.0608 20.6628C41.1436 20.5883 41.2165 20.4665 41.2795 20.2975L41.3714 20.0441L39.975 16.1777L40.7701 16.1777L41.7367 19.1396L41.7764 19.1396L42.743 16.1777L43.5407 16.1777L41.9678 20.5038C41.8949 20.7026 41.8021 20.8707 41.6895 21.0082C41.5768 21.1473 41.4426 21.2517 41.2869 21.3213C41.1312 21.3908 40.9507 21.4256 40.7452 21.4256Z" fill="#0B0B0B"/>
<path d="M140.971 16.7627L139.222 18.512L137.472 16.7627" stroke="#333333" stroke-width="0.524791" stroke-linecap="square"/>
<rect x="17.8182" y="30.0653" width="6.34123" height="6.34123" rx="0.546657" stroke="#DBDAEA" stroke-width="0.655989"/>
<rect x="27.986" y="32.2358" width="77" height="2" rx="1" fill="#D6DFEC"/>
<rect x="17.8182" y="45.809" width="6.34123" height="6.34123" rx="0.546657" stroke="#DBDAEA" stroke-width="0.655989"/>
<rect x="27.986" y="47.9795" width="77" height="2" rx="1" fill="#D6DFEC"/>
<rect x="17.8182" y="61.5528" width="6.34123" height="6.34123" rx="0.546657" stroke="#DBDAEA" stroke-width="0.655989"/>
<rect x="27.986" y="63.7234" width="77" height="2" rx="1" fill="#D6DFEC"/>
</svg>
