<svg width="157" height="132" viewBox="0 0 157 132" fill="none" xmlns="http://www.w3.org/2000/svg">
<rect width="156.564" height="131.197" rx="3.49861" fill="white"/>
<path d="M17.329 16.2423C17.3025 16.0071 17.1932 15.8249 17.001 15.6957C16.8088 15.5648 16.567 15.4994 16.2754 15.4994C16.0667 15.4994 15.8862 15.5325 15.7337 15.5988C15.5813 15.6634 15.4629 15.7528 15.3784 15.8671C15.2956 15.9798 15.2542 16.1081 15.2542 16.2523C15.2542 16.3732 15.2823 16.4776 15.3387 16.5654C15.3966 16.6531 15.472 16.7269 15.5648 16.7865C15.6592 16.8445 15.7603 16.8933 15.8679 16.9331C15.9756 16.9712 16.0791 17.0027 16.1785 17.0275L16.6755 17.1567C16.8378 17.1965 17.0043 17.2503 17.1749 17.3182C17.3456 17.3862 17.5038 17.4756 17.6495 17.5866C17.7953 17.6976 17.9129 17.8351 18.0024 17.9991C18.0935 18.1631 18.139 18.3594 18.139 18.588C18.139 18.8762 18.0645 19.1322 17.9154 19.3558C17.768 19.5794 17.5535 19.7558 17.2718 19.8851C16.9919 20.0143 16.6531 20.0789 16.2556 20.0789C15.8746 20.0789 15.5449 20.0184 15.2666 19.8975C14.9883 19.7766 14.7705 19.6051 14.6131 19.3831C14.4557 19.1595 14.3688 18.8944 14.3522 18.588L15.1225 18.588C15.1374 18.7719 15.197 18.9251 15.3014 19.0477C15.4074 19.1686 15.5424 19.2589 15.7064 19.3185C15.8721 19.3765 16.0535 19.4055 16.2506 19.4055C16.4676 19.4055 16.6606 19.3715 16.8295 19.3036C17.0002 19.234 17.1344 19.138 17.2321 19.0154C17.3298 18.8911 17.3787 18.7462 17.3787 18.5805C17.3787 18.4298 17.3356 18.3064 17.2495 18.2103C17.165 18.1142 17.0499 18.0347 16.9041 17.9718C16.76 17.9088 16.5968 17.8533 16.4146 17.8053L15.8133 17.6413C15.4058 17.5303 15.0827 17.3671 14.8442 17.1518C14.6073 16.9364 14.4889 16.6515 14.4889 16.297C14.4889 16.0038 14.5684 15.7479 14.7274 15.5292C14.8864 15.3105 15.1018 15.1407 15.3735 15.0198C15.6451 14.8972 15.9516 14.8359 16.2928 14.8359C16.6374 14.8359 16.9414 14.8964 17.2048 15.0173C17.4698 15.1382 17.6785 15.3047 17.8309 15.5168C17.9833 15.7271 18.0628 15.969 18.0695 16.2423L17.329 16.2423ZM18.9969 21.4256L18.9969 16.1777L19.7225 16.1777L19.7225 16.7964L19.7846 16.7964C19.8277 16.7169 19.8898 16.625 19.971 16.5206C20.0521 16.4163 20.1648 16.3252 20.3089 16.2473C20.453 16.1678 20.6435 16.128 20.8804 16.128C21.1885 16.128 21.4635 16.2059 21.7054 16.3616C21.9472 16.5173 22.1369 16.7418 22.2744 17.035C22.4135 17.3282 22.4831 17.681 22.4831 18.0935C22.4831 18.506 22.4144 18.8597 22.2769 19.1545C22.1394 19.4477 21.9505 19.6738 21.7103 19.8329C21.4701 19.9902 21.196 20.0689 20.8879 20.0689C20.6559 20.0689 20.4663 20.03 20.3188 19.9521C20.1731 19.8743 20.0588 19.7832 19.9759 19.6788C19.8931 19.5745 19.8293 19.4817 19.7846 19.4005L19.7399 19.4005L19.7399 21.4256L18.9969 21.4256ZM19.725 18.0861C19.725 18.3544 19.7639 18.5896 19.8418 18.7917C19.9196 18.9938 20.0323 19.152 20.1797 19.2663C20.3271 19.379 20.5077 19.4353 20.7214 19.4353C20.9434 19.4353 21.1289 19.3765 21.278 19.2589C21.4271 19.1396 21.5397 18.9781 21.6159 18.7743C21.6938 18.5706 21.7327 18.3412 21.7327 18.0861C21.7327 17.8343 21.6946 17.6081 21.6184 17.4077C21.5438 17.2073 21.4312 17.0491 21.2805 16.9331C21.1314 16.8171 20.945 16.7592 20.7214 16.7592C20.506 16.7592 20.3238 16.8147 20.1747 16.9256C20.0273 17.0366 19.9155 17.1915 19.8393 17.3903C19.7631 17.5891 19.725 17.821 19.725 18.0861ZM24.9605 20.0714C24.5844 20.0714 24.2606 19.9911 23.9889 19.8304C23.7189 19.668 23.5102 19.4403 23.3627 19.1471C23.2169 18.8522 23.1441 18.5068 23.1441 18.1109C23.1441 17.72 23.2169 17.3754 23.3627 17.0772C23.5102 16.779 23.7156 16.5463 23.979 16.379C24.244 16.2117 24.5538 16.128 24.9083 16.128C25.1236 16.128 25.3323 16.1636 25.5344 16.2349C25.7365 16.3061 25.9179 16.4179 26.0786 16.5703C26.2393 16.7227 26.366 16.9207 26.4588 17.1642C26.5516 17.406 26.5979 17.7001 26.5979 18.0463L26.5979 18.3097L23.564 18.3097L23.564 17.7531L25.8699 17.7531C25.8699 17.5576 25.8301 17.3845 25.7506 17.2338C25.6711 17.0814 25.5593 16.9613 25.4152 16.8735C25.2727 16.7857 25.1054 16.7418 24.9132 16.7418C24.7045 16.7418 24.5223 16.7931 24.3666 16.8958C24.2125 16.9969 24.0933 17.1294 24.0088 17.2934C23.9259 17.4557 23.8845 17.6322 23.8845 17.8227L23.8845 18.2575C23.8845 18.5126 23.9293 18.7296 24.0187 18.9085C24.1098 19.0874 24.2365 19.2241 24.3989 19.3185C24.5612 19.4113 24.7509 19.4577 24.9679 19.4577C25.1087 19.4577 25.2371 19.4378 25.3531 19.398C25.469 19.3566 25.5692 19.2953 25.6537 19.2142C25.7382 19.133 25.8028 19.0328 25.8475 18.9135L26.5507 19.0402C26.4944 19.2473 26.3934 19.4287 26.2476 19.5844C26.1035 19.7384 25.9221 19.8585 25.7034 19.9447C25.4864 20.0292 25.2388 20.0714 24.9605 20.0714ZM29.0299 20.0714C28.6605 20.0714 28.3425 19.9878 28.0758 19.8204C27.8107 19.6515 27.607 19.4187 27.4645 19.1222C27.3221 18.8257 27.2508 18.4861 27.2508 18.1034C27.2508 17.7158 27.3237 17.3737 27.4695 17.0772C27.6153 16.779 27.8207 16.5463 28.0857 16.379C28.3508 16.2117 28.663 16.128 29.0225 16.128C29.3124 16.128 29.5708 16.1819 29.7978 16.2895C30.0247 16.3956 30.2077 16.5446 30.3469 16.7368C30.4877 16.929 30.5714 17.1534 30.5979 17.4102L29.8748 17.4102C29.835 17.2313 29.7439 17.0772 29.6015 16.948C29.4606 16.8188 29.2718 16.7542 29.0349 16.7542C28.8278 16.7542 28.6465 16.8089 28.4907 16.9182C28.3367 17.0259 28.2166 17.1799 28.1304 17.3804C28.0443 17.5792 28.0012 17.8144 28.0012 18.0861C28.0012 18.3644 28.0435 18.6045 28.128 18.8066C28.2124 19.0087 28.3317 19.1653 28.4858 19.2763C28.6415 19.3873 28.8245 19.4428 29.0349 19.4428C29.1757 19.4428 29.3033 19.4171 29.4176 19.3657C29.5335 19.3127 29.6304 19.2373 29.7083 19.1396C29.7878 19.0419 29.8433 18.9243 29.8748 18.7868L30.5979 18.7868C30.5714 19.0336 30.491 19.2539 30.3568 19.4477C30.2227 19.6415 30.0429 19.7939 29.8176 19.9049C29.594 20.0159 29.3314 20.0714 29.0299 20.0714ZM31.3924 19.9944L31.3924 16.1777L32.1353 16.1777L32.1353 19.9944L31.3924 19.9944ZM31.7676 15.5888C31.6384 15.5888 31.5274 15.5458 31.4346 15.4596C31.3435 15.3718 31.298 15.2675 31.298 15.1465C31.298 15.0239 31.3435 14.9196 31.4346 14.8334C31.5274 14.7456 31.6384 14.7017 31.7676 14.7017C31.8968 14.7017 32.007 14.7456 32.0981 14.8334C32.1908 14.9196 32.2372 15.0239 32.2372 15.1465C32.2372 15.2675 32.1908 15.3718 32.0981 15.4596C32.007 15.5458 31.8968 15.5888 31.7676 15.5888ZM34.2456 20.0789C34.0037 20.0789 33.785 20.0341 33.5896 19.9447C33.3941 19.8536 33.2392 19.7219 33.1249 19.5496C33.0123 19.3773 32.9559 19.1661 32.9559 18.916C32.9559 18.7006 32.9974 18.5234 33.0802 18.3842C33.163 18.2451 33.2748 18.1349 33.4156 18.0538C33.5564 17.9726 33.7138 17.9113 33.8877 17.8699C34.0617 17.8285 34.2389 17.797 34.4195 17.7755C34.6481 17.7489 34.8336 17.7274 34.9761 17.7108C35.1186 17.6926 35.2221 17.6636 35.2867 17.6239C35.3513 17.5841 35.3836 17.5195 35.3836 17.4301L35.3836 17.4127C35.3836 17.1957 35.3223 17.0275 35.1997 16.9083C35.0788 16.789 34.8982 16.7293 34.658 16.7293C34.4079 16.7293 34.2108 16.7848 34.0666 16.8958C33.9242 17.0052 33.8256 17.1269 33.771 17.2611L33.0727 17.1021C33.1556 16.8702 33.2765 16.683 33.4355 16.5405C33.5962 16.3964 33.7809 16.292 33.9896 16.2274C34.1983 16.1612 34.4178 16.128 34.6481 16.128C34.8005 16.128 34.962 16.1462 35.1326 16.1827C35.3049 16.2175 35.4656 16.2821 35.6147 16.3765C35.7654 16.4709 35.8888 16.6059 35.9849 16.7815C36.081 16.9555 36.129 17.1816 36.129 17.4599L36.129 19.9944L35.4035 19.9944L35.4035 19.4726L35.3737 19.4726C35.3256 19.5687 35.2536 19.6631 35.1575 19.7558C35.0614 19.8486 34.938 19.9256 34.7872 19.9869C34.6365 20.0482 34.4559 20.0789 34.2456 20.0789ZM34.4071 19.4825C34.6125 19.4825 34.7881 19.4419 34.9338 19.3608C35.0813 19.2796 35.1931 19.1736 35.2693 19.0427C35.3472 18.9102 35.3861 18.7685 35.3861 18.6178L35.3861 18.1258C35.3596 18.1523 35.3082 18.1772 35.232 18.2004C35.1575 18.2219 35.0722 18.2409 34.9761 18.2575C34.88 18.2724 34.7864 18.2865 34.6953 18.2997C34.6042 18.3113 34.528 18.3213 34.4667 18.3296C34.3226 18.3478 34.1909 18.3784 34.0716 18.4215C33.954 18.4646 33.8596 18.5267 33.7884 18.6079C33.7188 18.6874 33.684 18.7934 33.684 18.9259C33.684 19.1098 33.7519 19.2489 33.8877 19.3434C34.0236 19.4361 34.1967 19.4825 34.4071 19.4825ZM37.8616 14.9055L37.8616 19.9944L37.1186 19.9944L37.1186 14.9055L37.8616 14.9055ZM38.8611 19.9944L38.8611 16.1777L39.604 16.1777L39.604 19.9944L38.8611 19.9944ZM39.2363 15.5888C39.1071 15.5888 38.9961 15.5458 38.9033 15.4596C38.8122 15.3718 38.7667 15.2675 38.7667 15.1465C38.7667 15.0239 38.8122 14.9196 38.9033 14.8334C38.9961 14.7456 39.1071 14.7017 39.2363 14.7017C39.3655 14.7017 39.4757 14.7456 39.5668 14.8334C39.6595 14.9196 39.7059 15.0239 39.7059 15.1465C39.7059 15.2675 39.6595 15.3718 39.5668 15.4596C39.4757 15.5458 39.3655 15.5888 39.2363 15.5888ZM40.524 19.9944L40.524 19.485L42.5914 16.8586L42.5914 16.8238L40.5911 16.8238L40.5911 16.1777L43.5182 16.1777L43.5182 16.7194L41.5304 19.3135L41.5304 19.3483L43.5878 19.3483L43.5878 19.9944L40.524 19.9944ZM45.575 20.0789C45.3332 20.0789 45.1145 20.0341 44.919 19.9447C44.7236 19.8536 44.5687 19.7219 44.4544 19.5496C44.3417 19.3773 44.2854 19.1661 44.2854 18.916C44.2854 18.7006 44.3268 18.5234 44.4097 18.3842C44.4925 18.2451 44.6043 18.1349 44.7451 18.0538C44.8859 17.9726 45.0433 17.9113 45.2172 17.8699C45.3912 17.8285 45.5684 17.797 45.749 17.7755C45.9776 17.7489 46.1631 17.7274 46.3056 17.7108C46.448 17.6926 46.5516 17.6636 46.6162 17.6239C46.6808 17.5841 46.7131 17.5195 46.7131 17.4301L46.7131 17.4127C46.7131 17.1957 46.6518 17.0275 46.5292 16.9083C46.4083 16.789 46.2277 16.7293 45.9875 16.7293C45.7374 16.7293 45.5402 16.7848 45.3961 16.8958C45.2537 17.0052 45.1551 17.1269 45.1004 17.2611L44.4022 17.1021C44.485 16.8702 44.606 16.683 44.765 16.5405C44.9257 16.3964 45.1104 16.292 45.3191 16.2274C45.5278 16.1612 45.7473 16.128 45.9776 16.128C46.13 16.128 46.2915 16.1462 46.4621 16.1827C46.6344 16.2175 46.7951 16.2821 46.9442 16.3765C47.0949 16.4709 47.2183 16.6059 47.3144 16.7815C47.4105 16.9555 47.4585 17.1816 47.4585 17.4599L47.4585 19.9944L46.7329 19.9944L46.7329 19.4726L46.7031 19.4726C46.6551 19.5687 46.583 19.6631 46.487 19.7558C46.3909 19.8486 46.2675 19.9256 46.1167 19.9869C45.966 20.0482 45.7854 20.0789 45.575 20.0789ZM45.7365 19.4825C45.942 19.4825 46.1175 19.4419 46.2633 19.3608C46.4108 19.2796 46.5226 19.1736 46.5988 19.0427C46.6766 18.9102 46.7156 18.7685 46.7156 18.6178L46.7156 18.1258C46.6891 18.1523 46.6377 18.1772 46.5615 18.2004C46.487 18.2219 46.4016 18.2409 46.3056 18.2575C46.2095 18.2724 46.1159 18.2865 46.0248 18.2997C45.9337 18.3113 45.8575 18.3213 45.7962 18.3296C45.6521 18.3478 45.5204 18.3784 45.4011 18.4215C45.2835 18.4646 45.1891 18.5267 45.1178 18.6079C45.0482 18.6874 45.0135 18.7934 45.0135 18.9259C45.0135 19.1098 45.0814 19.2489 45.2172 19.3434C45.3531 19.4361 45.5262 19.4825 45.7365 19.4825ZM50.2297 16.1777L50.2297 16.7741L48.1449 16.7741L48.1449 16.1777L50.2297 16.1777ZM48.704 15.2633L49.447 15.2633L49.447 18.8737C49.447 19.0179 49.4685 19.1264 49.5116 19.1992C49.5547 19.2705 49.6101 19.3193 49.6781 19.3459C49.7476 19.3707 49.823 19.3831 49.9042 19.3831C49.9638 19.3831 50.016 19.379 50.0607 19.3707C50.1055 19.3624 50.1402 19.3558 50.1651 19.3508L50.2993 19.9646C50.2562 19.9811 50.1949 19.9977 50.1154 20.0143C50.0359 20.0325 49.9365 20.0424 49.8172 20.0441C49.6217 20.0474 49.4395 20.0126 49.2706 19.9397C49.1016 19.8668 48.9649 19.7542 48.8606 19.6018C48.7562 19.4494 48.704 19.2581 48.704 19.0278L48.704 15.2633ZM51.0515 19.9944L51.0515 16.1777L51.7945 16.1777L51.7945 19.9944L51.0515 19.9944ZM51.4267 15.5888C51.2975 15.5888 51.1866 15.5458 51.0938 15.4596C51.0027 15.3718 50.9571 15.2675 50.9571 15.1465C50.9571 15.0239 51.0027 14.9196 51.0938 14.8334C51.1866 14.7456 51.2975 14.7017 51.4267 14.7017C51.556 14.7017 51.6661 14.7456 51.7572 14.8334C51.85 14.9196 51.8964 15.0239 51.8964 15.1465C51.8964 15.2675 51.85 15.3718 51.7572 15.4596C51.6661 15.5458 51.556 15.5888 51.4267 15.5888ZM54.4017 20.0714C54.0439 20.0714 53.7316 19.9894 53.4649 19.8254C53.1982 19.6614 52.9911 19.432 52.8437 19.1371C52.6963 18.8423 52.6226 18.4977 52.6226 18.1034C52.6226 17.7075 52.6963 17.3613 52.8437 17.0648C52.9911 16.7683 53.1982 16.538 53.4649 16.374C53.7316 16.21 54.0439 16.128 54.4017 16.128C54.7595 16.128 55.0718 16.21 55.3385 16.374C55.6052 16.538 55.8122 16.7683 55.9597 17.0648C56.1071 17.3613 56.1808 17.7075 56.1808 18.1034C56.1808 18.4977 56.1071 18.8423 55.9597 19.1371C55.8122 19.432 55.6052 19.6614 55.3385 19.8254C55.0718 19.9894 54.7595 20.0714 54.4017 20.0714ZM54.4042 19.4477C54.6361 19.4477 54.8282 19.3864 54.9806 19.2639C55.133 19.1413 55.2457 18.9781 55.3186 18.7743C55.3931 18.5706 55.4304 18.3461 55.4304 18.101C55.4304 17.8575 55.3931 17.6338 55.3186 17.4301C55.2457 17.2247 55.133 17.0598 54.9806 16.9356C54.8282 16.8113 54.6361 16.7492 54.4042 16.7492C54.1706 16.7492 53.9768 16.8113 53.8227 16.9356C53.6703 17.0598 53.5568 17.2247 53.4823 17.4301C53.4094 17.6338 53.373 17.8575 53.373 18.101C53.373 18.3461 53.4094 18.5706 53.4823 18.7743C53.5568 18.9781 53.6703 19.1413 53.8227 19.2639C53.9768 19.3864 54.1706 19.4477 54.4042 19.4477ZM57.7531 17.7282L57.7531 19.9944L57.0101 19.9944L57.0101 16.1777L57.7232 16.1777L57.7232 16.7989L57.7705 16.7989C57.8583 16.5968 57.9957 16.4345 58.1829 16.3119C58.3718 16.1893 58.6095 16.128 58.8961 16.128C59.1562 16.128 59.3839 16.1827 59.5794 16.292C59.7749 16.3997 59.9264 16.5604 60.0341 16.7741C60.1418 16.9878 60.1956 17.252 60.1956 17.5667L60.1956 19.9944L59.4527 19.9944L59.4527 17.6562C59.4527 17.3795 59.3806 17.1634 59.2365 17.0076C59.0924 16.8503 58.8944 16.7716 58.6426 16.7716C58.4703 16.7716 58.3171 16.8089 58.1829 16.8834C58.0504 16.958 57.9452 17.0673 57.8674 17.2114C57.7912 17.3539 57.7531 17.5261 57.7531 17.7282ZM64.052 17.1095L63.3787 17.2288C63.3505 17.1427 63.3058 17.0607 63.2445 16.9828C63.1848 16.9049 63.1037 16.8412 63.001 16.7915C62.8983 16.7418 62.7699 16.7169 62.6158 16.7169C62.4054 16.7169 62.2299 16.7641 62.089 16.8586C61.9482 16.9513 61.8778 17.0714 61.8778 17.2189C61.8778 17.3464 61.9251 17.4491 62.0195 17.527C62.1139 17.6048 62.2663 17.6686 62.4767 17.7183L63.083 17.8575C63.4342 17.9386 63.6959 18.0637 63.8682 18.2327C64.0405 18.4016 64.1266 18.6211 64.1266 18.8911C64.1266 19.1197 64.0603 19.3235 63.9278 19.5024C63.7969 19.6796 63.6139 19.8188 63.3787 19.9198C63.1451 20.0209 62.8742 20.0714 62.5661 20.0714C62.1387 20.0714 61.79 19.9803 61.52 19.7981C61.25 19.6142 61.0844 19.3533 61.0231 19.0154L61.7412 18.906C61.7859 19.0932 61.8778 19.2349 62.017 19.3309C62.1561 19.4254 62.3375 19.4726 62.5612 19.4726C62.8047 19.4726 62.9993 19.4221 63.1451 19.321C63.2909 19.2183 63.3638 19.0932 63.3638 18.9458C63.3638 18.8265 63.319 18.7263 63.2296 18.6451C63.1418 18.564 63.0068 18.5027 62.8246 18.4613L62.1785 18.3196C61.8223 18.2385 61.559 18.1092 61.3883 17.932C61.2194 17.7547 61.1349 17.5303 61.1349 17.2586C61.1349 17.0333 61.1978 16.8362 61.3237 16.6672C61.4496 16.4983 61.6236 16.3666 61.8455 16.2721C62.0675 16.1761 62.3218 16.128 62.6084 16.128C63.0209 16.128 63.3455 16.2175 63.5824 16.3964C63.8193 16.5736 63.9758 16.8113 64.052 17.1095Z" fill="#0B0B0B"/>
<path d="M137.322 18.2214L139.071 16.4721L140.82 18.2214" stroke="#333333" stroke-width="0.524791" stroke-linecap="square"/>
<rect x="19.5698" y="30.0653" width="6.34123" height="6.34123" rx="0.546657" stroke="#DBDAEA" stroke-width="0.655989"/>
<rect x="29.7377" y="32.2358" width="77" height="2" rx="1" fill="#D6DFEC"/>
<rect x="19.5698" y="45.809" width="6.34123" height="6.34123" rx="0.546657" stroke="#DBDAEA" stroke-width="0.655989"/>
<rect x="29.7377" y="47.9795" width="77" height="2" rx="1" fill="#D6DFEC"/>
<rect x="19.5698" y="61.5528" width="6.34123" height="6.34123" rx="0.546657" stroke="#DBDAEA" stroke-width="0.655989"/>
<rect x="29.7377" y="63.7234" width="77" height="2" rx="1" fill="#D6DFEC"/>
<rect x="19.5698" y="77.2965" width="6.34123" height="6.34123" rx="0.546657" stroke="#DBDAEA" stroke-width="0.655989"/>
<rect x="29.7377" y="79.467" width="77" height="2" rx="1" fill="#D6DFEC"/>
<rect x="19.5698" y="93.0402" width="6.34123" height="6.34123" rx="0.546657" stroke="#DBDAEA" stroke-width="0.655989"/>
<rect x="29.7377" y="95.2107" width="77" height="2" rx="1" fill="#D6DFEC"/>
<path d="M23.9633 109.352C23.9372 109.131 23.8314 108.96 23.6459 108.838C23.4604 108.717 23.2328 108.656 22.9632 108.656C22.7661 108.656 22.5936 108.688 22.4457 108.752C22.2993 108.815 22.1848 108.903 22.1022 109.015C22.021 109.126 21.9805 109.253 21.9805 109.395C21.9805 109.514 22.0087 109.616 22.0652 109.702C22.1232 109.786 22.1971 109.856 22.287 109.913C22.3769 109.968 22.4711 110.013 22.5697 110.05C22.6682 110.084 22.7588 110.113 22.8414 110.134L23.2937 110.256C23.4096 110.286 23.5386 110.329 23.6807 110.382C23.8242 110.436 23.9612 110.509 24.0916 110.602C24.2235 110.693 24.3322 110.81 24.4177 110.954C24.5033 111.097 24.546 111.274 24.546 111.482C24.546 111.723 24.483 111.94 24.3569 112.135C24.2322 112.329 24.0496 112.483 23.809 112.598C23.5698 112.712 23.2792 112.769 22.9371 112.769C22.6182 112.769 22.3421 112.718 22.1087 112.615C21.8768 112.512 21.6942 112.369 21.5608 112.185C21.4289 112 21.3543 111.787 21.3369 111.543H21.8935C21.908 111.711 21.9645 111.85 22.0631 111.961C22.1631 112.069 22.2892 112.151 22.4414 112.204C22.595 112.256 22.7603 112.282 22.9371 112.282C23.1429 112.282 23.3277 112.249 23.4915 112.182C23.6553 112.114 23.785 112.02 23.8807 111.9C23.9764 111.778 24.0242 111.636 24.0242 111.474C24.0242 111.326 23.9829 111.205 23.9003 111.113C23.8177 111.02 23.7089 110.945 23.5741 110.887C23.4393 110.829 23.2937 110.778 23.1371 110.734L22.5892 110.578C22.2414 110.478 21.966 110.335 21.763 110.15C21.5601 109.964 21.4586 109.721 21.4586 109.421C21.4586 109.172 21.526 108.954 21.6608 108.769C21.7971 108.582 21.9797 108.437 22.2087 108.334C22.4392 108.23 22.6965 108.178 22.9806 108.178C23.2676 108.178 23.5227 108.229 23.7459 108.332C23.9691 108.433 24.146 108.572 24.2764 108.749C24.4083 108.926 24.4779 109.127 24.4851 109.352H23.9633ZM25.8761 110.682V112.691H25.363V108.238H25.8761V109.873H25.9196C25.9978 109.701 26.1152 109.564 26.2718 109.462C26.4298 109.36 26.64 109.308 26.9023 109.308C27.1299 109.308 27.3292 109.354 27.5002 109.445C27.6713 109.535 27.8039 109.673 27.8981 109.86C27.9938 110.046 28.0416 110.282 28.0416 110.569V112.691H27.5285V110.604C27.5285 110.339 27.4596 110.134 27.3219 109.989C27.1857 109.842 26.9965 109.769 26.7545 109.769C26.5863 109.769 26.4356 109.805 26.3022 109.876C26.1703 109.947 26.066 110.05 25.9891 110.186C25.9138 110.323 25.8761 110.488 25.8761 110.682ZM30.337 112.761C30.0355 112.761 29.771 112.689 29.5434 112.545C29.3173 112.402 29.1405 112.201 29.0129 111.943C28.8868 111.685 28.8238 111.384 28.8238 111.039C28.8238 110.691 28.8868 110.387 29.0129 110.128C29.1405 109.868 29.3173 109.667 29.5434 109.523C29.771 109.38 30.0355 109.308 30.337 109.308C30.6385 109.308 30.9023 109.38 31.1284 109.523C31.356 109.667 31.5328 109.868 31.6589 110.128C31.7865 110.387 31.8503 110.691 31.8503 111.039C31.8503 111.384 31.7865 111.685 31.6589 111.943C31.5328 112.201 31.356 112.402 31.1284 112.545C30.9023 112.689 30.6385 112.761 30.337 112.761ZM30.337 112.3C30.566 112.3 30.7545 112.241 30.9023 112.124C31.0501 112.006 31.1596 111.852 31.2306 111.661C31.3016 111.469 31.3371 111.262 31.3371 111.039C31.3371 110.816 31.3016 110.608 31.2306 110.415C31.1596 110.222 31.0501 110.066 30.9023 109.947C30.7545 109.828 30.566 109.769 30.337 109.769C30.108 109.769 29.9196 109.828 29.7717 109.947C29.6239 110.066 29.5144 110.222 29.4434 110.415C29.3724 110.608 29.3369 110.816 29.3369 111.039C29.3369 111.262 29.3724 111.469 29.4434 111.661C29.5144 111.852 29.6239 112.006 29.7717 112.124C29.9196 112.241 30.108 112.3 30.337 112.3ZM33.2765 112.691L32.259 109.352H32.7982L33.52 111.908H33.5548L34.268 109.352H34.8159L35.5203 111.9H35.5551L36.2769 109.352H36.8161L35.7986 112.691H35.2942L34.5637 110.126H34.5115L33.781 112.691H33.2765ZM39.2165 112.691V109.352H39.7122V109.873H39.7557C39.8252 109.695 39.9376 109.557 40.0927 109.458C40.2478 109.358 40.434 109.308 40.6514 109.308C40.8718 109.308 41.0551 109.358 41.2015 109.458C41.3494 109.557 41.4646 109.695 41.5472 109.873H41.582C41.6675 109.701 41.7958 109.564 41.9668 109.462C42.1379 109.36 42.343 109.308 42.5821 109.308C42.8807 109.308 43.125 109.402 43.3148 109.589C43.5047 109.774 43.5997 110.063 43.5997 110.456V112.691H43.0865V110.456C43.0865 110.21 43.0191 110.034 42.8843 109.928C42.7495 109.822 42.5908 109.769 42.4082 109.769C42.1734 109.769 41.9915 109.84 41.8625 109.982C41.7335 110.123 41.669 110.301 41.669 110.517V112.691H41.1472V110.404C41.1472 110.214 41.0856 110.061 40.9624 109.945C40.8391 109.828 40.6804 109.769 40.4862 109.769C40.3528 109.769 40.2282 109.805 40.1122 109.876C39.9977 109.947 39.905 110.045 39.8339 110.171C39.7644 110.296 39.7296 110.44 39.7296 110.604V112.691H39.2165ZM45.8945 112.761C45.593 112.761 45.3285 112.689 45.101 112.545C44.8748 112.402 44.698 112.201 44.5704 111.943C44.4443 111.685 44.3813 111.384 44.3813 111.039C44.3813 110.691 44.4443 110.387 44.5704 110.128C44.698 109.868 44.8748 109.667 45.101 109.523C45.3285 109.38 45.593 109.308 45.8945 109.308C46.196 109.308 46.4598 109.38 46.6859 109.523C46.9135 109.667 47.0903 109.868 47.2165 110.128C47.344 110.387 47.4078 110.691 47.4078 111.039C47.4078 111.384 47.344 111.685 47.2165 111.943C47.0903 112.201 46.9135 112.402 46.6859 112.545C46.4598 112.689 46.196 112.761 45.8945 112.761ZM45.8945 112.3C46.1236 112.3 46.312 112.241 46.4598 112.124C46.6077 112.006 46.7171 111.852 46.7881 111.661C46.8592 111.469 46.8947 111.262 46.8947 111.039C46.8947 110.816 46.8592 110.608 46.7881 110.415C46.7171 110.222 46.6077 110.066 46.4598 109.947C46.312 109.828 46.1236 109.769 45.8945 109.769C45.6655 109.769 45.4771 109.828 45.3292 109.947C45.1814 110.066 45.072 110.222 45.0009 110.415C44.9299 110.608 44.8944 110.816 44.8944 111.039C44.8944 111.262 44.9299 111.469 45.0009 111.661C45.072 111.852 45.1814 112.006 45.3292 112.124C45.4771 112.241 45.6655 112.3 45.8945 112.3ZM48.191 112.691V109.352H48.6868V109.856H48.7215C48.7824 109.691 48.8926 109.557 49.052 109.454C49.2115 109.351 49.3912 109.299 49.5912 109.299C49.6289 109.299 49.676 109.3 49.7326 109.302C49.7891 109.303 49.8318 109.305 49.8608 109.308V109.83C49.8434 109.826 49.8036 109.819 49.7412 109.81C49.6804 109.8 49.6159 109.795 49.5477 109.795C49.3854 109.795 49.2405 109.829 49.1129 109.897C48.9868 109.964 48.8868 110.057 48.8129 110.176C48.7404 110.293 48.7042 110.427 48.7042 110.578V112.691H48.191ZM51.7676 112.761C51.4458 112.761 51.1683 112.69 50.9349 112.548C50.703 112.404 50.524 112.204 50.3979 111.948C50.2732 111.69 50.2109 111.39 50.2109 111.047C50.2109 110.705 50.2732 110.404 50.3979 110.143C50.524 109.881 50.6993 109.676 50.924 109.53C51.1501 109.382 51.4139 109.308 51.7154 109.308C51.8894 109.308 52.0611 109.337 52.2307 109.395C52.4003 109.453 52.5547 109.547 52.6938 109.678C52.833 109.807 52.9439 109.978 53.0265 110.191C53.1091 110.404 53.1504 110.666 53.1504 110.978V111.195H50.5761V110.752H52.6286C52.6286 110.563 52.5909 110.395 52.5155 110.247C52.4416 110.1 52.3358 109.983 52.1981 109.897C52.0619 109.812 51.901 109.769 51.7154 109.769C51.5111 109.769 51.3342 109.82 51.1849 109.921C51.0371 110.021 50.9233 110.152 50.8436 110.313C50.7639 110.473 50.724 110.646 50.724 110.83V111.126C50.724 111.378 50.7675 111.592 50.8544 111.767C50.9429 111.941 51.0653 112.074 51.2219 112.165C51.3784 112.255 51.5603 112.3 51.7676 112.3C51.9024 112.3 52.0242 112.281 52.1329 112.243C52.243 112.204 52.338 112.146 52.4177 112.069C52.4974 111.991 52.559 111.894 52.6025 111.778L53.0982 111.917C53.046 112.085 52.9583 112.233 52.8351 112.361C52.7119 112.487 52.5597 112.585 52.3786 112.656C52.1974 112.726 51.9937 112.761 51.7676 112.761Z" fill="#00489D"/>
</svg>
