<svg width="182" height="160" viewBox="0 0 182 160" fill="none" xmlns="http://www.w3.org/2000/svg">
<g filter="url(#filter0_d_415_10794)">
<g clip-path="url(#clip0_415_10794)">
<rect x="19" y="20" width="133.822" height="111.955" rx="3.49861" fill="white"/>
<rect x="19.0007" y="19.9993" width="545.783" height="111.955" fill="white"/>
<path d="M36.397 37.1775C36.3672 36.9257 36.2463 36.7302 36.0342 36.5911C35.8222 36.4519 35.5621 36.3823 35.254 36.3823C35.0287 36.3823 34.8316 36.4188 34.6626 36.4917C34.4953 36.5646 34.3644 36.6648 34.27 36.7923C34.1773 36.9199 34.1309 37.0648 34.1309 37.2272C34.1309 37.363 34.1632 37.4798 34.2278 37.5775C34.294 37.6736 34.3785 37.754 34.4812 37.8186C34.5839 37.8815 34.6916 37.9337 34.8043 37.9751C34.9169 38.0149 35.0204 38.0472 35.1149 38.072L35.6317 38.2112C35.7642 38.2459 35.9117 38.294 36.074 38.3553C36.238 38.4166 36.3945 38.5002 36.5436 38.6062C36.6944 38.7106 36.8186 38.8448 36.9163 39.0088C37.0141 39.1728 37.0629 39.374 37.0629 39.6126C37.0629 39.8876 36.9909 40.1361 36.8468 40.358C36.7043 40.58 36.4956 40.7564 36.2206 40.8873C35.9473 41.0182 35.6151 41.0836 35.2242 41.0836C34.8598 41.0836 34.5442 41.0248 34.2775 40.9072C34.0124 40.7896 33.8037 40.6256 33.6513 40.4152C33.5006 40.2048 33.4153 39.9605 33.3954 39.6822H34.0315C34.048 39.8743 34.1127 40.0333 34.2253 40.1592C34.3396 40.2835 34.4837 40.3763 34.6577 40.4375C34.8332 40.4972 35.0221 40.527 35.2242 40.527C35.4594 40.527 35.6706 40.4889 35.8578 40.4127C36.045 40.3348 36.1933 40.2272 36.3026 40.0897C36.4119 39.9505 36.4666 39.7882 36.4666 39.6026C36.4666 39.4337 36.4194 39.2962 36.325 39.1902C36.2305 39.0842 36.1063 38.998 35.9522 38.9318C35.7982 38.8655 35.6317 38.8075 35.4528 38.7578L34.8266 38.5789C34.4291 38.4646 34.1143 38.3014 33.8824 38.0894C33.6505 37.8774 33.5345 37.5999 33.5345 37.257C33.5345 36.9721 33.6115 36.7236 33.7656 36.5116C33.9213 36.2979 34.13 36.1322 34.3918 36.0146C34.6552 35.8953 34.9492 35.8357 35.2739 35.8357C35.6019 35.8357 35.8934 35.8945 36.1485 36.0121C36.4036 36.1281 36.6057 36.2871 36.7548 36.4892C36.9056 36.6913 36.9851 36.9207 36.9934 37.1775H36.397ZM39.6565 37.1775V37.6744H37.6786V37.1775H39.6565ZM38.255 36.2631H38.8414V39.9008C38.8414 40.0665 38.8655 40.1907 38.9135 40.2735C38.9632 40.3547 39.0261 40.4094 39.1024 40.4375C39.1802 40.464 39.2622 40.4773 39.3483 40.4773C39.413 40.4773 39.466 40.474 39.5074 40.4674C39.5488 40.4591 39.5819 40.4525 39.6068 40.4475L39.726 40.9743C39.6863 40.9892 39.6308 41.0041 39.5596 41.019C39.4883 41.0356 39.398 41.0438 39.2887 41.0438C39.1231 41.0438 38.9607 41.0082 38.8017 40.937C38.6443 40.8658 38.5135 40.7573 38.4091 40.6115C38.3064 40.4657 38.255 40.2818 38.255 40.0599V36.2631ZM41.6617 41.0836C41.4198 41.0836 41.2004 41.038 41.0032 40.9469C40.8061 40.8542 40.6496 40.7208 40.5336 40.5469C40.4176 40.3713 40.3597 40.1592 40.3597 39.9108C40.3597 39.6921 40.4027 39.5149 40.4889 39.379C40.575 39.2415 40.6901 39.1338 40.8343 39.056C40.9784 38.9781 41.1374 38.9202 41.3113 38.8821C41.4869 38.8423 41.6634 38.8108 41.8406 38.7876C42.0725 38.7578 42.2605 38.7355 42.4047 38.7205C42.5504 38.704 42.6565 38.6766 42.7227 38.6385C42.7906 38.6004 42.8246 38.5342 42.8246 38.4398V38.4199C42.8246 38.1747 42.7575 37.9842 42.6233 37.8484C42.4908 37.7125 42.2895 37.6446 42.0195 37.6446C41.7396 37.6446 41.5201 37.7059 41.361 37.8285C41.202 37.9511 41.0902 38.0819 41.0256 38.2211L40.469 38.0223C40.5684 37.7904 40.7009 37.6098 40.8666 37.4806C41.0339 37.3498 41.2161 37.2586 41.4132 37.2073C41.612 37.1543 41.8075 37.1278 41.9996 37.1278C42.1222 37.1278 42.263 37.1427 42.4221 37.1725C42.5827 37.2007 42.7376 37.2595 42.8867 37.3489C43.0375 37.4384 43.1625 37.5734 43.2619 37.754C43.3613 37.9345 43.411 38.1764 43.411 38.4795V40.9941H42.8246V40.4773H42.7948C42.755 40.5601 42.6888 40.6488 42.596 40.7432C42.5032 40.8376 42.3798 40.9179 42.2258 40.9842C42.0717 41.0505 41.8837 41.0836 41.6617 41.0836ZM41.7512 40.5568C41.9831 40.5568 42.1785 40.5113 42.3376 40.4202C42.4983 40.329 42.6192 40.2114 42.7003 40.0673C42.7832 39.9232 42.8246 39.7716 42.8246 39.6126V39.0759C42.7997 39.1057 42.7451 39.133 42.6606 39.1579C42.5778 39.1811 42.4817 39.2018 42.3724 39.22C42.2647 39.2366 42.1595 39.2515 42.0568 39.2647C41.9557 39.2763 41.8737 39.2863 41.8108 39.2945C41.6584 39.3144 41.5159 39.3467 41.3834 39.3914C41.2525 39.4345 41.1465 39.4999 41.0653 39.5877C40.9858 39.6739 40.9461 39.7915 40.9461 39.9406C40.9461 40.1443 41.0214 40.2984 41.1722 40.4028C41.3246 40.5055 41.5176 40.5568 41.7512 40.5568ZM46.1412 37.1775V37.6744H44.1633V37.1775H46.1412ZM44.7398 36.2631H45.3262V39.9008C45.3262 40.0665 45.3502 40.1907 45.3982 40.2735C45.4479 40.3547 45.5109 40.4094 45.5871 40.4375C45.6649 40.464 45.7469 40.4773 45.8331 40.4773C45.8977 40.4773 45.9507 40.474 45.9921 40.4674C46.0335 40.4591 46.0666 40.4525 46.0915 40.4475L46.2108 40.9743C46.171 40.9892 46.1155 41.0041 46.0443 41.019C45.973 41.0356 45.8828 41.0438 45.7734 41.0438C45.6078 41.0438 45.4454 41.0082 45.2864 40.937C45.129 40.8658 44.9982 40.7573 44.8938 40.6115C44.7911 40.4657 44.7398 40.2818 44.7398 40.0599V36.2631ZM47.0233 40.9941V37.1775H47.6097V40.9941H47.0233ZM47.3215 36.5414C47.2072 36.5414 47.1086 36.5024 47.0258 36.4246C46.9446 36.3467 46.904 36.2531 46.904 36.1438C46.904 36.0345 46.9446 35.9409 47.0258 35.863C47.1086 35.7852 47.2072 35.7462 47.3215 35.7462C47.4358 35.7462 47.5335 35.7852 47.6147 35.863C47.6975 35.9409 47.7389 36.0345 47.7389 36.1438C47.7389 36.2531 47.6975 36.3467 47.6147 36.4246C47.5335 36.5024 47.4358 36.5414 47.3215 36.5414ZM51.3872 38.0323L50.8605 38.1813C50.8273 38.0935 50.7785 38.0082 50.7139 37.9254C50.6509 37.8409 50.5648 37.7713 50.4554 37.7167C50.3461 37.662 50.2061 37.6347 50.0355 37.6347C49.8019 37.6347 49.6073 37.6885 49.4516 37.7962C49.2975 37.9022 49.2205 38.0372 49.2205 38.2012C49.2205 38.347 49.2735 38.4621 49.3795 38.5466C49.4855 38.6311 49.6512 38.7015 49.8765 38.7578L50.443 38.897C50.7843 38.9798 51.0385 39.1065 51.2058 39.2771C51.3732 39.4461 51.4568 39.6639 51.4568 39.9306C51.4568 40.1493 51.3939 40.3448 51.268 40.5171C51.1437 40.6893 50.9698 40.8252 50.7462 40.9246C50.5225 41.024 50.2624 41.0737 49.9659 41.0737C49.5766 41.0737 49.2544 40.9892 48.9993 40.8202C48.7442 40.6512 48.5827 40.4044 48.5148 40.0797L49.0714 39.9406C49.1244 40.146 49.2246 40.3001 49.3721 40.4028C49.5211 40.5055 49.7158 40.5568 49.956 40.5568C50.2293 40.5568 50.4463 40.4988 50.607 40.3829C50.7693 40.2653 50.8505 40.1245 50.8505 39.9605C50.8505 39.8279 50.8041 39.717 50.7114 39.6275C50.6186 39.5364 50.4761 39.4685 50.284 39.4237L49.6479 39.2747C49.2983 39.1918 49.0416 39.0634 48.8776 38.8895C48.7152 38.7139 48.6341 38.4944 48.6341 38.231C48.6341 38.0157 48.6945 37.8252 48.8155 37.6595C48.938 37.4939 49.1045 37.3638 49.3149 37.2694C49.5269 37.175 49.7671 37.1278 50.0355 37.1278C50.4132 37.1278 50.7097 37.2106 50.9251 37.3763C51.1421 37.5419 51.2961 37.7606 51.3872 38.0323ZM53.9994 37.1775V37.6744H52.0215V37.1775H53.9994ZM52.598 36.2631H53.1844V39.9008C53.1844 40.0665 53.2084 40.1907 53.2564 40.2735C53.3061 40.3547 53.3691 40.4094 53.4453 40.4375C53.5231 40.464 53.6051 40.4773 53.6913 40.4773C53.7559 40.4773 53.8089 40.474 53.8503 40.4674C53.8917 40.4591 53.9248 40.4525 53.9497 40.4475L54.069 40.9743C54.0292 40.9892 53.9737 41.0041 53.9025 41.019C53.8312 41.0356 53.741 41.0438 53.6316 41.0438C53.466 41.0438 53.3036 41.0082 53.1446 40.937C52.9872 40.8658 52.8564 40.7573 52.752 40.6115C52.6493 40.4657 52.598 40.2818 52.598 40.0599V36.2631ZM54.8815 40.9941V37.1775H55.4679V40.9941H54.8815ZM55.1797 36.5414C55.0654 36.5414 54.9668 36.5024 54.884 36.4246C54.8028 36.3467 54.7622 36.2531 54.7622 36.1438C54.7622 36.0345 54.8028 35.9409 54.884 35.863C54.9668 35.7852 55.0654 35.7462 55.1797 35.7462C55.294 35.7462 55.3917 35.7852 55.4729 35.863C55.5557 35.9409 55.5971 36.0345 55.5971 36.1438C55.5971 36.2531 55.5557 36.3467 55.4729 36.4246C55.3917 36.5024 55.294 36.5414 55.1797 36.5414ZM58.0925 41.0737C57.7347 41.0737 57.4266 40.9892 57.1681 40.8202C56.9097 40.6512 56.7109 40.4185 56.5718 40.122C56.4326 39.8255 56.3631 39.4867 56.3631 39.1057C56.3631 38.7181 56.4343 38.376 56.5768 38.0795C56.7209 37.7813 56.9213 37.5485 57.1781 37.3812C57.4365 37.2123 57.738 37.1278 58.0825 37.1278C58.3509 37.1278 58.5928 37.1775 58.8081 37.2769C59.0235 37.3763 59.1999 37.5154 59.3374 37.6943C59.4749 37.8732 59.5602 38.0819 59.5933 38.3205H59.0069C58.9622 38.1466 58.8628 37.9925 58.7087 37.8583C58.5563 37.7225 58.3509 37.6546 58.0925 37.6546C57.8639 37.6546 57.6634 37.7142 57.4912 37.8335C57.3205 37.9511 57.1872 38.1176 57.0911 38.3329C56.9967 38.5466 56.9495 38.7976 56.9495 39.0858C56.9495 39.3807 56.9959 39.6374 57.0886 39.8561C57.183 40.0748 57.3156 40.2446 57.4862 40.3655C57.6585 40.4864 57.8606 40.5469 58.0925 40.5469C58.2449 40.5469 58.3832 40.5204 58.5074 40.4674C58.6317 40.4144 58.7369 40.3382 58.823 40.2388C58.9092 40.1394 58.9704 40.0201 59.0069 39.8809H59.5933C59.5602 40.1062 59.4782 40.3092 59.3473 40.4897C59.2181 40.6686 59.0466 40.8111 58.833 40.9171C58.6209 41.0215 58.3741 41.0737 58.0925 41.0737ZM63.154 38.0323L62.6273 38.1813C62.5941 38.0935 62.5453 38.0082 62.4807 37.9254C62.4177 37.8409 62.3316 37.7713 62.2222 37.7167C62.1129 37.662 61.9729 37.6347 61.8023 37.6347C61.5687 37.6347 61.3741 37.6885 61.2184 37.7962C61.0643 37.9022 60.9873 38.0372 60.9873 38.2012C60.9873 38.347 61.0403 38.4621 61.1463 38.5466C61.2523 38.6311 61.418 38.7015 61.6433 38.7578L62.2098 38.897C62.5511 38.9798 62.8053 39.1065 62.9726 39.2771C63.14 39.4461 63.2236 39.6639 63.2236 39.9306C63.2236 40.1493 63.1607 40.3448 63.0348 40.5171C62.9105 40.6893 62.7366 40.8252 62.513 40.9246C62.2893 41.024 62.0292 41.0737 61.7327 41.0737C61.3434 41.0737 61.0212 40.9892 60.7661 40.8202C60.511 40.6512 60.3495 40.4044 60.2816 40.0797L60.8382 39.9406C60.8912 40.146 60.9914 40.3001 61.1389 40.4028C61.2879 40.5055 61.4826 40.5568 61.7228 40.5568C61.9961 40.5568 62.2131 40.4988 62.3738 40.3829C62.5361 40.2653 62.6173 40.1245 62.6173 39.9605C62.6173 39.8279 62.5709 39.717 62.4782 39.6275C62.3854 39.5364 62.2429 39.4685 62.0508 39.4237L61.4147 39.2747C61.0651 39.1918 60.8084 39.0634 60.6444 38.8895C60.482 38.7139 60.4009 38.4944 60.4009 38.231C60.4009 38.0157 60.4613 37.8252 60.5823 37.6595C60.7048 37.4939 60.8713 37.3638 61.0817 37.2694C61.2937 37.175 61.5339 37.1278 61.8023 37.1278C62.18 37.1278 62.4765 37.2106 62.6919 37.3763C62.9089 37.5419 63.0629 37.7606 63.154 38.0323Z" fill="#131313"/>
<path d="M33.8996 67.6746V66.3427L37.433 62.8789C37.7709 62.5376 38.0525 62.2345 38.2778 61.9694C38.5031 61.7044 38.6721 61.4476 38.7847 61.1992C38.8974 60.9507 38.9537 60.6856 38.9537 60.404C38.9537 60.0826 38.8808 59.8077 38.735 59.5791C38.5892 59.3471 38.3888 59.1682 38.1337 59.0423C37.8786 58.9164 37.5887 58.8535 37.264 58.8535C36.9294 58.8535 36.6362 58.9231 36.3844 59.0622C36.1326 59.1981 35.9371 59.3919 35.798 59.6437C35.6621 59.8955 35.5942 60.1953 35.5942 60.5432H33.84C33.84 59.8971 33.9874 59.3356 34.2822 58.8585C34.5771 58.3814 34.983 58.012 35.4998 57.7502C36.02 57.4885 36.6163 57.3576 37.2889 57.3576C37.9714 57.3576 38.571 57.4852 39.0879 57.7403C39.6047 57.9954 40.0056 58.3449 40.2905 58.7889C40.5787 59.2328 40.7229 59.7397 40.7229 60.3096C40.7229 60.6906 40.65 61.065 40.5042 61.4327C40.3584 61.8005 40.1017 62.208 39.7339 62.6553C39.3695 63.1025 38.8576 63.6442 38.1983 64.2803L36.444 66.0644V66.134H40.8769V67.6746H33.8996ZM46.3534 67.8684C45.5351 67.8684 44.8327 67.6613 44.2463 67.2472C43.6632 66.8297 43.2143 66.2284 42.8996 65.4432C42.5881 64.6547 42.4324 63.7055 42.4324 62.5956C42.4357 61.4857 42.5931 60.5415 42.9045 59.7629C43.2193 58.9811 43.6682 58.3847 44.2513 57.9739C44.8377 57.5631 45.5384 57.3576 46.3534 57.3576C47.1685 57.3576 47.8692 57.5631 48.4556 57.9739C49.042 58.3847 49.4909 58.9811 49.8023 59.7629C50.1171 60.5448 50.2745 61.489 50.2745 62.5956C50.2745 63.7088 50.1171 64.6597 49.8023 65.4482C49.4909 66.2334 49.042 66.833 48.4556 67.2472C47.8725 67.6613 47.1718 67.8684 46.3534 67.8684ZM46.3534 66.3129C46.9895 66.3129 47.4915 65.9998 47.8592 65.3736C48.2303 64.7441 48.4158 63.8181 48.4158 62.5956C48.4158 61.7872 48.3313 61.108 48.1624 60.5581C47.9934 60.0081 47.7549 59.594 47.4468 59.3157C47.1386 59.0341 46.7742 58.8933 46.3534 58.8933C45.7206 58.8933 45.2204 59.208 44.8526 59.8375C44.4849 60.4637 44.2993 61.383 44.296 62.5956C44.2927 63.4073 44.3739 64.0898 44.5395 64.6431C44.7085 65.1964 44.947 65.6138 45.2552 65.8954C45.5633 66.1737 45.9294 66.3129 46.3534 66.3129ZM57.2158 63.2019V67.6746H55.4168V57.4968H57.176V61.3383H57.2655C57.4444 60.9076 57.721 60.568 58.0954 60.3195C58.4731 60.0677 58.9535 59.9418 59.5366 59.9418C60.0667 59.9418 60.5288 60.0528 60.9231 60.2748C61.3174 60.4968 61.6222 60.8215 61.8375 61.2489C62.0562 61.6762 62.1655 62.198 62.1655 62.8143V67.6746H60.3665V63.0926C60.3665 62.5791 60.234 62.1798 59.9689 61.8949C59.7072 61.6067 59.3394 61.4625 58.8657 61.4625C58.5476 61.4625 58.2627 61.5321 58.0109 61.6713C57.7624 61.8071 57.567 62.0042 57.4245 62.2627C57.2853 62.5211 57.2158 62.8342 57.2158 63.2019ZM63.9993 67.6746V60.0412H65.7983V67.6746H63.9993ZM64.9038 58.9579C64.6188 58.9579 64.3737 58.8634 64.1683 58.6746C63.9628 58.4824 63.8601 58.2522 63.8601 57.9838C63.8601 57.7121 63.9628 57.4819 64.1683 57.293C64.3737 57.1009 64.6188 57.0048 64.9038 57.0048C65.192 57.0048 65.4372 57.1009 65.6393 57.293C65.8447 57.4819 65.9474 57.7121 65.9474 57.9838C65.9474 58.2522 65.8447 58.4824 65.6393 58.6746C65.4372 58.8634 65.192 58.9579 64.9038 58.9579ZM71.4599 60.0412V61.4327H67.0717V60.0412H71.4599ZM68.1551 58.2124H69.9541V65.3786C69.9541 65.6205 69.9906 65.806 70.0635 65.9352C70.1397 66.0611 70.239 66.1472 70.3616 66.1936C70.4842 66.24 70.6201 66.2632 70.7691 66.2632C70.8818 66.2632 70.9845 66.2549 71.0773 66.2383C71.1733 66.2218 71.2462 66.2069 71.2959 66.1936L71.5991 67.6C71.503 67.6331 71.3655 67.6696 71.1866 67.7093C71.011 67.7491 70.7956 67.7723 70.5405 67.7789C70.09 67.7922 69.6841 67.7243 69.323 67.5752C68.9619 67.4228 68.6753 67.1875 68.4632 66.8695C68.2545 66.5514 68.1518 66.1539 68.1551 65.6768V58.2124ZM78.8882 62.0589L77.2483 62.2378C77.2019 62.0722 77.1207 61.9164 77.0048 61.7707C76.8921 61.6249 76.7397 61.5073 76.5476 61.4178C76.3554 61.3284 76.1202 61.2836 75.8419 61.2836C75.4675 61.2836 75.1528 61.3648 74.8976 61.5271C74.6459 61.6895 74.5216 61.8999 74.5249 62.1583C74.5216 62.3803 74.6028 62.5608 74.7684 62.7C74.9374 62.8391 75.2157 62.9534 75.6033 63.0429L76.9054 63.3212C77.6276 63.4769 78.1643 63.7237 78.5155 64.0617C78.87 64.3996 79.0489 64.8419 79.0522 65.3885C79.0489 65.8689 78.9081 66.293 78.6298 66.6608C78.3548 67.0252 77.9722 67.3101 77.4818 67.5155C76.9915 67.7209 76.4283 67.8236 75.7922 67.8236C74.8579 67.8236 74.1058 67.6282 73.536 67.2372C72.9661 66.843 72.6265 66.2947 72.5172 65.5923L74.2715 65.4233C74.351 65.7679 74.52 66.028 74.7784 66.2036C75.0368 66.3791 75.3731 66.4669 75.7872 66.4669C76.2146 66.4669 76.5575 66.3791 76.8159 66.2036C77.0777 66.028 77.2085 65.811 77.2085 65.5525C77.2085 65.3339 77.124 65.1533 76.9551 65.0108C76.7894 64.8684 76.531 64.7591 76.1798 64.6829L74.8778 64.4095C74.1456 64.2571 73.6039 64.0004 73.2527 63.6392C72.9015 63.2748 72.7276 62.8143 72.7309 62.2577C72.7276 61.7872 72.8551 61.3797 73.1136 61.0352C73.3753 60.6873 73.7381 60.4189 74.2019 60.2301C74.669 60.0379 75.2074 59.9418 75.817 59.9418C76.7116 59.9418 77.4156 60.1323 77.9291 60.5133C78.446 60.8944 78.7657 61.4095 78.8882 62.0589Z" fill="#263238"/>
<path d="M33.6113 81.5403V76.4514H36.6826V76.9981H34.2276V78.7175H36.5235V79.2642H34.2276V80.9936H36.7223V81.5403H33.6113ZM37.7138 81.5403V77.7236H38.2803V78.32H38.33C38.4095 78.1162 38.5379 77.958 38.7151 77.8454C38.8924 77.7311 39.1053 77.6739 39.3537 77.6739C39.6055 77.6739 39.8151 77.7311 39.9824 77.8454C40.1514 77.958 40.2831 78.1162 40.3775 78.32H40.4172C40.515 78.1228 40.6616 77.9663 40.857 77.8503C41.0525 77.7327 41.2869 77.6739 41.5602 77.6739C41.9015 77.6739 42.1806 77.7808 42.3976 77.9945C42.6146 78.2065 42.7231 78.537 42.7231 78.9859V81.5403H42.1367V78.9859C42.1367 78.7043 42.0597 78.503 41.9056 78.3821C41.7516 78.2612 41.5702 78.2007 41.3615 78.2007C41.0931 78.2007 40.8852 78.2819 40.7378 78.4442C40.5903 78.6049 40.5166 78.8087 40.5166 79.0555V81.5403H39.9203V78.9263C39.9203 78.7093 39.8499 78.5345 39.7091 78.402C39.5683 78.2678 39.3869 78.2007 39.1649 78.2007C39.0125 78.2007 38.87 78.2413 38.7375 78.3225C38.6066 78.4036 38.5006 78.5163 38.4194 78.6604C38.3399 78.8029 38.3002 78.9677 38.3002 79.1549V81.5403H37.7138ZM43.7953 82.9715V77.7236H44.3619V78.3299H44.4314C44.4745 78.2637 44.5341 78.1792 44.6103 78.0765C44.6882 77.9721 44.7992 77.8793 44.9433 77.7982C45.0891 77.7153 45.2862 77.6739 45.5347 77.6739C45.8561 77.6739 46.1393 77.7543 46.3845 77.915C46.6297 78.0756 46.821 78.3034 46.9585 78.5983C47.096 78.8931 47.1647 79.241 47.1647 79.6419C47.1647 80.0461 47.096 80.3964 46.9585 80.693C46.821 80.9878 46.6305 81.2164 46.387 81.3788C46.1435 81.5395 45.8627 81.6198 45.5446 81.6198C45.2995 81.6198 45.1032 81.5792 44.9557 81.498C44.8083 81.4152 44.6948 81.3216 44.6153 81.2173C44.5358 81.1112 44.4745 81.0234 44.4314 80.9539H44.3817V82.9715H43.7953ZM44.3718 79.632C44.3718 79.9202 44.414 80.1745 44.4985 80.3948C44.583 80.6135 44.7064 80.7849 44.8688 80.9091C45.0311 81.0317 45.2299 81.093 45.4651 81.093C45.7103 81.093 45.9149 81.0284 46.0789 80.8992C46.2445 80.7683 46.3688 80.5927 46.4516 80.3724C46.5361 80.1504 46.5783 79.9036 46.5783 79.632C46.5783 79.3636 46.5369 79.1217 46.4541 78.9064C46.3729 78.6894 46.2495 78.5179 46.0838 78.392C45.9198 78.2645 45.7136 78.2007 45.4651 78.2007C45.2266 78.2007 45.0261 78.2612 44.8638 78.3821C44.7015 78.5014 44.5789 78.6687 44.496 78.884C44.4132 79.0977 44.3718 79.347 44.3718 79.632ZM48.6457 76.4514V81.5403H48.0593V76.4514H48.6457ZM51.2702 81.6198C50.9257 81.6198 50.6234 81.5378 50.3633 81.3738C50.1049 81.2098 49.9028 80.9804 49.757 80.6855C49.6129 80.3906 49.5408 80.0461 49.5408 79.6518C49.5408 79.2543 49.6129 78.9072 49.757 78.6107C49.9028 78.3142 50.1049 78.0839 50.3633 77.9199C50.6234 77.7559 50.9257 77.6739 51.2702 77.6739C51.6148 77.6739 51.9163 77.7559 52.1747 77.9199C52.4348 78.0839 52.6369 78.3142 52.781 78.6107C52.9268 78.9072 52.9997 79.2543 52.9997 79.6518C52.9997 80.0461 52.9268 80.3906 52.781 80.6855C52.6369 80.9804 52.4348 81.2098 52.1747 81.3738C51.9163 81.5378 51.6148 81.6198 51.2702 81.6198ZM51.2702 81.093C51.532 81.093 51.7473 81.0259 51.9163 80.8917C52.0853 80.7576 52.2103 80.5811 52.2915 80.3625C52.3727 80.1438 52.4133 79.9069 52.4133 79.6518C52.4133 79.3967 52.3727 79.159 52.2915 78.9387C52.2103 78.7184 52.0853 78.5403 51.9163 78.4045C51.7473 78.2686 51.532 78.2007 51.2702 78.2007C51.0085 78.2007 50.7932 78.2686 50.6242 78.4045C50.4552 78.5403 50.3302 78.7184 50.249 78.9387C50.1678 79.159 50.1272 79.3967 50.1272 79.6518C50.1272 79.9069 50.1678 80.1438 50.249 80.3625C50.3302 80.5811 50.4552 80.7576 50.6242 80.8917C50.7932 81.0259 51.0085 81.093 51.2702 81.093ZM54.1358 82.9715C54.0365 82.9715 53.9478 82.9632 53.87 82.9467C53.7921 82.9318 53.7383 82.9169 53.7085 82.902L53.8575 82.3851C54 82.4216 54.1259 82.4348 54.2352 82.4249C54.3446 82.4149 54.4415 82.3661 54.526 82.2783C54.6121 82.1921 54.6908 82.0522 54.762 81.8583L54.8714 81.5602L53.46 77.7236H54.0961L55.1496 80.765H55.1894L56.243 77.7236H56.8791L55.259 82.0969C55.1861 82.294 55.0958 82.4572 54.9881 82.5864C54.8805 82.7173 54.7554 82.8142 54.6129 82.8771C54.4721 82.9401 54.3131 82.9715 54.1358 82.9715ZM59.1166 81.6198C58.7489 81.6198 58.4317 81.5386 58.165 81.3763C57.8999 81.2123 57.6953 80.9837 57.5512 80.6905C57.4088 80.3956 57.3375 80.0527 57.3375 79.6618C57.3375 79.2708 57.4088 78.9263 57.5512 78.6281C57.6953 78.3283 57.8958 78.0947 58.1525 77.9274C58.411 77.7584 58.7124 77.6739 59.057 77.6739C59.2558 77.6739 59.4521 77.7071 59.6459 77.7733C59.8397 77.8396 60.0161 77.9473 60.1752 78.0963C60.3342 78.2438 60.4609 78.4392 60.5553 78.6828C60.6498 78.9263 60.697 79.2261 60.697 79.5823V79.8307H57.755V79.3238H60.1006C60.1006 79.1085 60.0576 78.9163 59.9714 78.7474C59.8869 78.5784 59.766 78.445 59.6086 78.3473C59.4529 78.2496 59.269 78.2007 59.057 78.2007C58.8234 78.2007 58.6213 78.2587 58.4507 78.3746C58.2817 78.4889 58.1517 78.638 58.0606 78.8219C57.9695 79.0058 57.9239 79.2029 57.9239 79.4133V79.7512C57.9239 80.0395 57.9736 80.2838 58.073 80.4842C58.1741 80.683 58.314 80.8346 58.493 80.939C58.6719 81.0417 58.8798 81.093 59.1166 81.093C59.2707 81.093 59.4098 81.0715 59.5341 81.0284C59.66 80.9837 59.7685 80.9174 59.8596 80.8296C59.9507 80.7402 60.0211 80.6292 60.0708 80.4967L60.6373 80.6557C60.5777 80.8479 60.4775 81.0168 60.3367 81.1626C60.1959 81.3067 60.0219 81.4194 59.8149 81.5005C59.6078 81.58 59.3751 81.6198 59.1166 81.6198ZM63.1892 81.6198C62.8215 81.6198 62.5043 81.5386 62.2376 81.3763C61.9725 81.2123 61.7679 80.9837 61.6238 80.6905C61.4813 80.3956 61.4101 80.0527 61.4101 79.6618C61.4101 79.2708 61.4813 78.9263 61.6238 78.6281C61.7679 78.3283 61.9684 78.0947 62.2251 77.9274C62.4836 77.7584 62.785 77.6739 63.1296 77.6739C63.3284 77.6739 63.5247 77.7071 63.7185 77.7733C63.9123 77.8396 64.0887 77.9473 64.2478 78.0963C64.4068 78.2438 64.5335 78.4392 64.6279 78.6828C64.7224 78.9263 64.7696 79.2261 64.7696 79.5823V79.8307H61.8276V79.3238H64.1732C64.1732 79.1085 64.1302 78.9163 64.044 78.7474C63.9595 78.5784 63.8386 78.445 63.6812 78.3473C63.5255 78.2496 63.3416 78.2007 63.1296 78.2007C62.896 78.2007 62.6939 78.2587 62.5233 78.3746C62.3543 78.4889 62.2243 78.638 62.1332 78.8219C62.0421 79.0058 61.9965 79.2029 61.9965 79.4133V79.7512C61.9965 80.0395 62.0462 80.2838 62.1456 80.4842C62.2467 80.683 62.3866 80.8346 62.5656 80.939C62.7445 81.0417 62.9524 81.093 63.1892 81.093C63.3433 81.093 63.4824 81.0715 63.6067 81.0284C63.7326 80.9837 63.8411 80.9174 63.9322 80.8296C64.0233 80.7402 64.0937 80.6292 64.1434 80.4967L64.7099 80.6557C64.6503 80.8479 64.5501 81.0168 64.4093 81.1626C64.2685 81.3067 64.0945 81.4194 63.8875 81.5005C63.6804 81.58 63.4477 81.6198 63.1892 81.6198ZM69.0708 81.6198C68.7527 81.6198 68.4719 81.5395 68.2284 81.3788C67.9849 81.2164 67.7944 80.9878 67.6569 80.693C67.5194 80.3964 67.4507 80.0461 67.4507 79.6419C67.4507 79.241 67.5194 78.8931 67.6569 78.5983C67.7944 78.3034 67.9857 78.0756 68.2309 77.915C68.4761 77.7543 68.7593 77.6739 69.0807 77.6739C69.3292 77.6739 69.5255 77.7153 69.6696 77.7982C69.8154 77.8793 69.9264 77.9721 70.0026 78.0765C70.0804 78.1792 70.1409 78.2637 70.184 78.3299H70.2337V76.4514H70.8201V81.5403H70.2535V80.9539H70.184C70.1409 81.0234 70.0796 81.1112 70.0001 81.2173C69.9206 81.3216 69.8071 81.4152 69.6597 81.498C69.5122 81.5792 69.3159 81.6198 69.0708 81.6198ZM69.1503 81.093C69.3855 81.093 69.5843 81.0317 69.7466 80.9091C69.909 80.7849 70.0324 80.6135 70.1169 80.3948C70.2014 80.1745 70.2436 79.9202 70.2436 79.632C70.2436 79.347 70.2022 79.0977 70.1194 78.884C70.0365 78.6687 69.914 78.5014 69.7516 78.3821C69.5893 78.2612 69.3888 78.2007 69.1503 78.2007C68.9018 78.2007 68.6947 78.2645 68.5291 78.392C68.3651 78.5179 68.2417 78.6894 68.1589 78.9064C68.0777 79.1217 68.0371 79.3636 68.0371 79.632C68.0371 79.9036 68.0785 80.1504 68.1613 80.3724C68.2458 80.5927 68.3701 80.7683 68.5341 80.8992C68.6997 81.0284 68.9051 81.093 69.1503 81.093ZM73.0986 81.6297C72.8568 81.6297 72.6373 81.5842 72.4402 81.4931C72.243 81.4003 72.0865 81.267 71.9705 81.093C71.8546 80.9174 71.7966 80.7054 71.7966 80.4569C71.7966 80.2382 71.8397 80.061 71.9258 79.9252C72.012 79.7877 72.1271 79.68 72.2712 79.6021C72.4153 79.5243 72.5744 79.4663 72.7483 79.4282C72.9239 79.3884 73.1003 79.357 73.2776 79.3338C73.5095 79.304 73.6975 79.2816 73.8416 79.2667C73.9874 79.2501 74.0934 79.2228 74.1597 79.1847C74.2276 79.1466 74.2615 79.0803 74.2615 78.9859V78.966C74.2615 78.7209 74.1944 78.5304 74.0603 78.3945C73.9277 78.2587 73.7265 78.1908 73.4565 78.1908C73.1765 78.1908 72.957 78.2521 72.798 78.3746C72.639 78.4972 72.5271 78.6281 72.4625 78.7672L71.9059 78.5685C72.0053 78.3365 72.1379 78.156 72.3035 78.0268C72.4708 77.8959 72.653 77.8048 72.8502 77.7534C73.049 77.7004 73.2444 77.6739 73.4366 77.6739C73.5592 77.6739 73.7 77.6888 73.859 77.7187C74.0197 77.7468 74.1746 77.8056 74.3237 77.8951C74.4744 77.9845 74.5995 78.1195 74.6989 78.3001C74.7983 78.4807 74.848 78.7225 74.848 79.0257V81.5403H74.2615V81.0234H74.2317C74.192 81.1063 74.1257 81.1949 74.0329 81.2893C73.9402 81.3837 73.8168 81.4641 73.6627 81.5303C73.5086 81.5966 73.3206 81.6297 73.0986 81.6297ZM73.1881 81.103C73.42 81.103 73.6155 81.0574 73.7745 80.9663C73.9352 80.8752 74.0561 80.7576 74.1373 80.6135C74.2201 80.4693 74.2615 80.3178 74.2615 80.1587V79.622C74.2367 79.6518 74.182 79.6792 74.0975 79.704C74.0147 79.7272 73.9186 79.7479 73.8093 79.7661C73.7016 79.7827 73.5964 79.7976 73.4937 79.8109C73.3927 79.8225 73.3107 79.8324 73.2477 79.8407C73.0953 79.8606 72.9529 79.8929 72.8203 79.9376C72.6895 79.9807 72.5835 80.0461 72.5023 80.1339C72.4228 80.22 72.383 80.3376 72.383 80.4867C72.383 80.6905 72.4584 80.8445 72.6091 80.9489C72.7615 81.0516 72.9545 81.103 73.1881 81.103ZM77.5781 77.7236V78.2206H75.6002V77.7236H77.5781ZM76.1767 76.8092H76.7631V80.447C76.7631 80.6126 76.7871 80.7369 76.8352 80.8197C76.8849 80.9009 76.9478 80.9555 77.024 80.9837C77.1019 81.0102 77.1839 81.0234 77.27 81.0234C77.3346 81.0234 77.3876 81.0201 77.429 81.0135C77.4705 81.0052 77.5036 80.9986 77.5284 80.9936L77.6477 81.5204C77.6079 81.5353 77.5525 81.5502 77.4812 81.5651C77.41 81.5817 77.3197 81.59 77.2104 81.59C77.0447 81.59 76.8824 81.5544 76.7234 81.4831C76.566 81.4119 76.4351 81.3034 76.3308 81.1576C76.2281 81.0118 76.1767 80.828 76.1767 80.606V76.8092ZM79.5834 81.6297C79.3415 81.6297 79.122 81.5842 78.9249 81.4931C78.7278 81.4003 78.5712 81.267 78.4553 81.093C78.3393 80.9174 78.2813 80.7054 78.2813 80.4569C78.2813 80.2382 78.3244 80.061 78.4105 79.9252C78.4967 79.7877 78.6118 79.68 78.7559 79.6021C78.9 79.5243 79.0591 79.4663 79.233 79.4282C79.4086 79.3884 79.585 79.357 79.7623 79.3338C79.9942 79.304 80.1822 79.2816 80.3263 79.2667C80.4721 79.2501 80.5781 79.2228 80.6444 79.1847C80.7123 79.1466 80.7463 79.0803 80.7463 78.9859V78.966C80.7463 78.7209 80.6792 78.5304 80.545 78.3945C80.4125 78.2587 80.2112 78.1908 79.9412 78.1908C79.6612 78.1908 79.4417 78.2521 79.2827 78.3746C79.1237 78.4972 79.0119 78.6281 78.9473 78.7672L78.3907 78.5685C78.4901 78.3365 78.6226 78.156 78.7882 78.0268C78.9555 77.8959 79.1378 77.8048 79.3349 77.7534C79.5337 77.7004 79.7291 77.6739 79.9213 77.6739C80.0439 77.6739 80.1847 77.6888 80.3437 77.7187C80.5044 77.7468 80.6593 77.8056 80.8084 77.8951C80.9591 77.9845 81.0842 78.1195 81.1836 78.3001C81.283 78.4807 81.3327 78.7225 81.3327 79.0257V81.5403H80.7463V81.0234H80.7164C80.6767 81.1063 80.6104 81.1949 80.5177 81.2893C80.4249 81.3837 80.3015 81.4641 80.1474 81.5303C79.9934 81.5966 79.8053 81.6297 79.5834 81.6297ZM79.6728 81.103C79.9047 81.103 80.1002 81.0574 80.2592 80.9663C80.4199 80.8752 80.5408 80.7576 80.622 80.6135C80.7048 80.4693 80.7463 80.3178 80.7463 80.1587V79.622C80.7214 79.6518 80.6667 79.6792 80.5823 79.704C80.4994 79.7272 80.4034 79.7479 80.294 79.7661C80.1863 79.7827 80.0812 79.7976 79.9785 79.8109C79.8774 79.8225 79.7954 79.8324 79.7325 79.8407C79.5801 79.8606 79.4376 79.8929 79.3051 79.9376C79.1742 79.9807 79.0682 80.0461 78.987 80.1339C78.9075 80.22 78.8677 80.3376 78.8677 80.4867C78.8677 80.6905 78.9431 80.8445 79.0939 80.9489C79.2463 81.0516 79.4393 81.103 79.6728 81.103ZM86.0706 77.7236V78.2206H84.0132V77.7236H86.0706ZM84.6294 81.5403V77.1968C84.6294 76.9782 84.6807 76.796 84.7834 76.6502C84.8862 76.5044 85.0195 76.3951 85.1835 76.3222C85.3475 76.2493 85.5206 76.2129 85.7028 76.2129C85.8469 76.2129 85.9646 76.2245 86.0557 76.2476C86.1468 76.2708 86.2147 76.2924 86.2594 76.3123L86.0905 76.8192C86.0606 76.8092 86.0192 76.7968 85.9662 76.7819C85.9149 76.767 85.8469 76.7595 85.7625 76.7595C85.5686 76.7595 85.4287 76.8084 85.3425 76.9061C85.258 77.0039 85.2158 77.1471 85.2158 77.336V81.5403H84.6294ZM88.2858 81.6198C87.9412 81.6198 87.6389 81.5378 87.3788 81.3738C87.1204 81.2098 86.9183 80.9804 86.7725 80.6855C86.6284 80.3906 86.5564 80.0461 86.5564 79.6518C86.5564 79.2543 86.6284 78.9072 86.7725 78.6107C86.9183 78.3142 87.1204 78.0839 87.3788 77.9199C87.6389 77.7559 87.9412 77.6739 88.2858 77.6739C88.6303 77.6739 88.9318 77.7559 89.1903 77.9199C89.4503 78.0839 89.6524 78.3142 89.7965 78.6107C89.9423 78.9072 90.0152 79.2543 90.0152 79.6518C90.0152 80.0461 89.9423 80.3906 89.7965 80.6855C89.6524 80.9804 89.4503 81.2098 89.1903 81.3738C88.9318 81.5378 88.6303 81.6198 88.2858 81.6198ZM88.2858 81.093C88.5475 81.093 88.7629 81.0259 88.9318 80.8917C89.1008 80.7576 89.2259 80.5811 89.307 80.3625C89.3882 80.1438 89.4288 79.9069 89.4288 79.6518C89.4288 79.3967 89.3882 79.159 89.307 78.9387C89.2259 78.7184 89.1008 78.5403 88.9318 78.4045C88.7629 78.2686 88.5475 78.2007 88.2858 78.2007C88.024 78.2007 87.8087 78.2686 87.6397 78.4045C87.4708 78.5403 87.3457 78.7184 87.2645 78.9387C87.1834 79.159 87.1428 79.3967 87.1428 79.6518C87.1428 79.9069 87.1834 80.1438 87.2645 80.3625C87.3457 80.5811 87.4708 80.7576 87.6397 80.8917C87.8087 81.0259 88.024 81.093 88.2858 81.093ZM90.9104 81.5403V77.7236H91.4769V78.3001H91.5167C91.5862 78.1113 91.7121 77.958 91.8943 77.8404C92.0766 77.7228 92.282 77.664 92.5106 77.664C92.5536 77.664 92.6075 77.6648 92.6721 77.6665C92.7367 77.6681 92.7856 77.6706 92.8187 77.6739V78.2703C92.7988 78.2653 92.7533 78.2579 92.682 78.2479C92.6125 78.2363 92.5387 78.2305 92.4609 78.2305C92.2753 78.2305 92.1097 78.2694 91.9639 78.3473C91.8198 78.4235 91.7055 78.5295 91.621 78.6654C91.5382 78.7995 91.4968 78.9528 91.4968 79.1251V81.5403H90.9104ZM97.1416 77.7236V78.2206H95.1637V77.7236H97.1416ZM95.7402 76.8092H96.3266V80.447C96.3266 80.6126 96.3506 80.7369 96.3987 80.8197C96.4484 80.9009 96.5113 80.9555 96.5875 80.9837C96.6654 81.0102 96.7474 81.0234 96.8335 81.0234C96.8981 81.0234 96.9511 81.0201 96.9925 81.0135C97.034 81.0052 97.0671 80.9986 97.0919 80.9936L97.2112 81.5204C97.1715 81.5353 97.116 81.5502 97.0447 81.5651C96.9735 81.5817 96.8832 81.59 96.7739 81.59C96.6082 81.59 96.4459 81.5544 96.2869 81.4831C96.1295 81.4119 95.9986 81.3034 95.8943 81.1576C95.7916 81.0118 95.7402 80.828 95.7402 80.606V76.8092ZM98.6921 79.2443V81.5403H98.1057V76.4514H98.6921V78.32H98.7418C98.8313 78.1228 98.9655 77.9663 99.1444 77.8503C99.3249 77.7327 99.5651 77.6739 99.865 77.6739C100.125 77.6739 100.353 77.7261 100.548 77.8305C100.744 77.9332 100.895 78.0914 101.003 78.3051C101.112 78.5171 101.167 78.7871 101.167 79.1151V81.5403H100.581V79.1549C100.581 78.8517 100.502 78.6173 100.345 78.4517C100.189 78.2844 99.9727 78.2007 99.696 78.2007C99.5039 78.2007 99.3316 78.2413 99.1792 78.3225C99.0284 78.4036 98.9092 78.5221 98.8214 78.6778C98.7352 78.8335 98.6921 79.0223 98.6921 79.2443ZM103.84 81.6198C103.472 81.6198 103.155 81.5386 102.888 81.3763C102.623 81.2123 102.419 80.9837 102.275 80.6905C102.132 80.3956 102.061 80.0527 102.061 79.6618C102.061 79.2708 102.132 78.9263 102.275 78.6281C102.419 78.3283 102.619 78.0947 102.876 77.9274C103.134 77.7584 103.436 77.6739 103.78 77.6739C103.979 77.6739 104.175 77.7071 104.369 77.7733C104.563 77.8396 104.74 77.9473 104.899 78.0963C105.058 78.2438 105.184 78.4392 105.279 78.6828C105.373 78.9263 105.42 79.2261 105.42 79.5823V79.8307H102.478V79.3238H104.824C104.824 79.1085 104.781 78.9163 104.695 78.7474C104.61 78.5784 104.489 78.445 104.332 78.3473C104.176 78.2496 103.992 78.2007 103.78 78.2007C103.547 78.2007 103.345 78.2587 103.174 78.3746C103.005 78.4889 102.875 78.638 102.784 78.8219C102.693 79.0058 102.647 79.2029 102.647 79.4133V79.7512C102.647 80.0395 102.697 80.2838 102.796 80.4842C102.897 80.683 103.037 80.8346 103.216 80.939C103.395 81.0417 103.603 81.093 103.84 81.093C103.994 81.093 104.133 81.0715 104.257 81.0284C104.383 80.9837 104.492 80.9174 104.583 80.8296C104.674 80.7402 104.745 80.6292 104.794 80.4967L105.361 80.6557C105.301 80.8479 105.201 81.0168 105.06 81.1626C104.919 81.3067 104.745 81.4194 104.538 81.5005C104.331 81.58 104.098 81.6198 103.84 81.6198ZM108.28 81.5403V77.7236H108.847V78.32H108.897C108.976 78.1162 109.105 77.958 109.282 77.8454C109.459 77.7311 109.672 77.6739 109.92 77.6739C110.172 77.6739 110.382 77.7311 110.549 77.8454C110.718 77.958 110.85 78.1162 110.944 78.32H110.984C111.082 78.1228 111.228 77.9663 111.424 77.8503C111.619 77.7327 111.854 77.6739 112.127 77.6739C112.468 77.6739 112.747 77.7808 112.964 77.9945C113.181 78.2065 113.29 78.537 113.29 78.9859V81.5403H112.703V78.9859C112.703 78.7043 112.626 78.503 112.472 78.3821C112.318 78.2612 112.137 78.2007 111.928 78.2007C111.66 78.2007 111.452 78.2819 111.304 78.4442C111.157 78.6049 111.083 78.8087 111.083 79.0555V81.5403H110.487V78.9263C110.487 78.7093 110.416 78.5345 110.276 78.402C110.135 78.2678 109.953 78.2007 109.732 78.2007C109.579 78.2007 109.437 78.2413 109.304 78.3225C109.173 78.4036 109.067 78.5163 108.986 78.6604C108.907 78.8029 108.867 78.9677 108.867 79.1549V81.5403H108.28ZM115.912 81.6198C115.568 81.6198 115.266 81.5378 115.006 81.3738C114.747 81.2098 114.545 80.9804 114.399 80.6855C114.255 80.3906 114.183 80.0461 114.183 79.6518C114.183 79.2543 114.255 78.9072 114.399 78.6107C114.545 78.3142 114.747 78.0839 115.006 77.9199C115.266 77.7559 115.568 77.6739 115.912 77.6739C116.257 77.6739 116.559 77.7559 116.817 77.9199C117.077 78.0839 117.279 78.3142 117.423 78.6107C117.569 78.9072 117.642 79.2543 117.642 79.6518C117.642 80.0461 117.569 80.3906 117.423 80.6855C117.279 80.9804 117.077 81.2098 116.817 81.3738C116.559 81.5378 116.257 81.6198 115.912 81.6198ZM115.912 81.093C116.174 81.093 116.39 81.0259 116.559 80.8917C116.727 80.7576 116.853 80.5811 116.934 80.3625C117.015 80.1438 117.055 79.9069 117.055 79.6518C117.055 79.3967 117.015 79.159 116.934 78.9387C116.853 78.7184 116.727 78.5403 116.559 78.4045C116.39 78.2686 116.174 78.2007 115.912 78.2007C115.651 78.2007 115.435 78.2686 115.266 78.4045C115.097 78.5403 114.972 78.7184 114.891 78.9387C114.81 79.159 114.769 79.3967 114.769 79.6518C114.769 79.9069 114.81 80.1438 114.891 80.3625C114.972 80.5811 115.097 80.7576 115.266 80.8917C115.435 81.0259 115.651 81.093 115.912 81.093ZM119.123 79.2443V81.5403H118.537V77.7236H119.104V78.32H119.153C119.243 78.1262 119.379 77.9704 119.561 77.8528C119.743 77.7336 119.978 77.6739 120.266 77.6739C120.525 77.6739 120.751 77.7269 120.945 77.833C121.139 77.9373 121.289 78.0963 121.397 78.31C121.505 78.5221 121.559 78.7904 121.559 79.1151V81.5403H120.972V79.1549C120.972 78.855 120.894 78.6215 120.739 78.4542C120.583 78.2852 120.369 78.2007 120.098 78.2007C119.91 78.2007 119.743 78.2413 119.596 78.3225C119.45 78.4036 119.335 78.5221 119.25 78.6778C119.166 78.8335 119.123 79.0223 119.123 79.2443ZM124.29 77.7236V78.2206H122.312V77.7236H124.29ZM122.889 76.8092H123.475V80.447C123.475 80.6126 123.499 80.7369 123.547 80.8197C123.597 80.9009 123.66 80.9555 123.736 80.9837C123.814 81.0102 123.896 81.0234 123.982 81.0234C124.046 81.0234 124.1 81.0201 124.141 81.0135C124.182 81.0052 124.215 80.9986 124.24 80.9936L124.36 81.5204C124.32 81.5353 124.264 81.5502 124.193 81.5651C124.122 81.5817 124.032 81.59 123.922 81.59C123.757 81.59 123.594 81.5544 123.435 81.4831C123.278 81.4119 123.147 81.3034 123.043 81.1576C122.94 81.0118 122.889 80.828 122.889 80.606V76.8092ZM125.841 79.2443V81.5403H125.254V76.4514H125.841V78.32H125.89C125.98 78.1228 126.114 77.9663 126.293 77.8503C126.473 77.7327 126.714 77.6739 127.013 77.6739C127.273 77.6739 127.501 77.7261 127.697 77.8305C127.892 77.9332 128.044 78.0914 128.151 78.3051C128.261 78.5171 128.315 78.7871 128.315 79.1151V81.5403H127.729V79.1549C127.729 78.8517 127.65 78.6173 127.493 78.4517C127.337 78.2844 127.121 78.2007 126.844 78.2007C126.652 78.2007 126.48 78.2413 126.328 78.3225C126.177 78.4036 126.058 78.5221 125.97 78.6778C125.884 78.8335 125.841 79.0223 125.841 79.2443Z" fill="#7E7E7E"/>
<rect x="32.9995" y="110.712" width="52" height="4" rx="2" fill="#D6DFEC"/>
<path d="M94.6206 111.4L97.2446 114.024L99.8685 111.4" stroke="black" stroke-width="0.655989" stroke-linecap="round" stroke-linejoin="round"/>
</g>
</g>
<defs>
<filter id="filter0_d_415_10794" x="0" y="0" width="181.822" height="159.955" filterUnits="userSpaceOnUse" color-interpolation-filters="sRGB">
<feFlood flood-opacity="0" result="BackgroundImageFix"/>
<feColorMatrix in="SourceAlpha" type="matrix" values="0 0 0 0 0 0 0 0 0 0 0 0 0 0 0 0 0 0 127 0" result="hardAlpha"/>
<feOffset dx="5" dy="4"/>
<feGaussianBlur stdDeviation="12"/>
<feComposite in2="hardAlpha" operator="out"/>
<feColorMatrix type="matrix" values="0 0 0 0 0 0 0 0 0 0 0 0 0 0 0 0 0 0 0.08 0"/>
<feBlend mode="normal" in2="BackgroundImageFix" result="effect1_dropShadow_415_10794"/>
<feBlend mode="normal" in="SourceGraphic" in2="effect1_dropShadow_415_10794" result="shape"/>
</filter>
<clipPath id="clip0_415_10794">
<rect x="19" y="20" width="133.822" height="111.955" rx="3.49861" fill="white"/>
</clipPath>
</defs>
</svg>
